<?xml version="1.0" encoding="utf-8"?>
<!-- Generator: Adobe Illustrator 21.0.0, SVG Export Plug-In . SVG Version: 6.00 Build 0)  -->
<svg version="1.1" id="Layer_1" xmlns="http://www.w3.org/2000/svg" xmlns:xlink="http://www.w3.org/1999/xlink" x="0px" y="0px"
	 viewBox="0 0 499.8 121" style="enable-background:new 0 0 499.8 121;" xml:space="preserve">
<style type="text/css">
	.st0{fill:#FFFFFF;}
</style>
<g>
	<path class="st0" d="M18.6,76.9c-0.4,0-0.7-0.4-0.6-1.3v-0.7c-0.1-4.6,1-13.3,2.1-17.5c0.5-1.8,0.9-2.3,1.5-2.2
		c0.5,0.2,0.6,1,0.4,2.7c-0.2,1.7-0.7,4.7-1.4,9.1c-0.3,1.2-0.5,2.4-0.6,3.8c0,0.2,0,0.3-0.1,0.5c2.6-7.3,5.3-14.6,8.5-21.6
		c0.9-1.5,2.3-5.1,4.6-5.1c2.2,0,3,4.7,3.4,6.1c0.3,1.9,0.5,3.7,0.7,5.3c0.5,3.4,1,6.1,1.5,8.5c0.1,0.7,0.8,4.5,1.6,6.4
		c0.1,0.3,0.3,0.5,0.4,0.6h0.1c0.2,0,0.4-0.3,0.4-0.3c0.2-0.2,0.5-0.5,0.8-0.9c1.2-1.4,2.4-3.3,4-5.5c0.8-1.3,5.2-9.6,7.3-9.6
		c0,0,0.1,0,0.2,0c1.1,0.4,1.5,2.6,1.6,3.6c0.4,2.1,0.6,4.4,0.9,6.5c1.4,8.8,4,12,6.7,12c4.1,0,8.6-6.9,11.3-12.3
		c0.2-0.3,0.7,0.3,0.6,0.5c-3.5,7.7-7.7,12.7-11.5,12.7c-3.7,0-7-4.7-8.8-16.3c-0.5-3.3-0.9-4.7-1.5-4.7s-1.5,2-3,5
		c-0.7,1.3-1.3,2.7-2,3.8c-1.4,2.3-2.7,4.2-4,5.7c-0.3,0.3-0.8,0.9-1.4,1.3c0,0.1,0,0.1-0.1,0.2l-0.2,0.1c-0.4,0.2-0.7,0.3-0.9,0.3
		c-0.2,0-0.4,0-0.5-0.1c-0.2,0-0.4,0-0.8-0.3c-0.3-0.2-0.6-0.6-0.9-1c-0.3-0.5-0.5-0.9-0.7-1.3c0-0.2-0.1-0.3-0.1-0.4
		c-0.7-1.6-1-3.8-1.3-6c-0.8-4.6-1.1-9.4-1.6-13.9c-0.2-0.9-0.5-4.9-2-4.9c-1.3,0-3.3,3.6-3.9,4.6c-1,1.9-1.9,4.3-2.9,6.7
		c0,0.1-0.1,0.1-0.1,0.2c-1.8,5.1-3.7,10.4-5.2,15.6c-0.2,1-0.8,2-1.1,3.2C19.4,76.6,19,76.9,18.6,76.9z"/>
	<path class="st0" d="M18.6,76.9v-0.1c-0.1,0-0.3-0.1-0.3-0.2c-0.1-0.1-0.2-0.4-0.2-0.7c0-0.1,0-0.2,0-0.3l0,0v-0.7v0v0
		c0-0.2,0-0.4,0-0.6c0-4.7,1.1-12.9,2.1-16.8c0.2-0.8,0.4-1.4,0.7-1.7c0.2-0.3,0.4-0.4,0.6-0.4l0.1,0l0-0.1l0,0.1
		c0.1,0.1,0.2,0.2,0.3,0.4c0.1,0.2,0.1,0.5,0.1,0.9c0,0.4,0,0.8-0.1,1.4c-0.2,1.7-0.7,4.7-1.4,9.1l0.1,0l-0.1,0
		c-0.3,1.2-0.5,2.5-0.6,3.8l0,0v0c0,0.2,0,0.3-0.1,0.5l0.1,0.1l0.1,0c2.6-7.3,5.3-14.6,8.5-21.6l-0.1-0.1l0.1,0.1
		c0.5-0.8,1-2,1.8-3.1c0.7-1.1,1.6-1.9,2.7-1.9c0.5,0,0.9,0.3,1.3,0.7c1.2,1.3,1.7,4.2,1.9,5.3l0.1,0l-0.1,0
		c0.3,1.9,0.5,3.7,0.7,5.3l0,0l0,0c0.5,3.4,1,6.1,1.5,8.5l0.1,0l-0.1,0c0.1,0.7,0.8,4.5,1.6,6.4l0.1,0l-0.1,0
		c0.1,0.3,0.3,0.6,0.4,0.7l0,0h0.2c0.2,0,0.3-0.1,0.4-0.2l0.1-0.2l-0.1-0.1l0.1,0.1c0.2-0.2,0.5-0.5,0.8-0.9l-0.1-0.1l0.1,0.1
		c1.2-1.4,2.4-3.3,4-5.5l0,0l0,0c0.4-0.7,1.7-3.1,3.2-5.3c0.7-1.1,1.5-2.2,2.2-3c0.7-0.8,1.4-1.3,1.8-1.3c0,0,0.1,0,0.2,0v-0.1
		l0,0.1c0.5,0.2,0.9,0.8,1.1,1.5c0.2,0.7,0.4,1.5,0.4,1.9l0,0l0,0c0.4,2.1,0.6,4.4,0.9,6.5l0,0c0.7,4.4,1.7,7.4,2.9,9.4
		c1.2,1.9,2.5,2.7,4,2.7c2.1,0,4.3-1.8,6.3-4.2c2-2.4,3.8-5.5,5.1-8.2L73.9,65l0.1,0.1l0,0c0,0,0.1,0.1,0.2,0.1
		c0.1,0.1,0.1,0.2,0.1,0.3l0,0l0,0l0,0c-1.7,3.9-3.7,7-5.6,9.2c-2,2.2-3.9,3.4-5.8,3.4c-1.8,0-3.5-1.1-5-3.7
		c-1.5-2.6-2.8-6.6-3.7-12.4c-0.3-1.6-0.5-2.8-0.7-3.6c-0.1-0.4-0.2-0.7-0.4-0.9c-0.1-0.2-0.3-0.3-0.5-0.3c-0.2,0-0.4,0.2-0.6,0.4
		c-0.6,0.7-1.4,2.4-2.5,4.6c-0.7,1.3-1.3,2.7-2,3.7l0,0l0,0c-1.4,2.3-2.7,4.2-4,5.7l0.1,0.1l-0.1-0.1c-0.3,0.3-0.8,0.9-1.4,1.3
		l-0.1,0v0.1l0,0l0,0l0,0l0,0l0,0l0,0L42,73.2l0.1,0.1l-0.1-0.1l-0.2,0.1c-0.4,0.2-0.7,0.3-0.9,0.3c-0.2,0-0.4,0-0.4-0.1l0,0h-0.1
		c-0.2,0-0.3,0-0.7-0.3l0,0l0,0c-0.3-0.2-0.6-0.6-0.9-1l-0.1,0.1l0.1-0.1c-0.3-0.5-0.5-0.9-0.7-1.3l-0.1,0.1h0.1
		c0-0.2-0.1-0.4-0.1-0.4v0l0,0c-0.7-1.6-1-3.7-1.3-6l0,0l0,0c-0.8-4.6-1.1-9.3-1.6-13.9l0,0l0,0c-0.1-0.4-0.2-1.7-0.5-2.8
		c-0.1-0.6-0.3-1.1-0.6-1.5c-0.3-0.4-0.6-0.7-1-0.7c-0.4,0-0.8,0.2-1.2,0.6c-1.2,1.1-2.4,3.3-2.8,4l0,0l0,0c-1,1.9-1.9,4.3-3,6.7
		l0,0v0h0l0,0l0,0h0l0,0l0,0l-0.1,0.2h0.1l-0.1,0c-1.8,5.1-3.7,10.4-5.2,15.6l0,0l0,0c-0.2,1-0.8,2-1.1,3.1l0.1,0l-0.1-0.1
		c-0.4,0.7-0.8,1-1.1,1V76.9V77c0.5,0,0.9-0.4,1.3-1.1l0,0l0,0c0.3-1.1,0.9-2.1,1.1-3.2l-0.1,0l0.1,0c1.5-5.2,3.4-10.5,5.2-15.5l0,0
		v0h0l0,0l0,0h0l0,0l0,0l0.1-0.2h-0.1l0.1,0c1-2.4,1.9-4.8,2.9-6.7l-0.1-0.1l0.1,0.1c0.3-0.5,0.9-1.7,1.7-2.7c0.4-0.5,0.7-1,1.1-1.3
		c0.4-0.3,0.7-0.5,1-0.5c0.3,0,0.6,0.2,0.8,0.6c0.4,0.6,0.6,1.4,0.8,2.3c0.2,0.8,0.3,1.6,0.3,1.9l0.1,0l-0.1,0
		c0.5,4.6,0.8,9.4,1.6,13.9l0.1,0l-0.1,0c0.3,2.2,0.6,4.4,1.3,6l0.1-0.1h-0.1c0,0.2,0.1,0.2,0.1,0.4v0l0,0c0.2,0.4,0.4,0.8,0.7,1.3
		l0,0l0,0c0.3,0.4,0.6,0.8,0.9,1l0.1-0.1l-0.1,0.1c0.4,0.3,0.7,0.3,0.9,0.3v-0.1l-0.1,0.1c0.2,0.2,0.4,0.1,0.6,0.1
		c0.2,0,0.6-0.1,1-0.3l0.2-0.1l0,0l0,0l0.1-0.1l0-0.2h-0.1l0.1,0.1c0.6-0.4,1.1-1,1.4-1.3l0,0l0,0c1.2-1.5,2.5-3.4,4-5.7L47.6,66
		l0.1,0.1c0.7-1,1.3-2.5,2-3.8c0.8-1.5,1.4-2.7,1.9-3.6c0.2-0.4,0.5-0.8,0.6-1c0.2-0.2,0.3-0.3,0.4-0.3c0.1,0,0.2,0.1,0.3,0.2
		c0.4,0.5,0.7,1.9,1.1,4.3c0.9,5.8,2.2,9.9,3.8,12.5c1.5,2.6,3.3,3.8,5.2,3.8c1.9,0,4-1.3,6-3.5c2-2.2,3.9-5.4,5.6-9.3l-0.1-0.1
		l0.1,0.1l0-0.1c0-0.2-0.1-0.3-0.2-0.4c-0.1-0.1-0.2-0.2-0.4-0.2c-0.1,0-0.2,0.1-0.2,0.1l0,0l0,0c-1.3,2.7-3.1,5.8-5.1,8.1
		c-2,2.4-4.1,4.1-6.1,4.1c-1.3,0-2.6-0.7-3.7-2.6c-1.1-1.9-2.1-4.9-2.8-9.3l-0.1,0l0.1,0c-0.3-2.1-0.5-4.4-0.9-6.5l-0.1,0l0.1,0
		c-0.1-0.5-0.2-1.3-0.4-2c-0.3-0.7-0.6-1.4-1.3-1.7l0,0h0c-0.1,0-0.2,0-0.2,0c-0.6,0-1.3,0.6-2,1.3c-2.2,2.4-4.8,7.3-5.4,8.3
		l0.1,0.1l-0.1-0.1c-1.5,2.2-2.7,4.1-4,5.5l0,0l0,0c-0.3,0.4-0.6,0.7-0.8,0.9l0,0l0,0l0,0l-0.3,0.2h-0.1v0.1l0.1-0.1
		c-0.1-0.1-0.3-0.3-0.4-0.6l0,0l0,0c-0.8-1.9-1.5-5.7-1.6-6.4l0,0l0,0c-0.5-2.4-1-5.2-1.5-8.5l-0.1,0l0.1,0
		c-0.2-1.6-0.4-3.4-0.7-5.3l0,0l0,0c-0.2-0.7-0.4-2.2-1-3.6c-0.3-0.7-0.6-1.3-1-1.8c-0.4-0.5-0.9-0.8-1.5-0.8c-1.2,0-2.1,0.9-2.9,2
		c-0.8,1.1-1.3,2.4-1.8,3.1l0,0l0,0c-3.3,7-5.9,14.3-8.5,21.7l0.2,0.1c0.1-0.2,0.1-0.4,0.1-0.6H20l0.1,0c0.1-1.3,0.3-2.5,0.6-3.7
		l0,0l0,0c0.7-4.5,1.2-7.4,1.4-9.2c0.1-0.5,0.1-1,0.1-1.4c0-0.4,0-0.7-0.1-1c-0.1-0.2-0.2-0.4-0.5-0.5l0,0l0,0l-0.2,0
		c-0.3,0-0.6,0.2-0.8,0.6c-0.2,0.4-0.4,0.9-0.7,1.8c-1.1,4-2.1,12.2-2.1,16.9c0,0.2,0,0.4,0,0.6l0.1,0h-0.1v0.7h0.1l-0.1,0
		c0,0.1,0,0.2,0,0.3c0,0.4,0.1,0.6,0.2,0.8c0.1,0.2,0.3,0.3,0.5,0.3V76.9z"/>
	<path class="st0" d="M75.1,66.8c-2.4,0-1.2-6.6,1.5-9.4c1.9-1.8,3.8-2.7,5.2-2.7c0.7,0.1,1.3,0.4,1.5,0.8c0.2,0.3,0.2,0.5,0,0.6
		c-0.2,0.2-3.4,0.8-5.4,2.5c-1.4,1.2-2.8,3.3-3,5.2c0.1,0.7-0.1,1.9,0.5,1.9c0.2,0,0.5-0.2,0.9-0.5c0.5-0.2,0.8-0.5,1.2-0.9
		c0.8-0.7,1.5-1.5,2.2-2.3c1.2-1.2,2.4-2.7,3.6-4.3c0.1-0.2,0.1-0.4,0.2-0.6c0.4-1,0.7-1.5,1.1-1.5c0.1,0,0.1,0,0.2,0
		c0.5,0.1,0.6,0.7,0.3,1.9c-0.2,1.2-0.8,3-1.3,5.7c-0.4,2-0.7,4.9,0.8,6.7c0.2,0.3,0.6,0.5,0.9,0.7c0.5,0,0.9,0,1.4,0
		c3.4,0.2,9.1-8.6,10.6-11.3l0.4,0.3c-1.9,3.5-6.7,11.1-10.8,12c-0.3,0.1-0.6,0.1-0.9,0.1c-0.4,0-0.7,0-1-0.1
		c-0.5-0.1-1.1-0.5-1.5-0.9c-1.9-1.9-1.8-5.3-1.6-7.8c0.2-1.4,0.5-2.6,0.7-3.7c-1.4,2-3,4-4.8,5.7c-0.4,0.4-0.7,0.7-1.1,1
		c-0.3,0.1-0.5,0.4-0.8,0.5C75.7,66.7,75.4,66.8,75.1,66.8z"/>
	<path class="st0" d="M75.1,66.8v-0.1c-0.4,0-0.7-0.2-0.9-0.6c-0.2-0.4-0.3-0.9-0.3-1.5c0-2.1,1.1-5.4,2.8-7l-0.1-0.1l0.1,0.1
		c1.9-1.8,3.7-2.7,5.1-2.7v-0.1l0,0.1c0.7,0.1,1.3,0.4,1.4,0.7l0,0l0,0c0.1,0.1,0.1,0.3,0.1,0.3L83.2,56l0,0l0,0l0,0l0,0l0,0l0,0
		l0,0c0,0-0.1,0-0.2,0.1c-0.8,0.3-3.4,0.9-5.2,2.5c-1.4,1.2-2.9,3.3-3.1,5.3l0,0l0,0c0,0.3,0,0.8,0.1,1.2c0,0.2,0.1,0.4,0.1,0.5
		c0.1,0.2,0.2,0.3,0.4,0.3c0.3,0,0.6-0.2,1-0.5l-0.1-0.1l0,0.1c0.5-0.2,0.9-0.5,1.3-0.9l-0.1-0.1l0.1,0.1c0.8-0.7,1.5-1.5,2.2-2.3
		L79.7,62l0.1,0.1c1.2-1.2,2.4-2.8,3.6-4.3l0,0l0,0c0.1-0.2,0.1-0.4,0.2-0.6l0,0l0,0c0.2-0.5,0.4-0.9,0.5-1.1
		c0.2-0.2,0.3-0.3,0.5-0.3c0.1,0,0.1,0,0.2,0v-0.1l0,0.1c0.1,0,0.2,0.1,0.3,0.2c0.1,0.1,0.1,0.3,0.1,0.5c0,0.3-0.1,0.6-0.2,1.1l0,0
		l0,0c-0.2,1.2-0.8,3-1.3,5.7c-0.2,0.9-0.3,1.9-0.3,2.9c0,1.4,0.3,2.8,1.2,3.9l0.1-0.1L84.5,70c0.2,0.3,0.7,0.5,0.9,0.7l0,0h0
		c0.5,0,0.9,0,1.4,0v-0.1l0,0.1l0.1,0c0.9,0,1.9-0.6,2.9-1.4c3.1-2.6,6.6-8,7.6-9.9l-0.1-0.1l-0.1,0.1l0.4,0.3l0.1-0.1l-0.1-0.1
		c-1,1.7-2.6,4.5-4.6,6.9c-1.9,2.4-4.1,4.6-6.1,5l0,0l0,0c-0.3,0.1-0.6,0.1-0.9,0.1c-0.4,0-0.7,0-1-0.1l0,0l0,0
		c-0.5-0.1-1.1-0.5-1.5-0.9c-1.4-1.4-1.7-3.5-1.7-5.5c0-0.8,0-1.5,0.1-2.2l-0.1,0l0.1,0c0.2-1.4,0.5-2.6,0.7-3.7l0.1-0.6l-0.3,0.5
		c-1.4,2-3,4-4.8,5.7c-0.4,0.4-0.7,0.7-1.1,1l0.1,0.1l0-0.1c-0.4,0.1-0.6,0.4-0.8,0.5l0,0l0,0c-0.4,0.2-0.7,0.3-1,0.3V66.8v0.1
		c0.3,0,0.7-0.1,1.1-0.3l-0.1-0.1l0,0.1c0.4-0.1,0.6-0.4,0.8-0.5l0,0l0,0c0.4-0.3,0.7-0.6,1.1-1c1.7-1.7,3.4-3.7,4.8-5.7l-0.1-0.1
		l-0.1,0c-0.2,1-0.5,2.2-0.7,3.7l0,0l0,0c-0.1,0.7-0.1,1.5-0.1,2.3c0,2.1,0.3,4.2,1.8,5.7c0.4,0.4,1,0.8,1.6,0.9l0-0.1l0,0.1
		c0.3,0.1,0.7,0.1,1.1,0.1c0.3,0,0.6,0,1-0.1l0-0.1l0,0.1c2.1-0.5,4.3-2.6,6.3-5.1c2-2.5,3.6-5.2,4.6-7l0.1-0.1l-0.5-0.4l-0.1-0.1
		l-0.1,0.1c-0.7,1.3-2.5,4.1-4.5,6.6c-1,1.2-2.1,2.4-3.1,3.2c-1,0.8-2,1.4-2.8,1.4l-0.1,0l0,0h0c-0.5,0-0.9,0-1.4,0v0.1l0.1-0.1
		c-0.3-0.2-0.7-0.4-0.9-0.7l0,0l0,0c-0.8-1-1.1-2.4-1.1-3.7c0-1,0.2-2,0.3-2.9c0.5-2.6,1.1-4.5,1.3-5.7l-0.1,0l0.1,0
		c0.1-0.5,0.2-0.8,0.2-1.2c0-0.3,0-0.5-0.1-0.6c-0.1-0.2-0.3-0.3-0.4-0.3l0,0h0c-0.1,0-0.1,0-0.2,0c-0.3,0-0.5,0.2-0.7,0.4
		c-0.2,0.3-0.4,0.7-0.6,1.2l0.1,0L83.4,57c-0.1,0.2-0.1,0.4-0.2,0.6l0.1,0.1l-0.1-0.1c-1.1,1.5-2.3,3-3.5,4.3l0,0l0,0
		c-0.7,0.8-1.4,1.6-2.2,2.3l0,0l0,0c-0.4,0.4-0.7,0.7-1.2,0.9l0,0l0,0c-0.4,0.3-0.7,0.5-0.8,0.5c-0.1,0-0.2,0-0.2-0.1
		C75.1,65.3,75,65,75,64.7c0-0.3,0-0.7,0-0.9l-0.1,0l0.1,0c0.2-1.9,1.6-3.9,3-5.1c1-0.8,2.3-1.4,3.3-1.8c0.5-0.2,1-0.3,1.4-0.5
		c0.2-0.1,0.3-0.1,0.4-0.1c0.1,0,0.2-0.1,0.3-0.1l-0.1-0.1l0.1,0.1c0.1-0.1,0.2-0.2,0.2-0.3c0-0.1-0.1-0.3-0.2-0.5l-0.1,0.1l0.1-0.1
		c-0.2-0.5-0.9-0.8-1.6-0.9l0,0h0c-1.5,0-3.3,0.9-5.3,2.8l0,0l0,0c-1.7,1.8-2.9,5-2.9,7.2c0,0.7,0.1,1.2,0.3,1.7
		c0.2,0.4,0.6,0.7,1.1,0.7V66.8z"/>
	<path class="st0" d="M99.5,84.3c2.7-4.3,4.9-7.3,7.1-10.3c0.4-4.5,0.7-7.9,0.9-10.5c0.2-1.9,0.3-3.5,0.5-4.6
		c-2.1,3-7.5,10.3-10.6,12.3c-1,0.7-1.8,0.9-2.4,0.9c-2.6,0-2-5-0.9-7.6c1.4-4.1,6.1-9,10.6-9c0.9,0,1.7,0.4,2,0.8
		c0.2,0.3,0.2,0.5,0.3,0.6c0,0.4-0.7,0.5-1,0.5c-0.2,0-0.4,0-0.8,0c-0.1,0-0.3,0-0.5,0c-3.7,0.6-7.5,4.4-9.1,7.7
		c-1.5,3-1.8,5.8-0.3,5.8c0.7,0,1.8-0.5,3.4-1.8c3.8-3.4,6.8-7.5,9.8-11.6c0.1-0.3,0.3-0.5,0.4-0.5c0.6,0.1,0.8,2.1,0.7,6.6
		c-0.1,1.9-0.2,4.5-0.5,7.4c1.7-2.1,3.7-4.4,6.1-7l0.4,0.4c-2.3,2.5-4.5,5.1-6.6,7.7c-0.6,6.8-1.3,13.6-2.5,20.3
		c-2.7,14.5-7.5,20.3-11,20.1C90.4,112.4,88.5,101.5,99.5,84.3z M95.1,111.4c0.2,0,0.3,0.1,0.5,0.1c3,0,7.4-7.4,10-26.9
		c0.4-3.5,0.6-6.5,0.9-9.2c-2.2,2.9-4.3,6.1-6.4,9.5C90.8,99.7,91.5,110.5,95.1,111.4z"/>
	<path class="st0" d="M99.5,84.3l0.1,0.1c2.7-4.3,4.9-7.3,7.1-10.3l0,0l0,0c0.4-4.5,0.7-7.9,0.9-10.5l-0.1,0l0.1,0
		c0.2-1.9,0.3-3.5,0.5-4.6l0.1-0.6l-0.3,0.5c-2.1,3-7.5,10.3-10.5,12.3l0,0c-1,0.7-1.8,0.9-2.4,0.9c-0.6,0-1.1-0.3-1.3-0.8
		c-0.3-0.5-0.4-1.3-0.4-2.1c0-1.5,0.4-3.3,0.9-4.6l0,0l0,0c1.4-4,6.1-9,10.5-9c0.9,0,1.7,0.4,1.9,0.8l0.1-0.1l-0.1,0.1
		c0.2,0.3,0.2,0.5,0.3,0.6L107,57h-0.1l-0.1,0.2c-0.2,0.2-0.6,0.2-0.8,0.2c-0.2,0-0.4,0-0.8,0c-0.1,0-0.3,0-0.5,0h0l0,0
		c-3.7,0.6-7.6,4.4-9.2,7.8c-0.8,1.7-1.3,3.3-1.3,4.4c0,0.5,0.1,0.8,0.3,1.1c0.2,0.3,0.5,0.4,0.9,0.4c0.8,0,1.9-0.5,3.4-1.9
		c3.8-3.4,6.8-7.5,9.8-11.6l0,0l0,0c0-0.1,0.1-0.3,0.2-0.3l0.1-0.1l0,0l0,0l0,0l0,0l0,0l0,0l0,0v-0.1l0,0.1c0.1,0,0.2,0.1,0.2,0.3
		c0.3,0.5,0.4,1.9,0.4,4.2c0,0.6,0,1.3,0,2l0.1,0l-0.1,0c-0.1,1.9-0.2,4.5-0.5,7.4l0,0.4l0.3-0.3c1.7-2.1,3.7-4.4,6.1-7l-0.1-0.1
		l-0.1,0.1l0.4,0.4l0.1-0.1l-0.1-0.1c-2.3,2.5-4.5,5.1-6.6,7.7l0,0l0,0c-0.6,6.8-1.3,13.6-2.5,20.3c-1.3,7.1-3.2,12.2-5.1,15.4
		c-1.9,3.2-3.9,4.7-5.6,4.6l-0.2,0c-1.1-0.1-2-0.7-2.7-1.8c-0.7-1.1-1.1-2.8-1.1-4.9c0-4.9,2.2-12.3,8-21.5L99.5,84.3l-0.1-0.1
		c-5.9,9.2-8.1,16.6-8.1,21.6c0,2.1,0.4,3.8,1.1,5c0.7,1.2,1.7,1.9,2.9,1.9l0.2,0c1.8,0,3.8-1.5,5.8-4.8c1.9-3.3,3.8-8.3,5.1-15.5
		c1.2-6.7,1.9-13.5,2.5-20.3l-0.1,0l0.1,0.1c2.1-2.6,4.3-5.2,6.6-7.7l0.1-0.1l-0.5-0.5l-0.1-0.1l-0.1,0.1c-2.4,2.6-4.4,4.9-6.1,7
		l0.1,0.1l0.1,0c0.3-3,0.4-5.5,0.5-7.4l0,0c0-0.7,0-1.4,0-2c0-1.5-0.1-2.7-0.2-3.5c-0.1-0.4-0.1-0.7-0.2-0.9
		c-0.1-0.2-0.2-0.4-0.4-0.4l0,0h0c-0.1,0-0.2,0.1-0.3,0.2c-0.1,0.1-0.2,0.2-0.2,0.4l0.1,0l-0.1-0.1c-2.9,4.1-6,8.2-9.7,11.6
		c-1.5,1.3-2.6,1.8-3.3,1.8c-0.3,0-0.5-0.1-0.7-0.3c-0.1-0.2-0.2-0.6-0.2-1c0-1.1,0.5-2.6,1.3-4.3c1.6-3.3,5.5-7.1,9.1-7.7l0-0.1
		v0.1c0.2,0,0.4,0,0.5,0c0.4,0,0.6,0,0.8,0c0.2,0,0.4,0,0.7-0.1c0.1,0,0.2-0.1,0.3-0.2c0.1-0.1,0.2-0.2,0.2-0.3v-0.1l0,0
		c-0.1,0-0.1-0.3-0.3-0.6l0,0l0,0c-0.3-0.5-1.2-0.9-2.1-0.9c-4.6,0-9.2,5-10.7,9.1l0.1,0l-0.1,0c-0.5,1.3-1,3.1-1,4.7
		c0,0.8,0.1,1.6,0.4,2.2c0.3,0.6,0.8,1,1.6,0.9c0.6,0,1.5-0.2,2.5-0.9l-0.1-0.1l0.1,0.1c3.1-2.1,8.5-9.3,10.6-12.3L108,59l-0.1,0
		c-0.2,1.1-0.3,2.7-0.5,4.6l0,0v0c-0.2,2.5-0.5,6-0.9,10.5l0.1,0l-0.1-0.1c-2.2,2.9-4.4,6-7.1,10.3L99.5,84.3z M95.1,111.4v0.1
		l0.2,0c0.1,0,0.2,0.1,0.3,0.1c1.6,0,3.5-1.9,5.3-6.2c1.8-4.3,3.5-11.1,4.8-20.8c0.4-3.5,0.6-6.5,0.9-9.3l0-0.5l-0.3,0.4
		c-2.2,3-4.3,6.1-6.4,9.5c-5.4,8.8-7.4,16.2-7.5,20.9c0,3.3,1,5.5,2.5,5.9l0,0h0V111.4l0-0.1c-1.4-0.3-2.4-2.3-2.4-5.6
		c0-4.7,2-12,7.4-20.8c2.1-3.4,4.2-6.5,6.4-9.4l-0.1-0.1l-0.1,0c-0.3,2.7-0.5,5.8-0.9,9.2c-1.3,9.7-3,16.5-4.8,20.8
		c-1.8,4.3-3.6,6.1-5.1,6.1l-0.2,0c-0.1,0-0.2-0.1-0.3-0.1V111.4l0-0.1L95.1,111.4z"/>
	<path class="st0" d="M115.3,70.3c2.6,0,7-6,8.1-8.6c0.5-10.4,1.3-20.7,4.1-30.8c0.2-0.7,0.4-1.6,0.6-2.6c0.6-1.6,1.2-4,2.3-6.5
		c0.2-0.7,3.5-8.4,5.4-8.4c0.4,0,0.8,0.4,1,1.3c0,2-0.4,4.3-0.8,6.3c-1.9,7.9-4,15.8-6.3,23.6c-0.2,0.7-0.4,1.4-0.6,2.1
		c-1,4-2,7.5-2.9,10.8c-0.3,1.2-0.7,2.4-1.2,3.7c-0.1,0.2-0.1,0.4-0.2,0.6c-0.1,2.4-0.2,5.1,0,7.7c0.1,1.4,0.2,2.8,0.3,4.2
		c0.3,1.3,0.6,2.7,1.1,4.1c0.4,0.6,0.7,1.2,1.3,1.6c0.2,0.2,0.5,0.4,0.8,0.5c0.4,0,0.8,0,1-0.1c3.9-1.1,9.4-11.2,11.1-14.5l0.6,0.2
		c-1.9,3.7-6,11.2-9.2,13.8c-1.2,1-2,1.4-3.6,1.4c-0.5-0.1-0.8-0.4-1.2-0.6c-0.8-0.5-1.2-1.2-1.5-1.9c-0.7-1.4-1.1-2.9-1.3-4.4
		c-0.7-2.9-0.7-6.3-0.7-9.2c-1.5,2.6-5.2,7.8-8.6,7.8c-1.5,0-2.5-1.3-2-5.1c0.8-4,3.8-7.7,7.6-9c0.4-0.1,0.8-0.1,1.1-0.1
		c0.6,0,2,0.2,2,1.1c0,0.2,0,0.4-0.1,0.5c-0.2,0.1-0.5,0.1-0.7,0.1c-2,0-3.6,1.1-5,2.4C113.4,66.6,113.2,70.3,115.3,70.3z
		 M125.2,57.3c1.4-4.8,3.2-10.3,4.8-16.5c0.3-0.9,0.5-1.8,0.8-2.6c0.9-3.9,1.8-7.4,2.6-10.8c0.4-2.4,0.9-4.8,1.3-6.9
		c0.5-2.2,0.4-3,0.2-3c-0.6,0-2.3,4.1-2.6,5c-1,2.5-1.6,4.8-2,6.4c-0.3,1.2-0.6,2.2-0.9,3c-1.6,7.7-3.3,15.3-4,23.2
		C125.3,55.9,125.2,56.6,125.2,57.3z"/>
	<path class="st0" d="M115.3,70.3v0.1c1.4,0,3.2-1.5,4.7-3.4c1.6-1.8,2.9-4,3.5-5.3l0,0l0,0c0.5-10.4,1.3-20.7,4.1-30.8
		c0.2-0.7,0.4-1.6,0.6-2.7l-0.1,0l0.1,0c0.6-1.6,1.2-4,2.3-6.5l0,0l0,0c0.1-0.3,1-2.5,2-4.5c0.5-1,1.1-2,1.7-2.7
		c0.6-0.7,1.1-1.2,1.5-1.2c0.2,0,0.3,0.1,0.5,0.3c0.2,0.2,0.3,0.5,0.4,1l0.1,0h-0.1c0,2-0.4,4.2-0.8,6.3l0.1,0l-0.1,0
		c-1.9,7.9-4,15.8-6.3,23.6c-0.2,0.7-0.4,1.4-0.6,2.1l0,0l0,0c-1,4-2,7.5-2.9,10.8l0,0c-0.3,1.2-0.7,2.4-1.2,3.6l0.1,0l-0.1-0.1
		c-0.1,0.2-0.1,0.4-0.2,0.6l0,0l0,0c-0.1,1.4-0.1,2.9-0.1,4.4c0,1.1,0,2.2,0.1,3.3c0.1,1.4,0.2,2.8,0.3,4.2l0,0l0,0
		c0.3,1.3,0.6,2.7,1.1,4.1l0,0l0,0c0.4,0.6,0.7,1.2,1.4,1.7l0.1-0.1l-0.1,0.1c0.2,0.2,0.5,0.4,0.9,0.5l0,0h0c0.4,0,0.8,0,1.1-0.1
		l-0.1-0.1l0,0.1c2-0.6,4.3-3.4,6.4-6.5c2.1-3.1,3.9-6.4,4.7-8.1l-0.1-0.1l0,0.1l0.6,0.2l0-0.1l-0.1-0.1c-1.9,3.7-6,11.2-9.2,13.8
		c-1.2,1-2,1.4-3.5,1.4v0.1l0-0.1c-0.5-0.1-0.8-0.4-1.2-0.6L127,80l0.1-0.1c-0.8-0.5-1.2-1.2-1.5-1.9l0,0l0,0
		c-0.7-1.4-1.1-2.9-1.3-4.3l0,0l0,0c-0.7-2.9-0.7-6.3-0.7-9.2V64l-0.2,0.4c-0.8,1.3-2.1,3.3-3.6,4.9c-1.5,1.6-3.3,2.9-5,2.9
		c-0.6,0-1.1-0.2-1.5-0.7c-0.4-0.5-0.6-1.3-0.6-2.5c0-0.5,0-1.1,0.1-1.8l-0.1,0l0.1,0c0.8-3.9,3.7-7.7,7.5-9l0-0.1l0,0.1
		c0.4-0.1,0.8-0.1,1.1-0.1c0.3,0,0.8,0.1,1.2,0.2c0.4,0.2,0.7,0.4,0.7,0.8c0,0.2,0,0.4-0.1,0.4l0.1,0.1l-0.1-0.1
		c-0.2,0.1-0.5,0.1-0.7,0.1c-2.1,0-3.6,1.1-5.1,2.5l0,0l0,0c-2.7,2.7-3.8,5.1-3.8,6.7c0,0.5,0.1,0.9,0.4,1.2
		c0.2,0.3,0.6,0.5,1.1,0.5V70.3v-0.1c-0.4,0-0.7-0.1-0.9-0.4c-0.2-0.2-0.3-0.6-0.3-1.1c0-1.4,1.1-3.8,3.7-6.5l-0.1-0.1l0.1,0.1
		c1.4-1.3,2.9-2.4,4.9-2.4c0.2,0,0.5,0,0.8-0.1l0,0l0,0c0.2-0.2,0.1-0.4,0.1-0.6c0-0.5-0.4-0.9-0.9-1c-0.5-0.2-1-0.2-1.3-0.2
		c-0.3,0-0.7,0-1.1,0.1l0,0l0,0c-3.9,1.3-6.9,5.1-7.7,9.1l0,0l0,0c-0.1,0.7-0.1,1.3-0.1,1.8c0,1.2,0.2,2.1,0.6,2.6
		c0.4,0.6,1,0.8,1.7,0.8c1.8,0,3.6-1.3,5.1-3c1.5-1.6,2.8-3.6,3.6-4.9l-0.1-0.1h-0.1c0,2.9,0,6.3,0.7,9.3l0.1,0l-0.1,0
		c0.2,1.4,0.6,3,1.3,4.4l0.1-0.1l-0.1,0c0.3,0.7,0.7,1.5,1.6,2l0,0l0,0c0.4,0.2,0.7,0.5,1.3,0.6l0,0h0c1.5,0,2.4-0.4,3.6-1.5
		c3.3-2.7,7.3-10.2,9.3-13.9l0.1-0.1l-0.7-0.2l-0.1,0l0,0.1c-0.9,1.7-2.7,5-4.7,8.1c-2.1,3.1-4.4,5.8-6.3,6.4l0,0l0,0
		c-0.1,0.1-0.6,0.1-1,0.1v0.1l0-0.1c-0.3-0.1-0.6-0.3-0.8-0.5l0,0l0,0c-0.6-0.4-0.9-1-1.3-1.6l-0.1,0.1l0.1,0
		c-0.5-1.3-0.8-2.7-1.1-4l-0.1,0l0.1,0c-0.1-1.3-0.2-2.7-0.3-4.2c-0.1-1.1-0.1-2.2-0.1-3.3c0-1.5,0.1-3,0.1-4.4l-0.1,0l0.1,0.1
		c0.1-0.2,0.1-0.4,0.2-0.6l0,0l0,0c0.5-1.2,0.9-2.5,1.2-3.7l-0.1,0l0.1,0c0.9-3.3,1.9-6.8,2.9-10.8l-0.1,0l0.1,0
		c0.2-0.7,0.4-1.4,0.6-2.1c2.3-7.8,4.4-15.7,6.3-23.6l0,0l0,0c0.4-2,0.8-4.3,0.8-6.3v0l0,0c-0.1-0.5-0.3-0.8-0.5-1.1
		c-0.2-0.2-0.4-0.4-0.7-0.4c-0.6,0-1.1,0.5-1.7,1.3c-1.8,2.2-3.6,6.7-3.8,7.3l0.1,0l-0.1-0.1c-1.1,2.6-1.7,4.9-2.3,6.5l0,0l0,0
		c-0.2,1-0.4,1.9-0.6,2.6c-2.7,10.1-3.6,20.5-4.1,30.8l0.1,0l-0.1,0c-0.5,1.3-1.9,3.5-3.5,5.3c-1.5,1.8-3.3,3.3-4.5,3.3V70.3z
		 M125.2,57.3l0.1,0c1.4-4.8,3.2-10.3,4.8-16.5l-0.1,0l0.1,0c0.3-0.9,0.5-1.8,0.8-2.6l0,0l0,0c0.9-3.9,1.8-7.4,2.6-10.8l0,0l0,0
		c0.4-2.4,0.9-4.8,1.3-6.9l-0.1,0l0.1,0c0.3-1.2,0.4-2,0.4-2.5c0-0.2,0-0.4-0.1-0.5l-0.1-0.1l-0.2-0.1c-0.1,0-0.3,0.1-0.4,0.2
		c-0.4,0.4-0.9,1.4-1.4,2.4c-0.5,1-0.9,2-1,2.4l0.1,0l-0.1,0c-1,2.5-1.6,4.8-2,6.4c-0.3,1.2-0.6,2.2-0.9,3l0,0l0,0
		c-1.6,7.7-3.3,15.4-4,23.2l0.1,0l-0.1,0c-0.1,0.8-0.2,1.5-0.2,2.3v0.9l0.2-0.8L125.2,57.3h0.1c0-0.7,0.1-1.4,0.2-2.2l0,0l0,0
		c0.7-7.8,2.3-15.4,4-23.2l-0.1,0l0.1,0c0.3-0.8,0.6-1.8,0.9-3.1c0.4-1.6,1-3.9,2-6.4l0,0l0,0c0.1-0.4,0.7-1.7,1.2-2.8
		c0.3-0.6,0.6-1.1,0.8-1.5c0.1-0.2,0.2-0.4,0.3-0.5c0.1-0.1,0.2-0.1,0.2-0.1v0l0,0l0,0v0l0,0l0,0l0,0l0,0l0,0l0,0
		c0,0,0.1,0.2,0.1,0.5c0,0.5-0.1,1.2-0.4,2.4l0,0l0,0c-0.4,2.1-0.9,4.5-1.3,6.9l0.1,0l-0.1,0c-0.8,3.4-1.7,6.9-2.6,10.8l0.1,0
		l-0.1,0c-0.3,0.8-0.5,1.7-0.8,2.6l0,0l0,0c-1.6,6.2-3.4,11.7-4.8,16.5L125.2,57.3h0.1H125.2z"/>
	<path class="st0" d="M141.5,66.8c-2.4,0-1.2-6.6,1.5-9.4c1.9-1.8,3.8-2.7,5.2-2.7c0.7,0.1,1.3,0.4,1.5,0.8c0.2,0.3,0.2,0.5,0,0.6
		c-0.2,0.2-3.4,0.8-5.4,2.5c-1.4,1.2-2.8,3.3-3,5.2c0.1,0.7-0.1,1.9,0.5,1.9c0.2,0,0.5-0.2,0.9-0.5c0.5-0.2,0.8-0.5,1.2-0.9
		c0.8-0.7,1.5-1.5,2.2-2.3c1.2-1.2,2.4-2.7,3.6-4.3c0.1-0.2,0.1-0.4,0.2-0.6c0.4-1,0.7-1.5,1.1-1.5c0.1,0,0.1,0,0.2,0
		c0.5,0.1,0.6,0.7,0.3,1.9c-0.2,1.2-0.8,3-1.3,5.7c-0.4,2-0.7,4.9,0.8,6.7c0.2,0.3,0.6,0.5,0.9,0.7c0.5,0,0.9,0,1.4,0
		c3.4,0.2,9.1-8.6,10.6-11.3l0.4,0.3c-1.9,3.5-6.7,11.1-10.8,12c-0.3,0.1-0.6,0.1-0.9,0.1c-0.4,0-0.7,0-1-0.1
		c-0.5-0.1-1.1-0.5-1.5-0.9c-1.9-1.9-1.8-5.3-1.6-7.8c0.2-1.4,0.5-2.6,0.7-3.7c-1.4,2-3,4-4.8,5.7c-0.4,0.4-0.7,0.7-1.1,1
		c-0.3,0.1-0.5,0.4-0.8,0.5C142.1,66.7,141.8,66.8,141.5,66.8z"/>
	<path class="st0" d="M141.5,66.8v-0.1c-0.4,0-0.7-0.2-0.9-0.6c-0.2-0.4-0.3-0.9-0.3-1.5c0-2.1,1.1-5.4,2.8-7l-0.1-0.1l0.1,0.1
		c1.9-1.8,3.7-2.7,5.1-2.7v-0.1l0,0.1c0.7,0.1,1.3,0.4,1.4,0.7l0,0l0,0c0.1,0.1,0.1,0.3,0.1,0.3l-0.1,0.1l0,0l0,0l0,0l0,0l0,0l0,0
		l0,0c0,0-0.1,0-0.2,0.1c-0.8,0.3-3.4,0.9-5.2,2.5c-1.4,1.2-2.9,3.3-3.1,5.3l0,0l0,0c0,0.3,0,0.8,0.1,1.2c0,0.2,0.1,0.4,0.1,0.5
		c0.1,0.2,0.2,0.3,0.4,0.3c0.3,0,0.6-0.2,1-0.5l-0.1-0.1l0,0.1c0.5-0.2,0.9-0.5,1.3-0.9l-0.1-0.1l0.1,0.1c0.8-0.7,1.5-1.5,2.2-2.3
		l-0.1-0.1l0.1,0.1c1.2-1.2,2.4-2.8,3.6-4.3l0,0l0,0c0.1-0.2,0.1-0.4,0.2-0.6l0,0l0,0c0.2-0.5,0.4-0.9,0.5-1.1
		c0.2-0.2,0.3-0.3,0.5-0.3c0.1,0,0.1,0,0.2,0v-0.1l0,0.1c0.1,0,0.2,0.1,0.3,0.2c0.1,0.1,0.1,0.3,0.1,0.5c0,0.3-0.1,0.6-0.2,1.1l0,0
		l0,0c-0.2,1.2-0.8,3-1.3,5.7c-0.2,0.9-0.3,1.9-0.3,3c0,1.4,0.3,2.8,1.2,3.9l0.1-0.1L151,70c0.2,0.3,0.7,0.5,0.9,0.7l0,0h0
		c0.5,0,0.9,0,1.4,0v-0.1l0,0.1l0.1,0c0.9,0,1.9-0.6,2.9-1.4c3.1-2.6,6.6-8,7.6-9.9l-0.1-0.1l-0.1,0.1l0.4,0.3l0.1-0.1l-0.1-0.1
		c-1,1.7-2.6,4.5-4.6,6.9c-1.9,2.4-4.1,4.6-6.1,5l0,0l0,0c-0.3,0.1-0.6,0.1-0.9,0.1c-0.4,0-0.7,0-1-0.1l0,0l0,0
		c-0.5-0.1-1.1-0.5-1.5-0.9c-1.4-1.4-1.7-3.5-1.7-5.5c0-0.8,0-1.5,0.1-2.2l-0.1,0l0.1,0c0.2-1.4,0.5-2.6,0.7-3.7l0.1-0.6l-0.3,0.5
		c-1.4,2-3,4-4.8,5.7c-0.4,0.4-0.7,0.7-1.1,1l0.1,0.1l0-0.1c-0.4,0.1-0.6,0.4-0.8,0.5l0,0l0,0c-0.4,0.2-0.7,0.3-1,0.3V66.8v0.1
		c0.3,0,0.7-0.1,1.1-0.3l-0.1-0.1l0,0.1c0.4-0.1,0.6-0.4,0.8-0.5l0,0l0,0c0.4-0.3,0.7-0.6,1.1-1c1.7-1.7,3.4-3.7,4.8-5.7l-0.1-0.1
		l-0.1,0c-0.2,1-0.5,2.2-0.7,3.7l0,0l0,0c-0.1,0.7-0.1,1.5-0.1,2.3c0,2.1,0.3,4.2,1.8,5.7c0.4,0.4,1,0.8,1.6,0.9l0-0.1l0,0.1
		c0.3,0.1,0.7,0.1,1.1,0.1c0.3,0,0.6,0,1-0.1l0-0.1l0,0.1c2.1-0.5,4.3-2.6,6.3-5.1c2-2.5,3.6-5.2,4.6-7l0.1-0.1l-0.5-0.4l-0.1-0.1
		l-0.1,0.1c-0.7,1.3-2.5,4.1-4.5,6.6c-1,1.2-2.1,2.4-3.1,3.2c-1,0.8-2,1.4-2.8,1.4l-0.1,0l0,0h0c-0.5,0-0.9,0-1.4,0v0.1l0.1-0.1
		c-0.3-0.2-0.7-0.4-0.9-0.7l0,0l0,0c-0.8-1-1.1-2.4-1.1-3.7c0-1,0.2-2,0.3-2.9c0.5-2.6,1.1-4.5,1.3-5.7l-0.1,0l0.1,0
		c0.1-0.5,0.2-0.8,0.2-1.1c0-0.3,0-0.5-0.1-0.6c-0.1-0.2-0.3-0.3-0.4-0.3l0,0h0c-0.1,0-0.1,0-0.2,0c-0.3,0-0.5,0.2-0.7,0.4
		c-0.2,0.3-0.4,0.7-0.6,1.2l0.1,0l-0.1-0.1c-0.1,0.2-0.1,0.4-0.2,0.6l0.1,0.1l-0.1-0.1c-1.1,1.5-2.3,3-3.5,4.3l0,0l0,0
		c-0.7,0.8-1.4,1.6-2.2,2.3l0,0l0,0c-0.4,0.4-0.7,0.7-1.2,0.9l0,0l0,0c-0.4,0.3-0.7,0.5-0.8,0.5c-0.1,0-0.2,0-0.2-0.1
		c-0.1-0.1-0.1-0.4-0.1-0.8c0-0.3,0-0.7,0-0.9l-0.1,0l0.1,0c0.2-1.9,1.6-3.9,3-5.1c1-0.8,2.3-1.4,3.3-1.8c0.5-0.2,1-0.3,1.4-0.5
		c0.2-0.1,0.3-0.1,0.4-0.1c0.1,0,0.2-0.1,0.3-0.1l-0.1-0.1l0.1,0.1c0.1-0.1,0.2-0.2,0.2-0.3c0-0.1-0.1-0.3-0.2-0.5l-0.1,0.1l0.1-0.1
		c-0.2-0.5-0.9-0.8-1.6-0.9l0,0h0c-1.5,0-3.3,0.9-5.3,2.8l0,0l0,0c-1.7,1.8-2.9,5-2.9,7.2c0,0.7,0.1,1.2,0.3,1.7
		c0.2,0.4,0.6,0.7,1.1,0.7V66.8z"/>
	<path class="st0" d="M162.7,71.9c0-1.2,0-2.8,0.2-5c0.4-4.7,1.4-11.9,3-22.9c0.3-2.7,0.6-5.3,0.8-7.6c0.7-5.8,1.2-10.2,1.4-13.3
		c0.8-6.3,1.2-8,2.5-7.9c1,0.3,0.8,2-0.4,8.1c-0.5,3.3-1.4,7.4-2.3,13.1c-0.3,2.1-0.7,4.5-1.1,7c-1.3,11.4-1.6,18.9-1.8,23.7
		c0,2.5,0,4.3-0.1,5.6c0.2,2.7,0.2,6.2,0.3,6.9c0.1,3.8,1.2,5.4,2.8,5.4c5.7,0,13.9-18.4,15.7-22.8l0.7,0.1
		c-2.3,5.6-6.6,15.5-10.5,20c-1.3,1.7-3.6,4.5-6,4.5c-0.5,0-1.1-0.2-1.6-0.5C162.7,84.5,162.4,75.8,162.7,71.9z"/>
	<path class="st0" d="M162.7,71.9h0.1c0-1.2,0-2.8,0.2-5c0.4-4.7,1.4-11.9,3-22.9l0,0l0,0c0.3-2.7,0.6-5.3,0.8-7.6l-0.1,0l0.1,0
		c0.7-5.8,1.2-10.2,1.4-13.3l-0.1,0l0.1,0c0.4-3.1,0.7-5,1-6.2c0.2-0.6,0.4-1,0.6-1.2c0.2-0.2,0.4-0.3,0.7-0.3l0.1,0l0-0.1l0,0.1
		c0.2,0.1,0.3,0.2,0.4,0.4c0.1,0.2,0.1,0.5,0.1,1c0,1.2-0.4,3.2-1.1,6.7l0,0l0,0c-0.5,3.2-1.4,7.4-2.3,13.1l0,0
		c-0.3,2.1-0.7,4.5-1.1,7l0,0l0,0c-1.3,11.4-1.6,18.9-1.8,23.7l0,0v0c0,2.5,0,4.3-0.1,5.6l0,0l0,0c0.2,2.7,0.2,6.2,0.3,6.9l0.1,0
		l-0.1,0c0.1,1.9,0.4,3.3,0.9,4.2c0.5,0.9,1.2,1.4,2.1,1.3c1.5,0,3.1-1.2,4.7-3c4.8-5.4,9.8-16.6,11.1-19.9l-0.1,0l0,0.1l0.7,0.1
		l0-0.1l-0.1,0c-2.3,5.6-6.6,15.4-10.4,20l0,0l0,0c-1.3,1.7-3.6,4.4-5.9,4.4c-0.5,0-1.1-0.2-1.6-0.5l0,0l0,0
		c-1.4-0.7-2.4-2.6-2.9-4.9c-0.6-2.3-0.7-4.9-0.7-7c0-0.9,0-1.8,0.1-2.5l0,0v0H162.7l-0.1,0c-0.1,0.7-0.1,1.5-0.1,2.5
		c0,2.2,0.2,4.8,0.8,7.1c0.6,2.3,1.5,4.2,3.1,5l0.1-0.1l-0.1,0.1c0.5,0.3,1.1,0.5,1.7,0.5c2.5,0,4.8-2.8,6.1-4.5l-0.1-0.1l0.1,0.1
		c3.9-4.6,8.1-14.5,10.5-20.1l0.1-0.1l-0.9-0.1l-0.1,0l0,0.1c-0.9,2.2-3.4,7.9-6.3,13c-1.5,2.6-3.1,5-4.7,6.8
		c-1.6,1.8-3.2,2.9-4.5,2.9c-0.8,0-1.4-0.4-1.9-1.2c-0.5-0.8-0.8-2.2-0.8-4l0,0l0,0c-0.1-0.7-0.1-4.2-0.3-6.9l-0.1,0l0.1,0
		c0.1-1.3,0.1-3.1,0.1-5.6H165l0.1,0c0.2-4.8,0.5-12.3,1.8-23.7l-0.1,0l0.1,0c0.4-2.5,0.8-4.9,1.1-7l-0.1,0l0.1,0
		c0.9-5.7,1.8-9.9,2.3-13.1l-0.1,0l0.1,0c0.7-3.5,1.1-5.5,1.1-6.7c0-0.5-0.1-0.8-0.2-1.1c-0.1-0.3-0.3-0.4-0.6-0.5l0,0l0,0l-0.1,0
		c-0.3,0-0.6,0.1-0.9,0.4c-0.7,0.9-1.1,3-1.7,7.6l0,0l0,0c-0.2,3.1-0.7,7.5-1.4,13.3l0,0l0,0c-0.2,2.3-0.5,4.9-0.8,7.6l0.1,0l-0.1,0
		c-1.6,11-2.6,18.2-3,22.9c-0.2,2.1-0.2,3.8-0.2,5H162.7l-0.1,0L162.7,71.9z"/>
	<path class="st0" d="M180.8,67.7c1.2-2.8,2.4-5,4-6.9c0.9-0.9,1.5-1.9,2.8-2.3c0.2-0.1,0.4-0.1,0.6-0.1c1.2,0,2.2,1.2,2.2,2.4
		c-0.2,3-3.6,4-6.1,4c-1.4,1.8-3,5.4-3.5,7.7c-0.1,2.2,0.4,3.2,1.3,3.2c0.6,0,1.5-0.4,2.5-0.9c5.7-3.2,13.3-10,17.1-15.6l0.5,0.4
		c-3,4.5-10.3,11.3-14.4,14.4c-1.4,0.9-3.9,2.7-5.8,2.7c-0.5,0-0.9-0.1-1.3-0.3c-0.5-0.3-0.9-0.9-1-1.4
		C179,72.6,179.9,69.9,180.8,67.7z M186.2,62.4c0.8-0.2,2-0.8,2-1.6c0,0,0-0.2-0.1-0.2c-0.4,0-1.4,1.3-1.7,1.6
		C186.3,62.3,186.3,62.3,186.2,62.4z"/>
	<path class="st0" d="M180.8,67.7l0.1,0c1.2-2.8,2.4-5,3.9-6.9l-0.1-0.1l0.1,0.1c0.9-0.9,1.5-1.9,2.8-2.3l0,0l0,0
		c0.2-0.1,0.4-0.1,0.6-0.1c0.6,0,1.1,0.3,1.5,0.7c0.4,0.4,0.6,1,0.6,1.6h0.1l-0.1,0c-0.1,1.5-0.9,2.4-2.1,3
		c-1.2,0.6-2.6,0.8-3.9,0.8h-0.1l0,0c-1.4,1.9-3.1,5.4-3.5,7.8l0,0l0,0c0,0.2,0,0.4,0,0.5c0,0.9,0.1,1.6,0.4,2.1
		c0.2,0.5,0.6,0.7,1.1,0.7c0.7,0,1.6-0.4,2.6-0.9l0,0l0,0c5.7-3.2,13.3-10,17.1-15.6l-0.1-0.1l-0.1,0.1l0.5,0.4l0.1-0.1l-0.1-0.1
		c-3,4.5-10.3,11.3-14.4,14.4l0.1,0.1l-0.1-0.1c-1.4,0.9-3.9,2.7-5.7,2.7c-0.5,0-0.9-0.1-1.3-0.3l-0.1,0.1l0.1-0.1
		c-0.5-0.3-0.9-0.9-1-1.3l0,0l0,0c-0.2-0.6-0.3-1.3-0.3-1.9c0-1.8,0.6-3.7,1.3-5.3L180.8,67.7l-0.1,0c-0.7,1.6-1.3,3.5-1.3,5.4
		c0,0.7,0.1,1.4,0.3,2l0.1,0l-0.1,0c0.1,0.6,0.5,1.2,1.1,1.5l0,0l0,0c0.4,0.2,0.9,0.3,1.4,0.3c2,0,4.4-1.9,5.9-2.8l0,0l0,0
		c4.2-3.2,11.4-10,14.5-14.5l0.1-0.1l-0.6-0.5l-0.1-0.1l-0.1,0.1c-3.7,5.6-11.4,12.4-17,15.5l0.1,0.1l-0.1-0.1
		c-1,0.5-1.9,0.9-2.5,0.9c-0.4,0-0.7-0.2-0.9-0.5c-0.2-0.4-0.3-1-0.3-1.9c0-0.2,0-0.3,0-0.5l-0.1,0l0.1,0c0.4-2.3,2-5.9,3.4-7.7
		l-0.1-0.1v0.1c1.3,0,2.8-0.2,4-0.9c1.2-0.6,2.1-1.7,2.2-3.2l0,0v0c0-1.3-1.1-2.6-2.4-2.6c-0.2,0-0.4,0-0.7,0.1l0.1,0.1l0-0.1
		c-1.4,0.4-2,1.5-2.9,2.4l0,0l0,0c-1.5,1.9-2.8,4.1-4,6.9L180.8,67.7z M186.2,62.4l0,0.1c0.4-0.1,0.9-0.3,1.4-0.6
		c0.4-0.3,0.8-0.7,0.8-1.1l0-0.1l-0.1-0.1l-0.2-0.1c-0.2,0-0.3,0.1-0.5,0.2c-0.5,0.4-1.1,1.2-1.3,1.4
		C186.2,62.2,186.2,62.2,186.2,62.4l-0.4,0.2l0.4-0.1L186.2,62.4L186.2,62.4c0.2,0,0.2,0,0.3-0.1c0.2-0.2,0.5-0.6,0.8-0.9
		c0.2-0.2,0.3-0.4,0.5-0.5c0.1-0.1,0.3-0.2,0.3-0.2v0l0,0l0,0v0l0,0l0,0.1l0,0c0,0.3-0.3,0.7-0.7,0.9c-0.4,0.3-0.9,0.5-1.3,0.6
		L186.2,62.4L186.2,62.4L186.2,62.4z"/>
	<path class="st0" d="M202.3,56.6c1.6,0-0.6,6.3-0.8,6.9l-1.1,5.7c0,0.4,0,0.5,0.2,0.5c0.4,0,1.9-2.5,3.2-4.9
		c1.5-3.4,3-6.9,4.8-10.2c1.3-2.5,4.2-8.4,7.2-9.4c0.3-0.1,0.6-0.1,0.8-0.1c2.1,0,3.5,2.3,4,4.4c0,0.1,0,0.2,0,0.3
		c1.8,6.4,2.9,22.9,8,22.9c1.9,0,4.3-2.1,7.3-7.7l0.5,0.2c-3.2,6.2-5.8,8.5-7.9,8.5c-5.9,0-8.2-18.3-10.4-24.4
		c-0.5-1.1-1.2-1.5-1.9-1.5c-2.2,0-5.1,4.6-6.6,7.5c-1,1.8-2.2,4.2-3.7,6.7c-1.1,2.7-2.3,5.9-4,8.2c-0.5,0.7-1.2,1.2-1.9,1.1
		C197.4,71.4,199.7,56.6,202.3,56.6z"/>
	<path class="st0" d="M202.3,56.6v0.1c0.2,0,0.3,0.1,0.3,0.2c0.1,0.2,0.1,0.4,0.1,0.7c0,1.8-1.2,5.3-1.4,5.8l0,0l-1.1,5.7v0
		c0,0.2,0,0.3,0,0.4l0.1,0.1l0.2,0c0.1,0,0.2-0.1,0.3-0.1c0.3-0.3,0.8-1,1.3-1.8c0.5-0.9,1.1-1.9,1.7-3l0,0l0,0
		c1.5-3.4,3-6.9,4.8-10.2c0.7-1.3,1.7-3.4,3-5.3c1.2-1.9,2.7-3.6,4.2-4l0,0l0,0c0.3-0.1,0.6-0.1,0.8-0.1c1,0,1.8,0.6,2.5,1.4
		c0.6,0.8,1.1,1.9,1.3,2.9l0.1,0h-0.1c0,0.1,0,0.2,0,0.3v0l0,0c0.9,3.2,1.6,8.9,2.8,13.8c0.6,2.5,1.2,4.7,2.1,6.4
		c0.9,1.7,1.9,2.7,3.3,2.7c2,0,4.4-2.2,7.4-7.8l-0.1-0.1l0,0.1l0.5,0.2l0-0.1l-0.1-0.1c-3.1,6.2-5.8,8.5-7.8,8.5
		c-1.4,0-2.6-1.1-3.7-2.9c-3.2-5.4-4.9-16.8-6.5-21.4l0,0l0,0c-0.5-1.1-1.3-1.6-2-1.6c-1.2,0-2.5,1.2-3.7,2.7
		c-1.2,1.5-2.3,3.4-3,4.9l0.1,0.1l-0.1-0.1c-1,1.8-2.2,4.2-3.7,6.7l0,0l0,0c-1.1,2.7-2.3,5.9-4,8.2c-0.5,0.6-1.1,1.1-1.6,1.1l-0.2,0
		l0,0h0c-0.2,0-0.3-0.1-0.4-0.2c-0.4-0.4-0.6-1.6-0.6-3.1c0-2.2,0.4-5,1-7.3c0.3-1.2,0.7-2.2,1.1-2.9c0.4-0.7,0.8-1.1,1.2-1.1V56.6
		v-0.1c-0.5,0-1,0.5-1.4,1.2c-1.2,2.2-2.2,7-2.2,10.3c0,1,0.1,1.8,0.3,2.5c0.1,0.3,0.2,0.6,0.4,0.8c0.2,0.2,0.4,0.3,0.6,0.3v-0.1
		l0,0.1l0.2,0c0.7,0,1.4-0.5,1.9-1.2c1.6-2.4,2.9-5.5,4-8.3l-0.1,0l0.1,0.1c1.4-2.5,2.6-4.9,3.7-6.7l0,0c0.8-1.5,1.9-3.3,3-4.8
		c1.2-1.5,2.4-2.6,3.5-2.6c0.7,0,1.3,0.4,1.8,1.5l0.1-0.1l-0.1,0c1.1,3,2.2,9.1,3.8,14.5c0.8,2.7,1.7,5.2,2.8,7c1.1,1.8,2.4,3,3.9,3
		c2.2,0,4.9-2.4,8-8.6l0.1-0.1l-0.6-0.3l-0.1,0l-0.1,0.1c-3,5.6-5.4,7.7-7.2,7.7c-1.2,0-2.2-1-3-2.6c-2.5-4.9-3.5-15.4-4.9-20.2
		l-0.1,0h0.1c0-0.1,0-0.2,0-0.3v0l0,0c-0.3-1-0.7-2.1-1.4-3c-0.7-0.9-1.6-1.5-2.7-1.5c-0.2,0-0.5,0-0.9,0.1l0,0.1l0-0.1
		c-1.6,0.5-3.1,2.2-4.3,4.1c-1.3,1.9-2.3,4-3,5.3c-1.7,3.3-3.3,6.8-4.8,10.2l0.1,0.1l-0.1-0.1c-0.6,1.2-1.3,2.4-1.9,3.3
		c-0.3,0.5-0.6,0.8-0.8,1.1c-0.1,0.1-0.2,0.2-0.3,0.3l-0.1,0.1l0,0l0,0l0,0v0l0,0l0,0v0l-0.1,0l0,0l0,0l0,0l0,0l0,0c0,0,0-0.1,0-0.4
		h-0.1l0.1,0l1.1-5.7l-0.1,0l0.1,0c0.1-0.5,1.4-4,1.4-5.9c0-0.3,0-0.6-0.1-0.8c-0.1-0.2-0.3-0.4-0.6-0.4V56.6z"/>
	<path class="st0" d="M236.6,66.8c-2.4,0-1.2-6.6,1.5-9.4c1.9-1.8,3.8-2.7,5.2-2.7c0.7,0.1,1.3,0.4,1.5,0.8c0.2,0.3,0.2,0.5,0,0.6
		c-0.2,0.2-3.4,0.8-5.4,2.5c-1.4,1.2-2.8,3.3-3,5.2c0.1,0.7-0.1,1.9,0.5,1.9c0.2,0,0.5-0.2,0.9-0.5c0.5-0.2,0.8-0.5,1.2-0.9
		c0.8-0.7,1.5-1.5,2.2-2.3c1.2-1.2,2.4-2.7,3.6-4.3c0.1-0.2,0.1-0.4,0.2-0.6c0.4-1,0.7-1.5,1.1-1.5c0.1,0,0.1,0,0.2,0
		c0.5,0.1,0.6,0.7,0.3,1.9c-0.2,1.2-0.8,3-1.3,5.7c-0.4,2-0.7,4.9,0.8,6.7c0.2,0.3,0.6,0.5,0.9,0.7c0.5,0,0.9,0,1.4,0
		c3.4,0.2,9.1-8.6,10.6-11.3l0.4,0.3c-1.9,3.5-6.7,11.1-10.8,12c-0.3,0.1-0.6,0.1-0.9,0.1c-0.4,0-0.7,0-1-0.1
		c-0.5-0.1-1.1-0.5-1.5-0.9c-1.9-1.9-1.8-5.3-1.6-7.8c0.2-1.4,0.5-2.6,0.7-3.7c-1.4,2-3,4-4.8,5.7c-0.4,0.4-0.7,0.7-1.1,1
		c-0.3,0.1-0.5,0.4-0.8,0.5C237.2,66.7,236.9,66.8,236.6,66.8z"/>
	<path class="st0" d="M236.6,66.8v-0.1c-0.4,0-0.7-0.2-0.9-0.6c-0.2-0.4-0.3-0.9-0.3-1.5c0-2.1,1.1-5.4,2.8-7l-0.1-0.1l0.1,0.1
		c1.9-1.8,3.7-2.7,5.1-2.7v-0.1l0,0.1c0.7,0.1,1.3,0.4,1.4,0.7l0,0l0,0c0.1,0.1,0.1,0.3,0.1,0.3l-0.1,0.1l0,0l0,0l0,0l0,0l0,0l0,0
		l0,0c0,0-0.1,0-0.2,0.1c-0.8,0.3-3.4,0.9-5.2,2.5c-1.4,1.2-2.9,3.3-3.1,5.3l0,0l0,0c0,0.3,0,0.8,0.1,1.2c0,0.2,0.1,0.4,0.1,0.5
		c0.1,0.2,0.2,0.3,0.4,0.3c0.3,0,0.6-0.2,1-0.5l-0.1-0.1l0,0.1c0.5-0.2,0.9-0.5,1.3-0.9l-0.1-0.1l0.1,0.1c0.8-0.7,1.5-1.5,2.2-2.3
		l-0.1-0.1l0.1,0.1c1.2-1.2,2.4-2.8,3.6-4.3l0,0l0,0c0.1-0.2,0.1-0.4,0.2-0.6l0,0l0,0c0.2-0.5,0.4-0.9,0.5-1.1
		c0.2-0.2,0.3-0.3,0.5-0.3c0.1,0,0.1,0,0.2,0v-0.1l0,0.1c0.1,0,0.2,0.1,0.3,0.2c0.1,0.1,0.1,0.3,0.1,0.5c0,0.3-0.1,0.6-0.2,1.1l0,0
		l0,0c-0.2,1.2-0.8,3-1.3,5.7c-0.2,0.9-0.3,1.9-0.3,2.9c0,1.4,0.3,2.8,1.2,3.9l0.1-0.1L246,70c0.2,0.3,0.7,0.5,0.9,0.7l0,0h0
		c0.5,0,0.9,0,1.4,0v-0.1l0,0.1l0.1,0c0.9,0,1.9-0.6,2.9-1.4c3.1-2.6,6.6-8,7.6-9.9l-0.1-0.1l-0.1,0.1l0.4,0.3l0.1-0.1l-0.1-0.1
		c-1,1.7-2.6,4.5-4.6,6.9c-1.9,2.4-4.1,4.6-6.1,5l0,0l0,0c-0.3,0.1-0.6,0.1-0.9,0.1c-0.4,0-0.7,0-1-0.1l0,0l0,0
		c-0.5-0.1-1.1-0.5-1.5-0.9c-1.4-1.4-1.7-3.5-1.7-5.5c0-0.8,0-1.5,0.1-2.2l-0.1,0l0.1,0c0.2-1.4,0.5-2.6,0.7-3.7l0.1-0.6l-0.3,0.5
		c-1.4,2-3,4-4.8,5.7c-0.4,0.4-0.7,0.7-1.1,1l0.1,0.1l0-0.1c-0.4,0.1-0.6,0.4-0.8,0.5l0,0l0,0c-0.4,0.2-0.7,0.3-1,0.3V66.8v0.1
		c0.3,0,0.7-0.1,1.1-0.3l-0.1-0.1l0,0.1c0.4-0.1,0.6-0.4,0.8-0.5l0,0l0,0c0.4-0.3,0.7-0.6,1.1-1c1.7-1.7,3.4-3.7,4.8-5.7l-0.1-0.1
		l-0.1,0c-0.2,1-0.5,2.2-0.7,3.7l0,0l0,0c-0.1,0.7-0.1,1.5-0.1,2.3c0,2.1,0.3,4.2,1.8,5.7c0.4,0.4,1,0.8,1.6,0.9l0-0.1l0,0.1
		c0.3,0.1,0.7,0.1,1.1,0.1c0.3,0,0.6,0,1-0.1l0-0.1l0,0.1c2.1-0.5,4.3-2.6,6.3-5.1c2-2.5,3.6-5.2,4.6-7l0.1-0.1l-0.5-0.4l-0.1-0.1
		l-0.1,0.1c-0.7,1.3-2.5,4.1-4.5,6.6c-1,1.2-2.1,2.4-3.1,3.2c-1,0.8-2,1.4-2.8,1.4l-0.1,0l0,0h0c-0.5,0-0.9,0-1.4,0v0.1l0.1-0.1
		c-0.3-0.2-0.7-0.4-0.9-0.7l0,0l0,0c-0.8-1-1.1-2.4-1.1-3.7c0-1,0.2-2,0.3-2.9c0.5-2.6,1.1-4.5,1.3-5.7l-0.1,0l0.1,0
		c0.1-0.5,0.2-0.8,0.2-1.1c0-0.3,0-0.5-0.1-0.6c-0.1-0.2-0.3-0.3-0.4-0.3l0,0h0c-0.1,0-0.1,0-0.2,0c-0.3,0-0.5,0.2-0.7,0.4
		c-0.2,0.3-0.4,0.7-0.6,1.2l0.1,0l-0.1-0.1c-0.1,0.2-0.1,0.4-0.2,0.6l0.1,0.1l-0.1-0.1c-1.1,1.5-2.3,3-3.5,4.3l0,0l0,0
		c-0.7,0.8-1.4,1.6-2.2,2.3l0,0l0,0c-0.4,0.4-0.7,0.7-1.2,0.9l0,0l0,0c-0.4,0.3-0.7,0.5-0.8,0.5c-0.1,0-0.2,0-0.2-0.1
		c-0.1-0.1-0.1-0.4-0.1-0.8c0-0.3,0-0.7,0-0.9l-0.1,0l0.1,0c0.2-1.9,1.6-3.9,3-5.1c1-0.8,2.3-1.4,3.3-1.8c0.5-0.2,1-0.3,1.4-0.5
		c0.2-0.1,0.3-0.1,0.4-0.1c0.1,0,0.2-0.1,0.3-0.1l-0.1-0.1l0.1,0.1c0.1-0.1,0.2-0.2,0.2-0.3c0-0.1-0.1-0.3-0.2-0.5l-0.1,0.1l0.1-0.1
		c-0.2-0.5-0.9-0.8-1.6-0.9l0,0h0c-1.5,0-3.3,0.9-5.3,2.8l0,0l0,0c-1.7,1.8-2.9,5-2.9,7.2c0,0.7,0.1,1.2,0.3,1.7
		c0.2,0.4,0.6,0.7,1.1,0.7V66.8z"/>
	<path class="st0" d="M285.8,67c-0.1-0.3,0-0.6,0.1-0.9c0.1-2.7,0-5,0.1-6.9c0-2.8,0.2-5.6,0.6-8.4c0.4-3,1-7.7,1.6-14.5
		c0.3-7.1,0.3-11.8,0.4-14.9c0-4,0.1-5.3,1.3-5.3c0.1,0,0.2,0,0.3,0c1.1,0,1.1,1.2,0.5,5.4c-0.3,2.8-0.9,7.1-1.5,13.2
		c-0.4,7.8-0.4,12.9-0.5,16.3c0,2,0,3.4-0.2,4.2c0,1-0.1,2.4-0.2,4.3c-0.2,1.5-0.4,3.2-0.6,5.1c0.9-1,1.7-2,2.6-3.3
		c0.2-0.2,0.3-0.5,0.5-0.7c1-1.8,2-3.5,2.8-5c1.6-2.8,2.7-5,3.7-6.7c1.3-2.5,1.9-3.7,2.7-3.7c0.2,0,0.5,0.1,0.7,0.2
		c0.9,0.6,0.5,1.6-1.6,4.7c-0.9,1.5-2.5,3.6-4.4,6.4c-1,1.1-1.9,2.6-3.1,4.3c-0.2,0.3-0.4,0.6-0.6,0.9c-0.7,0.9-1.3,1.8-1.9,2.7
		c-0.5,0.7-1.2,1.3-1.7,2c-0.1,0.4-0.1,0.9-0.2,1.4c0.2,0.4,0.4,0.9,0.7,1.2c0.7,0.9,1.3,1.5,1.8,2.2c2.3,1.8,4.9,3.7,7.7,4.7
		c1.1,0.5,2.2,0.9,3.8,1.1c7.2,0,11.4-4.9,13.7-11.3l0.6,0.4c-1,2.5-2.2,4.9-3.7,6.9c-2.8,3.3-6.3,5.7-10.8,5.7
		c-5,0-9.6-2.4-12.7-6.2c-0.5-0.5-0.9-1.1-1.4-1.8c-0.1,1.6-0.2,3.4-0.2,5.3c0,1-0.1,6.8,0.7,7.4c0.5,0,0.9,0.6,0.1,0.7
		c-1.7,0.2-1.6-6.8-1.7-8c0-2.5-0.1-4.8-0.1-6.9c0-0.4,0-0.8,0-1.2C285.8,67.6,285.7,67.3,285.8,67z"/>
	<path class="st0" d="M285.8,67l0.1,0l0-0.2c0-0.2,0.1-0.4,0.1-0.6l0,0l0,0c0.1-1.4,0.1-2.6,0.1-3.8c0-1.1,0-2.2,0.1-3.1l0,0v0
		c0-2.8,0.2-5.6,0.6-8.4c0.4-3.1,1-7.7,1.6-14.5l0,0l0,0c0.3-7.1,0.3-11.8,0.4-14.9l0,0v0c0-2,0-3.3,0.2-4.1
		c0.1-0.4,0.2-0.7,0.4-0.8c0.2-0.2,0.3-0.2,0.6-0.2c0.1,0,0.2,0,0.3,0c0.3,0,0.5,0.1,0.6,0.3c0.1,0.2,0.2,0.6,0.2,1.1
		c0,0.8-0.1,2.1-0.4,3.8l0,0l0,0c-0.3,2.8-0.9,7.1-1.5,13.2l0,0l0,0c-0.4,7.8-0.4,12.9-0.5,16.3v0c0,2,0,3.4-0.2,4.1l0,0v0
		c0,1-0.1,2.4-0.2,4.3l0.1,0l-0.1,0c-0.2,1.5-0.4,3.2-0.6,5.1l0,0.4l0.3-0.3c0.9-1,1.7-2,2.7-3.3l-0.1-0.1l0.1,0.1
		c0.2-0.2,0.3-0.5,0.5-0.7l0,0l0,0c1-1.8,2-3.5,2.8-5l-0.1-0.1l0.1,0.1c1.6-2.8,2.7-5,3.7-6.7c0.7-1.3,1.1-2.2,1.6-2.8
		c0.4-0.6,0.7-0.8,1.1-0.8c0.2,0,0.5,0.1,0.7,0.2l0.1-0.1l-0.1,0.1c0.3,0.2,0.4,0.4,0.4,0.7c0,0.6-0.6,1.8-2.1,3.8l0,0l0,0
		c-0.9,1.5-2.5,3.5-4.4,6.4l0.1,0.1l-0.1-0.1c-1,1.1-1.9,2.7-3.1,4.3l0,0c-0.2,0.3-0.4,0.6-0.6,0.9l0.1,0.1l-0.1-0.1
		c-0.7,0.9-1.3,1.8-1.9,2.8l0.1,0.1l-0.1-0.1c-0.5,0.7-1.2,1.3-1.7,2l0,0l0,0c-0.1,0.4-0.1,0.9-0.2,1.4l0,0l0,0
		c0.2,0.4,0.4,0.9,0.7,1.3l0.1-0.1l-0.1,0.1c0.7,0.9,1.3,1.5,1.8,2.2l0,0l0,0c2.3,1.8,4.9,3.7,7.8,4.7l0-0.1l-0.1,0.1
		c1.1,0.5,2.3,0.9,3.8,1.1l0,0h0c7.3,0,11.5-4.9,13.8-11.4l-0.1,0l-0.1,0.1l0.6,0.4l0.1-0.1l-0.1,0c-1,2.5-2.2,4.9-3.6,6.9L312,73
		l-0.1-0.1c-2.8,3.2-6.3,5.6-10.7,5.6c-4.9,0-9.5-2.4-12.6-6.2l0,0l0,0c-0.5-0.5-0.9-1.1-1.4-1.8l-0.2-0.3l0,0.4
		c-0.1,1.6-0.2,3.4-0.2,5.3c0,0.2,0,0.6,0,1.1c0,1,0,2.5,0.1,3.7c0,0.6,0.1,1.2,0.2,1.7c0.1,0.5,0.2,0.8,0.4,1l0,0h0
		c0.1,0,0.2,0,0.3,0.1l0.1,0.2l-0.1,0.1c0,0-0.1,0.1-0.3,0.1l-0.1,0c-0.2,0-0.3-0.1-0.4-0.3c-0.5-0.6-0.8-2.3-0.9-3.9
		c-0.1-1.6-0.1-3.2-0.2-3.8l-0.1,0h0.1c0-2.5-0.1-4.8-0.1-6.9c0-0.4,0-0.8,0-1.2v0l0,0c-0.1-0.2-0.1-0.4-0.1-0.6l0-0.2l0,0l0,0
		L285.8,67l-0.1,0c0,0.1,0,0.2,0,0.3c0,0.2,0.1,0.5,0.2,0.7l0.1,0h-0.1c0,0.4,0,0.8,0,1.2c0,2.1,0.1,4.4,0.1,6.9v0l0,0
		c0,0.6,0.1,2.6,0.2,4.5c0.1,0.9,0.2,1.8,0.5,2.5c0.1,0.3,0.3,0.6,0.4,0.8c0.2,0.2,0.4,0.3,0.6,0.3l0.1,0c0.2,0,0.3-0.1,0.4-0.1
		c0.1-0.1,0.2-0.2,0.2-0.3c0-0.2-0.1-0.3-0.2-0.4c-0.1-0.1-0.3-0.2-0.5-0.2v0.1l0.1-0.1c-0.1-0.1-0.2-0.4-0.3-0.8
		C287,81,287,78.5,287,77c0-0.5,0-0.9,0-1.1c0-1.9,0.1-3.7,0.2-5.3l-0.1,0l-0.1,0.1c0.5,0.7,0.9,1.3,1.4,1.8l0.1-0.1l-0.1,0.1
		c3.2,3.8,7.8,6.2,12.8,6.2c4.5,0,8-2.5,10.9-5.7l0,0l0,0c1.4-2,2.7-4.4,3.7-6.9l0-0.1l-0.7-0.5l-0.1-0.1l-0.1,0.1
		c-2.3,6.4-6.5,11.2-13.6,11.2v0.1l0-0.1c-1.5-0.2-2.6-0.6-3.7-1.1l0,0l0,0c-2.8-1-5.4-2.8-7.7-4.7l-0.1,0.1l0.1-0.1
		c-0.5-0.7-1.1-1.3-1.8-2.2l0,0l0,0c-0.3-0.3-0.5-0.8-0.7-1.2l-0.1,0.1l0.1,0c0.1-0.5,0.1-1,0.2-1.4l-0.1,0l0.1,0.1
		c0.5-0.7,1.2-1.3,1.7-2l0,0l0,0c0.6-0.9,1.2-1.8,1.9-2.7l0,0l0,0c0.2-0.3,0.4-0.6,0.6-0.9l-0.1-0.1l0.1,0.1c1.1-1.6,2-3.2,3-4.3
		l0,0l0,0c1.8-2.8,3.4-4.9,4.4-6.4l-0.1-0.1l0.1,0.1c1.4-2.1,2.1-3.2,2.1-4c0-0.4-0.2-0.7-0.5-0.9l0,0l0,0c-0.2-0.1-0.5-0.2-0.8-0.2
		c-0.5,0-0.9,0.3-1.3,0.9c-0.4,0.6-0.9,1.5-1.6,2.8c-0.9,1.7-2,3.9-3.7,6.7l0,0l0,0c-0.8,1.5-1.8,3.1-2.8,5l0.1,0.1l-0.1-0.1
		c-0.2,0.2-0.3,0.5-0.5,0.7l0,0l0,0c-0.9,1.2-1.7,2.2-2.6,3.2l0.1,0.1l0.1,0c0.2-1.9,0.4-3.6,0.6-5.1l0,0l0,0
		c0.1-1.8,0.2-3.3,0.2-4.3h-0.1l0.1,0c0.2-0.8,0.2-2.2,0.2-4.2h-0.1l0.1,0c0.1-3.4,0.1-8.4,0.5-16.3l-0.1,0l0.1,0
		c0.6-6.1,1.2-10.4,1.5-13.2l-0.1,0l0.1,0c0.3-1.8,0.4-3,0.4-3.9c0-0.6-0.1-1-0.2-1.3c-0.2-0.3-0.5-0.4-0.8-0.4c-0.1,0-0.2,0-0.3,0
		c-0.3,0-0.6,0.1-0.8,0.3c-0.6,0.6-0.6,2.1-0.6,5.1h0.1l-0.1,0c-0.1,3.2-0.1,7.8-0.4,14.9l0.1,0l-0.1,0c-0.6,6.8-1.2,11.5-1.6,14.5
		c-0.4,2.9-0.6,5.6-0.6,8.5h0.1l-0.1,0c-0.1,1-0.1,2-0.1,3.2c0,1.1,0,2.4-0.1,3.8l0.1,0l-0.1,0c-0.1,0.2-0.1,0.4-0.2,0.7
		c0,0.1,0,0.2,0,0.3L285.8,67l-0.1,0L285.8,67z"/>
	<path class="st0" d="M314.1,61.3c0.3-1.3,2.3-4.9,4.2-5.3c0-0.1,0.1-0.3,0.1-0.5c-0.2-1.3,0.8-2.6,1.8-2.6s2.1,1.2,2.2,4.6
		c0.1,1.9-0.1,3.7-0.4,5.4c0,0.1,0,0.1-0.1,0.2c0.7,0.4,1.4,0.6,2.1,0.6c2.5,0,5.4-2,7.1-3.5l0.3,0.4c-1.8,1.6-4.9,3.7-7.5,3.7
		c-0.7,0-1.5-0.1-2.1-0.5c-0.5,2.2-1.8,7.2-4.6,7.2c-1.1,0-2.2-1-3.3-3.3c-0.4-1.2-0.5-2.5-0.5-3.6
		C313.6,63.1,313.8,62.2,314.1,61.3z M317.5,68.8c1,0,2.2-1.6,3-6c-1.2-1.1-1.8-3.2-2-4.9c-1,1-1.8,2.7-2.3,4.1
		C314.8,65.2,315.9,68.8,317.5,68.8z M319.4,56.6c0,0.1-0.1,0.2-0.2,0.3c-0.1,1.6,0.5,3.8,1.5,5.1c0.3-1.4,0.5-3,0.5-4.6
		c0.2-2.5-0.4-3.4-1-3.4c-0.5,0-1,0.7-0.8,1.5c-0.1,0.2-0.1,0.4-0.1,0.6C319.5,56.3,319.5,56.4,319.4,56.6z"/>
	<path class="st0" d="M314.1,61.3l0.1,0c0.1-0.6,0.7-1.8,1.5-2.9c0.8-1.1,1.7-2.1,2.6-2.2l0.1,0V56l0-0.2c0-0.1,0.1-0.2,0.1-0.3v0
		l0,0c0-0.1,0-0.2,0-0.3c0-0.6,0.2-1.1,0.6-1.5c0.3-0.4,0.8-0.7,1.2-0.7c0.5,0,0.9,0.3,1.4,1c0.4,0.7,0.7,1.8,0.8,3.5v0l0,0
		c0,0.3,0,0.7,0,1c0,1.5-0.2,2.9-0.4,4.4l0,0v0l0,0l0,0l0,0l0,0l0,0l0,0l-0.1,0.1l-0.1,0.1l0.1,0.1c0.7,0.4,1.5,0.6,2.2,0.6
		c2.6,0,5.5-2.1,7.2-3.5l-0.1-0.1l-0.1,0.1l0.3,0.4l0.1-0.1l-0.1-0.1c-1.8,1.6-4.9,3.6-7.4,3.6c-0.7,0-1.5-0.1-2.1-0.5l-0.2-0.1
		l0,0.2c-0.3,1.1-0.7,2.9-1.4,4.4c-0.7,1.5-1.7,2.7-3,2.7c-1,0-2.1-1-3.1-3.2l-0.1,0.1l0.1,0c-0.4-1.2-0.5-2.5-0.5-3.5h-0.1l0.1,0
		c0.1-1,0.3-1.9,0.6-2.8l0,0l0,0L314.1,61.3l-0.1,0c-0.3,0.9-0.5,1.8-0.6,2.9l0,0v0c0,1,0.1,2.4,0.5,3.6l0,0l0,0
		c1,2.2,2.2,3.3,3.4,3.3c1.5,0,2.5-1.3,3.2-2.8c0.7-1.5,1.2-3.4,1.5-4.5l-0.1,0l-0.1,0.1c0.6,0.4,1.5,0.5,2.2,0.5
		c2.7,0,5.8-2.1,7.6-3.7l0.1-0.1l-0.4-0.5l-0.1-0.1l-0.1,0.1c-1.7,1.4-4.6,3.4-7,3.4c-0.7,0-1.4-0.2-2.1-0.6l-0.1,0.1l0.1,0.1
		l0.1-0.1l0-0.2H322l0.1,0c0.3-1.4,0.4-2.9,0.4-4.4c0-0.3,0-0.7,0-1l-0.1,0l0.1,0c-0.1-1.7-0.4-2.9-0.8-3.6c-0.4-0.8-1-1.1-1.6-1.1
		c-1,0-2,1.2-2,2.4c0,0.1,0,0.2,0,0.4l0.1,0h-0.1l0,0.3l-0.1,0.3h0.1l0-0.1c-1,0.2-1.9,1.2-2.7,2.4c-0.8,1.1-1.4,2.3-1.5,3
		L314.1,61.3l-0.1,0L314.1,61.3z M317.5,68.8v0.1c0.6,0,1.2-0.5,1.7-1.4c0.5-1,1.1-2.5,1.5-4.7l0-0.1l-0.1,0c-1.2-1.1-1.8-3.1-2-4.8
		l0-0.3l-0.2,0.2c-1,1-1.9,2.8-2.4,4.1l0.1,0l-0.1,0c-0.4,1-0.6,2.1-0.6,3.1c0,1.1,0.2,2,0.6,2.7c0.4,0.7,0.9,1.2,1.5,1.2V68.8v-0.1
		c-0.5,0-0.9-0.4-1.2-1c-0.3-0.7-0.5-1.6-0.5-2.6c0-0.9,0.2-2,0.6-3l0,0c0.5-1.3,1.3-3,2.3-4l-0.1-0.1l-0.1,0c0.2,1.7,0.8,3.8,2.1,5
		l0.1-0.1l-0.1,0c-0.4,2.2-0.9,3.7-1.4,4.6c-0.5,0.9-1.1,1.3-1.5,1.3V68.8z M319.4,56.6h-0.1c0,0-0.1,0.1-0.2,0.2l0,0l0,0
		c0,0.1,0,0.2,0,0.4c0,1.6,0.6,3.5,1.6,4.8l0.2,0.2l0.1-0.3c0.3-1.4,0.5-3.1,0.5-4.6h-0.1l0.1,0c0-0.3,0-0.7,0-0.9
		c0-0.9-0.1-1.5-0.3-1.9c-0.2-0.4-0.5-0.6-0.8-0.6c-0.5,0-1,0.6-1,1.3c0,0.1,0,0.3,0.1,0.4l0.1,0l-0.1-0.1c-0.1,0.2-0.1,0.5-0.1,0.7
		v0.1l0.1,0c0.1,0.1,0.1,0.1,0.1,0.1l-0.1,0.2l0,0v0H319.4l0.1,0.1c0-0.1,0.1-0.2,0.1-0.3c0-0.1-0.1-0.3-0.2-0.3l-0.1,0.1h0.1
		c0-0.2,0-0.4,0.1-0.6l0,0l0,0c0-0.1,0-0.2,0-0.3c0-0.3,0.1-0.6,0.2-0.7c0.1-0.2,0.3-0.3,0.5-0.3c0.2,0,0.4,0.1,0.6,0.5
		c0.2,0.4,0.3,0.9,0.3,1.8c0,0.3,0,0.6,0,0.9l0,0v0c0,1.5-0.2,3.1-0.5,4.5l0.1,0l0.1-0.1c-0.9-1.2-1.5-3.1-1.5-4.6
		c0-0.1,0-0.2,0-0.4l-0.1,0l0.1,0.1c0.1-0.1,0.2-0.2,0.2-0.4H319.4l0.1,0.1L319.4,56.6z"/>
	<path class="st0" d="M332.3,70c-1.5,0-2.6-1.6-2.6-6c0-1.7,0.2-3.2,0.4-4.3c0.3-1.1,0.6-2.1,0.8-2.9c0.5-1.3,1-1.9,1.3-1.8
		c0.6,0.1,0.7,0.9,0.5,2.3c-0.2,0.8-0.4,1.6-0.6,2.7c-0.1,1.2-0.5,2.4-0.6,4.1c-0.5,3,0,4.4,1.1,4.4s2.7-1.3,4.3-3.7
		c2.3-3.7,4.2-7.5,5.9-11.5c0.3-1.8,0.6-3.2,0.9-4.1c0.3-1.3,0.8-1.7,1.3-1.6c0.5,0.2,0.6,0.6,0.4,2c-0.1,1.3-0.7,3.7-1.3,7.1
		c-0.3,1.8-0.7,3.9-0.9,6.3c-0.2,2.4-0.4,5.3-0.1,8.5c0.1,0.7,0.2,1.5,0.5,2.3c0.7,2.4,2.3,4.2,5,4.2c4.9-0.7,6.8-6,7.8-10.2
		c0.2-1.4,0.3-2.6,0.5-4c0.2-2.4,0.1-4.5,0.1-6.2c0-0.3-0.1-0.7-0.1-1c0,0-0.1-0.1-0.1-0.2c-1.4-3-2.9-6.6-3.4-10
		c-0.4-1.8-1-6.1,0-7.6c0.3-0.2,0.5-0.4,0.8-0.4c1.7,0,3.3,6,4.1,12c0.3,1.3,0.5,3.7,0.5,7.2c0,0.2,0,0.5,0,0.7
		c1.6,2.8,3.6,4.6,5.8,4.6c1.8,0,3.9-1.2,6.2-3.8l0.5,0.4c-2.6,2.7-5,4-7,4s-3.9-1.3-5.6-3.8c0,2.6-0.4,5.8-1.2,8.3
		c-0.8,3.4-2,6.5-4.7,8.8c-0.3,0.2-0.6,0.5-1,0.7c-1.1,0.8-2.3,1.2-3.6,1.2c-2.8,0-5.4-2.3-6.2-7.2c-0.5-3.4-0.4-6.2-0.4-8.7
		c0.3-2.5,0.4-4.7,0.6-6.5c0-0.2,0.1-0.4,0.1-0.7c-1.1,3.3-2.8,6.6-4.6,9.6C336.2,68,333.9,70,332.3,70z M354.4,41.8
		c-0.1,0-0.1,1.3,0.4,4.7c0.2,1.5,0.5,3.2,1,4.8c0.3,0.8,0.6,1.8,0.9,2.7c-0.1-1.1-0.2-2-0.2-2.7C356,48,354.7,41.8,354.4,41.8z"/>
	<path class="st0" d="M332.3,70v-0.1c-0.7,0-1.3-0.4-1.8-1.3c-0.5-0.9-0.7-2.4-0.7-4.6c0-1.7,0.2-3.1,0.4-4.2l-0.1,0l0.1,0
		c0.3-1.1,0.6-2.1,0.8-3l-0.1,0l0.1,0c0.2-0.6,0.5-1.1,0.7-1.4c0.2-0.3,0.4-0.4,0.5-0.4l0,0l0,0l0,0c0.2,0,0.3,0.1,0.4,0.3
		c0.1,0.2,0.1,0.4,0.1,0.8c0,0.3,0,0.7-0.1,1.1l0.1,0l-0.1,0c-0.2,0.8-0.4,1.6-0.6,2.8l0,0l0,0c-0.1,1.2-0.5,2.4-0.6,4.1l0.1,0
		l-0.1,0c-0.1,0.8-0.2,1.5-0.2,2.1c0,0.8,0.1,1.4,0.4,1.8c0.2,0.4,0.6,0.6,1.1,0.6c1.2,0,2.8-1.4,4.4-3.7c2.3-3.7,4.2-7.5,5.9-11.5
		l0,0l0,0c0.3-1.8,0.6-3.1,0.9-4l0,0l0,0c0.1-0.6,0.3-1,0.5-1.2c0.2-0.2,0.4-0.3,0.6-0.3l0.1,0l0-0.1l0,0.1c0.2,0.1,0.3,0.1,0.3,0.3
		c0.1,0.1,0.1,0.3,0.1,0.6c0,0.3,0,0.6-0.1,1.1l0,0l0,0c-0.1,1.3-0.7,3.6-1.3,7.1c-0.3,1.8-0.7,3.9-0.9,6.3
		c-0.1,1.5-0.3,3.3-0.3,5.1c0,1.1,0,2.2,0.2,3.4l0,0l0,0c0.1,0.7,0.2,1.5,0.5,2.4l0.1,0l-0.1,0c0.7,2.5,2.4,4.3,5.1,4.3h0l0,0
		c2.5-0.4,4.2-1.9,5.4-3.8c1.2-2,2-4.3,2.5-6.4l0,0l0,0c0.2-1.4,0.3-2.6,0.5-4l0,0l0,0c0.1-1.2,0.1-2.3,0.1-3.4c0-1,0-2,0-2.8
		c0-0.3-0.1-0.7-0.1-1v-0.1l0,0l0,0l-0.1-0.1v0l0,0c-1.4-3-2.9-6.6-3.3-9.9l0,0l0,0c-0.2-1.1-0.6-3-0.6-4.7c0-1.2,0.1-2.2,0.5-2.8
		l-0.1-0.1l0.1,0.1c0.3-0.2,0.5-0.4,0.7-0.4c0.4,0,0.8,0.3,1.1,1c1.2,1.9,2.2,6.4,2.8,10.9l0,0l0,0c0.3,1.3,0.5,3.6,0.5,7.2
		c0,0.2,0,0.5,0,0.7v0l0,0c1.6,2.9,3.6,4.6,5.9,4.6c1.9,0,3.9-1.3,6.3-3.8l-0.1-0.1l-0.1,0.1l0.5,0.4l0.1-0.1l-0.1-0.1
		c-2.6,2.7-4.9,3.9-6.9,3.9c-2,0-3.8-1.3-5.5-3.7l-0.2-0.3v0.4c0,2.6-0.4,5.8-1.2,8.3l0,0l0,0c-0.8,3.3-2,6.5-4.6,8.8l0.1,0.1
		l-0.1-0.1c-0.3,0.2-0.6,0.5-1,0.7l0,0l0,0c-1.1,0.8-2.3,1.2-3.5,1.2c-2.8,0-5.3-2.3-6.1-7.1c-0.4-2.4-0.4-4.5-0.4-6.5
		c0-0.8,0-1.5,0-2.3h-0.1l0.1,0c0.3-2.5,0.4-4.7,0.6-6.5l0,0v0c0-0.2,0.1-0.4,0.1-0.7v-0.7l-0.2,0.7c-1.1,3.2-2.8,6.6-4.6,9.5
		l0.1,0.1l-0.1-0.1c-0.8,1.3-1.8,2.4-2.7,3.2c-1,0.8-1.9,1.3-2.7,1.3V70v0.1c0.9,0,1.8-0.5,2.8-1.4c1-0.8,1.9-2,2.8-3.3l0,0l0,0
		c1.7-3,3.5-6.3,4.6-9.6l-0.1,0h-0.1c0,0.3-0.1,0.5-0.1,0.7h0.1l-0.1,0c-0.2,1.8-0.3,4-0.6,6.5l0,0v0c0,0.7,0,1.5,0,2.3
		c0,2,0.1,4.1,0.4,6.5c0.8,4.9,3.4,7.3,6.3,7.3c1.2,0,2.5-0.4,3.6-1.2l-0.1-0.1l0.1,0.1c0.4-0.2,0.7-0.5,1-0.7l0,0l0,0
		c2.7-2.4,3.9-5.5,4.7-8.9l-0.1,0l0.1,0c0.8-2.6,1.2-5.7,1.2-8.4h-0.1l-0.1,0.1c1.7,2.5,3.6,3.8,5.7,3.8c2.1,0,4.4-1.2,7.1-4
		l0.1-0.1l-0.6-0.5l-0.1-0.1l-0.1,0.1c-2.3,2.5-4.3,3.7-6.1,3.7c-2.2,0-4.1-1.7-5.7-4.5l-0.1,0.1h0.1c0-0.2,0-0.5,0-0.7
		c0-3.6-0.2-5.9-0.5-7.2l-0.1,0l0.1,0c-0.4-3-1-6-1.7-8.3c-0.4-1.1-0.7-2.1-1.1-2.7c-0.4-0.7-0.8-1.1-1.4-1.1
		c-0.4,0-0.6,0.2-0.9,0.4l0,0l0,0c-0.4,0.7-0.6,1.7-0.6,2.9c0,1.7,0.3,3.7,0.6,4.8l0.1,0l-0.1,0c0.4,3.4,1.9,6.9,3.4,10l0.1-0.1
		h-0.1c0,0.2,0.1,0.3,0.1,0.3l0.1-0.1h-0.1c0,0.3,0.1,0.7,0.1,1c0,0.9,0,1.8,0,2.8c0,1,0,2.1-0.1,3.4l0.1,0l-0.1,0
		c-0.2,1.3-0.3,2.5-0.5,4l0.1,0l-0.1,0c-0.5,2.1-1.2,4.4-2.4,6.3c-1.2,1.9-2.9,3.4-5.3,3.7l0,0.1V78c-2.6,0-4.2-1.7-4.9-4.1l0,0l0,0
		c-0.3-0.8-0.4-1.6-0.5-2.3l-0.1,0l0.1,0c-0.1-1.2-0.2-2.3-0.2-3.4c0-1.9,0.1-3.6,0.3-5.1c0.2-2.4,0.6-4.5,0.9-6.3
		c0.6-3.5,1.2-5.8,1.3-7.1l-0.1,0l0.1,0c0.1-0.5,0.1-0.8,0.1-1.1c0-0.3,0-0.5-0.1-0.7c-0.1-0.2-0.3-0.3-0.4-0.4l0,0l0,0l-0.2,0
		c-0.3,0-0.5,0.1-0.8,0.4c-0.2,0.3-0.4,0.7-0.5,1.3l0.1,0l-0.1,0c-0.3,0.9-0.6,2.3-0.9,4.1l0.1,0l-0.1,0c-1.7,4-3.6,7.8-5.9,11.5
		c-1.5,2.3-3.1,3.6-4.2,3.6c-0.4,0-0.6-0.2-0.9-0.5c-0.2-0.3-0.3-0.9-0.3-1.7c0-0.6,0.1-1.2,0.2-2l0,0l0,0c0.1-1.6,0.5-2.8,0.6-4.1
		l-0.1,0l0.1,0c0.2-1.1,0.4-1.9,0.6-2.7l0,0l0,0c0.1-0.4,0.1-0.8,0.1-1.1c0-0.4,0-0.7-0.2-0.9c-0.1-0.2-0.3-0.4-0.6-0.4l0,0.1l0-0.1
		l-0.1,0c-0.2,0-0.4,0.2-0.7,0.5c-0.2,0.3-0.5,0.8-0.7,1.4l0,0l0,0c-0.2,0.8-0.5,1.8-0.8,2.9l0,0l0,0c-0.2,1.1-0.4,2.6-0.4,4.3
		c0,2.2,0.3,3.7,0.8,4.7c0.5,1,1.2,1.4,2,1.4V70z M354.4,41.8v-0.1l-0.1,0l-0.1,0.2c0,0.1,0,0.2,0,0.3c0,0.6,0.1,2,0.5,4.3l0.1,0
		l-0.1,0c0.2,1.5,0.5,3.2,1,4.8l0,0l0,0c0.3,0.8,0.6,1.8,0.9,2.7l0.3,1l-0.1-1.1c-0.1-1.1-0.2-2-0.2-2.7v0l0,0c-0.3-1.6-0.7-4-1.1-6
		c-0.2-1-0.4-1.9-0.6-2.5c-0.1-0.3-0.2-0.6-0.2-0.8c0-0.1-0.1-0.2-0.1-0.2l-0.1-0.1l-0.1-0.1V41.8v0.1V41.8l-0.1,0.1l0.1,0V41.8
		l-0.1,0.1c0,0,0.1,0.1,0.1,0.3c0.5,1.4,1.5,6.3,1.9,9l0.1,0h-0.1c0,0.7,0.1,1.6,0.2,2.8l0.1,0l0.1,0c-0.3-0.9-0.6-1.9-0.9-2.7
		l-0.1,0l0.1,0c-0.5-1.6-0.8-3.2-1-4.8l0,0c-0.4-2.3-0.5-3.7-0.5-4.3c0-0.1,0-0.2,0-0.3L354.4,41.8L354.4,41.8L354.4,41.8
		L354.4,41.8L354.4,41.8L354.4,41.8L354.4,41.8v0.1V41.8L354.4,41.8v0.1V41.8z"/>
	<path class="st0" d="M368.2,66.8c-2.4,0-1.2-6.6,1.5-9.4c1.9-1.8,3.8-2.7,5.2-2.7c0.7,0.1,1.3,0.4,1.5,0.8c0.2,0.3,0.2,0.5,0,0.6
		c-0.2,0.2-3.4,0.8-5.4,2.5c-1.4,1.2-2.8,3.3-3,5.2c0.1,0.7-0.1,1.9,0.5,1.9c0.2,0,0.5-0.2,0.9-0.5c0.5-0.2,0.8-0.5,1.2-0.9
		c0.8-0.7,1.5-1.5,2.2-2.3c1.2-1.2,2.4-2.7,3.6-4.3c0.1-0.2,0.1-0.4,0.2-0.6c0.4-1,0.7-1.5,1.1-1.5c0.1,0,0.1,0,0.2,0
		c0.5,0.1,0.6,0.7,0.3,1.9c-0.2,1.2-0.8,3-1.3,5.7c-0.4,2-0.7,4.9,0.8,6.7c0.2,0.3,0.6,0.5,0.9,0.7c0.5,0,0.9,0,1.4,0
		c3.4,0.2,9.1-8.6,10.6-11.3l0.4,0.3c-1.9,3.5-6.7,11.1-10.8,12c-0.3,0.1-0.6,0.1-0.9,0.1c-0.4,0-0.7,0-1-0.1
		c-0.5-0.1-1.1-0.5-1.5-0.9c-1.9-1.9-1.8-5.3-1.6-7.8c0.2-1.4,0.5-2.6,0.7-3.7c-1.4,2-3,4-4.8,5.7c-0.4,0.4-0.7,0.7-1.1,1
		c-0.3,0.1-0.5,0.4-0.8,0.5C368.8,66.7,368.5,66.8,368.2,66.8z"/>
	<path class="st0" d="M368.2,66.8v-0.1c-0.4,0-0.7-0.2-0.9-0.6c-0.2-0.4-0.3-0.9-0.3-1.5c0-2.1,1.1-5.4,2.8-7l-0.1-0.1l0.1,0.1
		c1.9-1.8,3.7-2.7,5.1-2.7v-0.1l0,0.1c0.7,0.1,1.3,0.4,1.4,0.7l0,0l0,0c0.1,0.1,0.1,0.3,0.1,0.3l-0.1,0.1l0,0l0,0l0,0l0,0l0,0l0,0
		l0,0c0,0-0.1,0-0.2,0.1c-0.8,0.3-3.4,0.9-5.2,2.5c-1.4,1.2-2.9,3.3-3.1,5.3l0,0l0,0c0,0.3,0,0.8,0.1,1.2c0,0.2,0.1,0.4,0.1,0.5
		c0.1,0.2,0.2,0.3,0.4,0.3c0.3,0,0.6-0.2,1-0.5l-0.1-0.1l0,0.1c0.5-0.2,0.9-0.5,1.3-0.9l-0.1-0.1l0.1,0.1c0.8-0.7,1.5-1.5,2.2-2.3
		l-0.1-0.1l0.1,0.1c1.2-1.2,2.4-2.8,3.6-4.3l0,0l0,0c0.1-0.2,0.1-0.4,0.2-0.6l0,0l0,0c0.2-0.5,0.4-0.9,0.5-1.1
		c0.2-0.2,0.3-0.3,0.5-0.3c0.1,0,0.1,0,0.2,0v-0.1l0,0.1c0.1,0,0.2,0.1,0.3,0.2c0.1,0.1,0.1,0.3,0.1,0.5c0,0.3-0.1,0.6-0.2,1.1l0,0
		l0,0c-0.2,1.2-0.8,3-1.3,5.7c-0.2,0.9-0.3,1.9-0.3,2.9c0,1.4,0.3,2.8,1.2,3.9l0.1-0.1l-0.1,0.1c0.2,0.3,0.7,0.5,0.9,0.7l0,0h0
		c0.5,0,0.9,0,1.4,0v-0.1l0,0.1l0.1,0c0.9,0,1.9-0.6,2.9-1.4c3.1-2.6,6.6-8,7.6-9.9l-0.1-0.1l-0.1,0.1l0.4,0.3l0.1-0.1l-0.1-0.1
		c-1,1.7-2.6,4.5-4.6,6.9c-1.9,2.4-4.1,4.6-6.1,5l0,0l0,0c-0.3,0.1-0.6,0.1-0.9,0.1c-0.4,0-0.7,0-1-0.1l0,0l0,0
		c-0.5-0.1-1.1-0.5-1.5-0.9c-1.4-1.4-1.7-3.5-1.7-5.5c0-0.8,0-1.5,0.1-2.2l-0.1,0l0.1,0c0.2-1.4,0.5-2.6,0.7-3.7l0.1-0.6l-0.3,0.5
		c-1.4,2-3,4-4.8,5.7c-0.4,0.4-0.7,0.7-1.1,1l0.1,0.1l0-0.1c-0.4,0.1-0.6,0.4-0.8,0.5l0,0l0,0c-0.4,0.2-0.7,0.3-1,0.3V66.8v0.1
		c0.3,0,0.7-0.1,1.1-0.3l-0.1-0.1l0,0.1c0.4-0.1,0.6-0.4,0.8-0.5l0,0l0,0c0.4-0.3,0.7-0.6,1.1-1c1.7-1.7,3.4-3.7,4.8-5.7l-0.1-0.1
		l-0.1,0c-0.2,1-0.5,2.2-0.7,3.7l0,0l0,0c-0.1,0.7-0.1,1.5-0.1,2.3c0,2.1,0.3,4.2,1.8,5.7c0.4,0.4,1,0.8,1.6,0.9l0-0.1l0,0.1
		c0.3,0.1,0.7,0.1,1.1,0.1c0.3,0,0.6,0,1-0.1l0-0.1l0,0.1c2.1-0.5,4.3-2.6,6.3-5.1c2-2.5,3.6-5.2,4.6-7l0.1-0.1l-0.5-0.4l-0.1-0.1
		l-0.1,0.1c-0.7,1.3-2.5,4.1-4.5,6.6c-1,1.2-2.1,2.4-3.1,3.2c-1,0.8-2,1.4-2.8,1.4l-0.1,0l0,0h0c-0.5,0-0.9,0-1.4,0v0.1l0.1-0.1
		c-0.3-0.2-0.7-0.4-0.9-0.7l0,0l0,0c-0.8-1-1.1-2.4-1.1-3.7c0-1,0.2-2,0.3-2.9c0.5-2.6,1.1-4.5,1.3-5.7l-0.1,0l0.1,0
		c0.1-0.5,0.2-0.8,0.2-1.2c0-0.3,0-0.5-0.1-0.6c-0.1-0.2-0.3-0.3-0.4-0.3l0,0h0c-0.1,0-0.1,0-0.2,0c-0.3,0-0.5,0.2-0.7,0.4
		c-0.2,0.3-0.4,0.7-0.6,1.2l0.1,0l-0.1-0.1c-0.1,0.2-0.1,0.4-0.2,0.6l0.1,0.1l-0.1-0.1c-1.1,1.5-2.3,3-3.5,4.3l0,0l0,0
		c-0.7,0.8-1.4,1.6-2.2,2.3l0,0l0,0c-0.4,0.4-0.7,0.7-1.2,0.9l0,0l0,0c-0.4,0.3-0.7,0.5-0.8,0.5c-0.1,0-0.2,0-0.2-0.1
		c-0.1-0.1-0.1-0.4-0.1-0.8c0-0.3,0-0.7,0-0.9l-0.1,0l0.1,0c0.2-1.9,1.6-3.9,3-5.1c1-0.8,2.3-1.4,3.3-1.8c0.5-0.2,1-0.3,1.4-0.5
		c0.2-0.1,0.3-0.1,0.4-0.1c0.1,0,0.2-0.1,0.3-0.1l-0.1-0.1l0.1,0.1c0.1-0.1,0.2-0.2,0.2-0.3c0-0.1-0.1-0.3-0.2-0.5l-0.1,0.1l0.1-0.1
		c-0.2-0.5-0.9-0.8-1.6-0.9l0,0h0c-1.5,0-3.3,0.9-5.3,2.8l0,0l0,0c-1.7,1.8-2.9,5-2.9,7.2c0,0.7,0.1,1.2,0.3,1.7
		c0.2,0.4,0.6,0.7,1.1,0.7V66.8z"/>
	<path class="st0" d="M389.3,71.9c0-1.2,0-2.8,0.2-5c0.4-4.7,1.4-11.9,3-22.9c0.3-2.7,0.6-5.3,0.8-7.6c0.7-5.8,1.2-10.2,1.4-13.3
		c0.8-6.3,1.2-8,2.5-7.9c1,0.3,0.8,2-0.4,8.1c-0.5,3.3-1.4,7.4-2.3,13.1c-0.3,2.1-0.7,4.5-1.1,7c-1.3,11.4-1.6,18.9-1.8,23.7
		c0,2.5,0,4.3-0.1,5.6c0.2,2.7,0.2,6.2,0.3,6.9c0.1,3.8,1.2,5.4,2.8,5.4c5.7,0,13.9-18.4,15.7-22.8l0.7,0.1
		c-2.3,5.6-6.6,15.5-10.5,20c-1.3,1.7-3.6,4.5-6,4.5c-0.5,0-1.1-0.2-1.6-0.5C389.3,84.5,389,75.8,389.3,71.9z"/>
	<path class="st0" d="M389.3,71.9h0.1c0-1.2,0-2.8,0.2-5c0.4-4.7,1.4-11.9,3-22.9l0,0l0,0c0.3-2.7,0.6-5.3,0.8-7.6l-0.1,0l0.1,0
		c0.7-5.8,1.2-10.2,1.4-13.3l-0.1,0l0.1,0c0.4-3.1,0.7-5,1-6.2c0.2-0.6,0.4-1,0.6-1.2c0.2-0.2,0.4-0.3,0.7-0.3l0.1,0l0-0.1l0,0.1
		c0.2,0.1,0.3,0.2,0.4,0.4c0.1,0.2,0.1,0.5,0.1,1c0,1.2-0.4,3.2-1.1,6.7l0,0c-0.5,3.2-1.4,7.4-2.3,13.1l0,0c-0.3,2.1-0.7,4.5-1.1,7
		l0,0l0,0c-1.3,11.4-1.6,18.9-1.8,23.7v0c0,2.5,0,4.3-0.1,5.6l0,0l0,0c0.2,2.7,0.2,6.2,0.3,6.9l0.1,0l-0.1,0
		c0.1,1.9,0.4,3.3,0.9,4.2c0.5,0.9,1.2,1.4,2.1,1.3c1.5,0,3.1-1.2,4.7-3c4.8-5.4,9.8-16.6,11.1-19.9l-0.1,0l0,0.1l0.7,0.1l0-0.1
		l-0.1,0c-2.3,5.6-6.6,15.4-10.4,20l0,0l0,0c-1.3,1.7-3.6,4.4-5.9,4.4c-0.5,0-1.1-0.2-1.6-0.5l0,0l0,0c-1.4-0.7-2.4-2.6-2.9-4.9
		c-0.6-2.3-0.7-4.9-0.7-7c0-0.9,0-1.8,0.1-2.5l0,0v0H389.3l-0.1,0c-0.1,0.7-0.1,1.5-0.1,2.5c0,2.2,0.2,4.8,0.8,7.1
		c0.6,2.3,1.5,4.2,3.1,5l0.1-0.1l-0.1,0.1c0.5,0.3,1.1,0.5,1.7,0.5c2.5,0,4.8-2.8,6.1-4.5l-0.1-0.1l0.1,0.1
		c3.9-4.6,8.1-14.5,10.5-20.1l0.1-0.1l-0.9-0.1l-0.1,0l0,0.1c-0.9,2.2-3.4,7.9-6.3,13c-1.5,2.6-3.1,5-4.7,6.8
		c-1.6,1.8-3.2,2.9-4.5,2.9c-0.8,0-1.4-0.4-1.9-1.2c-0.5-0.8-0.8-2.2-0.8-4l0,0l0,0c-0.1-0.7-0.1-4.2-0.3-6.9l-0.1,0l0.1,0
		c0.1-1.3,0.1-3.1,0.1-5.6h-0.1l0.1,0c0.2-4.8,0.5-12.3,1.8-23.7l-0.1,0l0.1,0c0.4-2.5,0.8-4.9,1.1-7l-0.1,0l0.1,0
		c0.9-5.7,1.8-9.9,2.3-13.1l-0.1,0l0.1,0c0.7-3.5,1.1-5.5,1.1-6.7c0-0.5-0.1-0.8-0.2-1.1c-0.1-0.3-0.3-0.4-0.6-0.5l0,0l0,0l-0.1,0
		c-0.3,0-0.6,0.1-0.9,0.4c-0.7,0.9-1.1,3-1.7,7.6l0,0l0,0c-0.2,3.1-0.7,7.5-1.4,13.3l0,0v0c-0.2,2.3-0.5,4.9-0.8,7.6l0.1,0l-0.1,0
		c-1.6,11-2.6,18.2-3.1,22.9c-0.2,2.1-0.2,3.8-0.2,5H389.3l-0.1,0L389.3,71.9z"/>
	<path class="st0" d="M409.5,96.2c1.3-6.6,4.6-13.1,7.7-19c-1.5-4.8-3.6-9.4-6-13.8c-1.1-2-2.1-4.3-2-6.5c0-4,3.3-6.7,7.1-6.7
		c1.4,0,2.4,0.4,3.5,0.9c1,0.5,3.7,2.9,2.7,3.3c-0.7,0.2-2.6-1.6-3.5-2c-0.5-0.3-1.3-0.5-2.3-0.5c-3,0-5.8,1.9-5.8,5.2
		c0,1,0.2,2.4,0.7,3.4c1.3,3.2,3.2,6,4.5,9.1c0.8,1.8,1.5,3.8,2.1,5.9c2.8-5.6,7.1-11.8,10.9-16.9l0.3,0.3c-4,5.6-7.6,11.4-11,17.3
		c1.1,3.5,1.9,7.4,2.4,11.6c0.4,3.6,0.5,7.4,0.1,11.4c-0.2,2-0.5,4.1-1,6.1c-0.6,1.9-1.5,4.5-2.8,6c-0.3,0.4-0.8,0.8-1.3,1.1
		c-0.4,0.2-0.9,0.4-1.4,0.4c-3.7,0-5.4-6-5.6-8.9C408.6,101.3,408.8,98.8,409.5,96.2z M409.6,103.7c0.1,1.2,0.3,2.3,0.6,3.5
		c0.4,1.1,0.9,2.1,1.5,3c0.6,0.8,1.4,1.6,2.3,1.7c0.9,0.1,1.7-0.6,2.3-1.3c1-1.1,2.2-4.2,2.5-5.7c0.5-1.9,0.8-4,0.9-5.9
		c0.3-3.9,0.1-7.6-0.3-11.1c-0.5-3.6-1.2-6.9-2.1-10c-2.9,5.8-5.9,12.1-7.2,18.5C409.7,98.9,409.4,101.3,409.6,103.7z"/>
	<path class="st0" d="M409.5,96.2l0.1,0c1.3-6.6,4.6-13.1,7.7-19l0,0l0-0.1c-1.5-4.8-3.6-9.4-6-13.8c-1.1-1.9-2-4-2-6.1
		c0-0.1,0-0.2,0-0.3l0,0v0c0-3.9,3.2-6.6,7-6.6c1.4,0,2.4,0.4,3.4,0.9c0.4,0.2,1.1,0.8,1.8,1.4c0.3,0.3,0.6,0.6,0.8,0.9
		c0.2,0.3,0.3,0.5,0.3,0.6c0,0.1,0,0.1-0.1,0.1l0,0.1l0-0.1l-0.1,0c-0.3,0-1-0.4-1.6-0.9c-0.6-0.5-1.3-1-1.7-1.2l-0.1,0.1l0.1-0.1
		c-0.5-0.3-1.4-0.5-2.4-0.5c-1.6,0-3,0.5-4.1,1.4c-1.1,0.9-1.8,2.2-1.8,3.9c0,1,0.2,2.5,0.7,3.4l0.1-0.1l-0.1,0
		c1.3,3.2,3.2,6,4.5,9.1l0,0c0.8,1.8,1.5,3.7,2.1,5.9l0.1,0.3l0.1-0.3c2.8-5.6,7.1-11.8,10.9-16.9l-0.1-0.1l-0.1,0.1l0.3,0.3
		l0.1-0.1l-0.1-0.1c-4,5.6-7.6,11.4-11,17.3l0,0l0,0.1c1.1,3.4,1.9,7.4,2.4,11.6c0.2,2,0.4,4.1,0.4,6.2c0,1.7-0.1,3.4-0.3,5.1
		c-0.2,2-0.5,4.1-1,6.1l0.1,0l-0.1,0c-0.6,1.9-1.5,4.5-2.8,6l0,0l0,0c-0.3,0.4-0.8,0.8-1.3,1.1l0.1,0.1l-0.1-0.1
		c-0.4,0.2-0.9,0.4-1.4,0.4c-1.8,0-3.1-1.4-4-3.3c-0.9-1.8-1.4-4.1-1.5-5.5l-0.1,0l0.1,0c0-0.4,0-0.8,0-1.2c0-2.1,0.2-4.2,0.7-6.3
		l0,0l0,0L409.5,96.2l-0.1,0c-0.5,2.1-0.7,4.3-0.7,6.4c0,0.4,0,0.8,0,1.2l0,0c0.1,1.5,0.6,3.7,1.5,5.6c0.9,1.9,2.3,3.4,4.2,3.4
		c0.5,0,1.1-0.2,1.5-0.4l0,0l0,0c0.5-0.3,1-0.7,1.4-1.2l-0.1-0.1l0.1,0.1c1.3-1.6,2.3-4.1,2.9-6l0,0l0,0c0.5-2,0.8-4.1,1-6.1
		c0.2-1.7,0.3-3.5,0.3-5.2c0-2.2-0.1-4.3-0.4-6.3c-0.5-4.2-1.3-8.1-2.4-11.6l-0.1,0l0.1,0.1c3.4-5.9,7-11.7,11-17.3l0.1-0.1
		l-0.4-0.4l-0.1-0.1l-0.1,0.1c-3.8,5.1-8,11.3-10.9,16.9l0.1,0.1l0.1,0c-0.6-2.1-1.3-4.1-2.1-5.9l-0.1,0.1l0.1,0
		c-1.3-3.2-3.2-6-4.5-9.1l0,0l0,0c-0.5-0.9-0.7-2.3-0.7-3.3c0-3.2,2.7-5.1,5.7-5.1c1,0,1.8,0.2,2.3,0.5l0,0l0,0
		c0.4,0.2,1,0.7,1.6,1.2c0.6,0.5,1.3,0.9,1.7,0.9l0.2,0l0,0l0,0c0.2,0,0.3-0.2,0.3-0.4c0-0.2-0.1-0.5-0.4-0.8c-0.6-0.9-2-2-2.6-2.3
		c-1-0.5-2.1-0.9-3.5-0.9c-2,0-3.8,0.7-5.1,1.9c-1.3,1.2-2.2,2.9-2.2,4.9h0.1l-0.1,0c0,0.1,0,0.2,0,0.3c0,2.2,1,4.3,2.1,6.3
		c2.4,4.5,4.5,9,6,13.8l0.1,0l-0.1-0.1c-3.2,5.9-6.4,12.4-7.7,19L409.5,96.2l-0.1,0L409.5,96.2z M409.6,103.7l-0.1,0
		c0.1,1.2,0.3,2.4,0.6,3.5l0,0l0,0c0.4,1.1,0.9,2.2,1.5,3.1l0,0l0,0c0.6,0.8,1.4,1.7,2.4,1.8l0.2,0c0.9,0,1.7-0.7,2.3-1.4l-0.1-0.1
		l0.1,0.1c1-1.2,2.3-4.2,2.6-5.8l-0.1,0l0.1,0c0.5-1.9,0.8-4,0.9-5.9l-0.1,0l0.1,0c0.1-1.3,0.1-2.6,0.1-3.8c0-2.5-0.2-5-0.5-7.3l0,0
		c-0.5-3.6-1.2-6.9-2.1-10l-0.1-0.3l-0.1,0.3c-2.9,5.8-5.9,12.1-7.2,18.5c-0.4,1.9-0.7,3.8-0.7,5.7c0,0.5,0,1,0.1,1.5L409.6,103.7
		l0.1,0c0-0.5-0.1-1-0.1-1.5c0-1.9,0.3-3.8,0.7-5.7c1.3-6.4,4.3-12.7,7.2-18.5l-0.1-0.1l-0.1,0c0.9,3,1.6,6.4,2.1,9.9l0.1,0l-0.1,0
		c0.3,2.3,0.5,4.7,0.5,7.2c0,1.3,0,2.5-0.1,3.8l0,0l0,0c-0.1,1.9-0.4,3.9-0.9,5.9l0,0l0,0c-0.3,1.5-1.5,4.6-2.5,5.6l0,0
		c-0.6,0.7-1.3,1.3-2.1,1.3l-0.2,0c-0.8-0.1-1.7-0.9-2.3-1.7l-0.1,0.1l0.1-0.1c-0.6-0.9-1.1-1.9-1.5-3l-0.1,0l0.1,0
		c-0.3-1.1-0.5-2.2-0.6-3.4L409.6,103.7z"/>
	<path class="st0" d="M428.9,67c-0.1-0.3,0-0.6,0.1-0.9c0.1-2.7,0-5,0.1-6.9c0-2.8,0.2-5.6,0.6-8.4c0.4-3,1-7.7,1.6-14.5
		c0.3-7.1,0.3-11.8,0.4-14.9c0-4,0.1-5.3,1.3-5.3c0.1,0,0.2,0,0.3,0c1.1,0,1.1,1.2,0.5,5.4c-0.3,2.8-0.9,7.1-1.5,13.2
		c-0.4,7.8-0.4,12.9-0.5,16.3c0,2,0,3.4-0.2,4.2c0,1-0.1,2.4-0.2,4.3c-0.2,1.5-0.4,3.2-0.6,5.1c0.9-1,1.7-2,2.6-3.3
		c0.2-0.2,0.3-0.5,0.5-0.7c1-1.8,2-3.5,2.8-5c1.6-2.8,2.7-5,3.7-6.7c1.3-2.5,1.9-3.7,2.7-3.7c0.2,0,0.5,0.1,0.7,0.2
		c0.9,0.6,0.5,1.6-1.6,4.7c-0.9,1.5-2.5,3.6-4.4,6.4c-1,1.1-1.9,2.6-3,4.3c-0.2,0.3-0.4,0.6-0.6,0.9c-0.7,0.9-1.3,1.8-1.9,2.7
		c-0.5,0.7-1.2,1.3-1.7,2c-0.1,0.4-0.1,0.9-0.2,1.4c0.2,0.4,0.4,0.9,0.7,1.2c0.7,0.9,1.3,1.5,1.8,2.2c2.3,1.8,4.9,3.7,7.7,4.7
		c1.1,0.5,2.2,0.9,3.8,1.1c7.2,0,11.4-4.9,13.7-11.3l0.6,0.4c-1,2.5-2.2,4.9-3.7,6.9c-2.8,3.3-6.3,5.7-10.8,5.7
		c-5,0-9.6-2.4-12.7-6.2c-0.5-0.5-0.9-1.1-1.4-1.8c-0.1,1.6-0.2,3.4-0.2,5.3c0,1-0.1,6.8,0.7,7.4c0.5,0,0.9,0.6,0.1,0.7
		c-1.7,0.2-1.6-6.8-1.7-8c0-2.5-0.1-4.8-0.1-6.9c0-0.4,0-0.8,0-1.2C428.9,67.6,428.8,67.3,428.9,67z"/>
	<path class="st0" d="M428.9,67l0.1,0l0-0.2c0-0.2,0.1-0.4,0.1-0.6l0,0l0,0c0.1-1.4,0.1-2.6,0.1-3.8c0-1.1,0-2.2,0.1-3.1l0,0v0
		c0-2.8,0.2-5.6,0.6-8.4c0.4-3.1,1-7.7,1.6-14.5l0,0l0,0c0.3-7.1,0.3-11.8,0.4-14.9v0c0-2,0-3.3,0.2-4.1c0.1-0.4,0.2-0.7,0.4-0.8
		c0.2-0.2,0.3-0.2,0.6-0.2c0.1,0,0.2,0,0.3,0c0.3,0,0.5,0.1,0.6,0.3c0.1,0.2,0.2,0.6,0.2,1.1c0,0.8-0.1,2.1-0.4,3.8l0,0
		c-0.3,2.8-0.9,7.1-1.5,13.2l0,0l0,0c-0.4,7.8-0.4,12.9-0.5,16.3v0c0,2,0,3.4-0.2,4.1l0,0v0c0,1-0.1,2.4-0.2,4.3l0.1,0l-0.1,0
		c-0.2,1.5-0.4,3.2-0.6,5.1l0,0.4l0.3-0.3c0.9-1,1.7-2,2.6-3.3l-0.1-0.1l0.1,0.1c0.2-0.2,0.3-0.5,0.5-0.7l0,0l0,0c1-1.8,2-3.5,2.8-5
		l-0.1-0.1l0.1,0.1c1.6-2.8,2.7-5,3.7-6.7c0.7-1.3,1.1-2.2,1.6-2.8c0.4-0.6,0.7-0.8,1.1-0.8c0.2,0,0.5,0.1,0.7,0.2l0.1-0.1l-0.1,0.1
		c0.3,0.2,0.4,0.4,0.4,0.7c0,0.6-0.6,1.8-2.1,3.8l0,0l0,0c-0.9,1.5-2.5,3.5-4.4,6.4l0.1,0.1l-0.1-0.1c-1,1.1-1.9,2.7-3.1,4.3
		c-0.2,0.3-0.4,0.6-0.6,0.9l0.1,0.1l-0.1-0.1c-0.7,0.9-1.3,1.8-1.9,2.8l0.1,0.1l-0.1-0.1c-0.5,0.7-1.2,1.3-1.7,2l0,0l0,0
		c-0.1,0.4-0.1,0.9-0.2,1.4l0,0l0,0c0.2,0.4,0.4,0.9,0.7,1.3l0.1-0.1L431,69c0.7,0.9,1.3,1.5,1.8,2.2l0,0l0,0
		c2.3,1.8,4.9,3.7,7.8,4.7l0-0.1l-0.1,0.1c1.1,0.5,2.3,0.9,3.8,1.1l0,0h0c7.3,0,11.5-4.9,13.8-11.4l-0.1,0l-0.1,0.1l0.6,0.4l0.1-0.1
		l-0.1,0c-1,2.5-2.2,4.9-3.6,6.9l0.1,0.1l-0.1-0.1c-2.8,3.2-6.3,5.6-10.7,5.6c-4.9,0-9.5-2.4-12.6-6.2l0,0l0,0
		c-0.5-0.5-0.9-1.1-1.4-1.8l-0.2-0.3l0,0.4c-0.1,1.6-0.2,3.4-0.2,5.3c0,0.2,0,0.6,0,1.1c0,1,0,2.5,0.1,3.7c0,0.6,0.1,1.2,0.2,1.7
		c0.1,0.5,0.2,0.8,0.4,1l0,0h0c0.1,0,0.2,0,0.3,0.1l0.1,0.2l-0.1,0.1c0,0-0.1,0.1-0.3,0.1l-0.1,0c-0.2,0-0.3-0.1-0.4-0.3
		c-0.5-0.6-0.8-2.3-0.9-3.9c-0.1-1.6-0.1-3.2-0.2-3.8l-0.1,0h0.1c0-2.5-0.1-4.8-0.1-6.9c0-0.4,0-0.8,0-1.2v0l0,0
		c-0.1-0.2-0.1-0.4-0.1-0.6l0-0.2l0,0l0,0L428.9,67l-0.1,0c0,0.1,0,0.2,0,0.3c0,0.2,0.1,0.5,0.2,0.7l0.1,0h-0.1c0,0.4,0,0.8,0,1.2
		c0,2.1,0.1,4.4,0.1,6.9v0l0,0c0,0.6,0.1,2.6,0.2,4.5c0.1,0.9,0.2,1.8,0.5,2.5c0.1,0.3,0.3,0.6,0.4,0.8c0.2,0.2,0.4,0.3,0.6,0.3
		l0.1,0c0.2,0,0.3-0.1,0.4-0.1c0.1-0.1,0.2-0.2,0.2-0.3c0-0.2-0.1-0.3-0.2-0.4c-0.1-0.1-0.3-0.2-0.5-0.2v0.1l0.1-0.1
		c-0.1-0.1-0.2-0.4-0.3-0.8c-0.3-1.4-0.3-3.9-0.3-5.4c0-0.5,0-0.9,0-1.1c0-1.9,0.1-3.7,0.2-5.3l-0.1,0l-0.1,0.1
		c0.5,0.7,0.9,1.3,1.4,1.8l0.1-0.1l-0.1,0.1c3.2,3.8,7.8,6.2,12.8,6.2c4.5,0,8-2.5,10.9-5.7l0,0l0,0c1.4-2,2.7-4.4,3.7-6.9l0-0.1
		l-0.7-0.5l-0.1-0.1l-0.1,0.1c-2.3,6.4-6.5,11.2-13.6,11.2v0.1l0-0.1c-1.5-0.2-2.6-0.6-3.7-1.1l0,0l0,0c-2.8-1-5.4-2.8-7.7-4.7
		l-0.1,0.1l0.1-0.1c-0.5-0.7-1.1-1.3-1.8-2.2l0,0l0,0c-0.3-0.3-0.5-0.8-0.7-1.2l-0.1,0.1l0.1,0c0.1-0.5,0.1-1,0.2-1.4l-0.1,0
		l0.1,0.1c0.5-0.7,1.2-1.3,1.7-2l0,0l0,0c0.6-0.9,1.2-1.8,1.9-2.7l0,0l0,0c0.2-0.3,0.4-0.6,0.6-0.9c1.1-1.6,2-3.2,3-4.3l0,0l0,0
		c1.8-2.8,3.4-4.9,4.4-6.4l-0.1-0.1l0.1,0.1c1.4-2.1,2.1-3.2,2.1-4c0-0.4-0.2-0.7-0.5-0.9l0,0l0,0c-0.2-0.1-0.5-0.2-0.8-0.2
		c-0.5,0-0.9,0.3-1.3,0.9c-0.4,0.6-0.9,1.5-1.6,2.8c-0.9,1.7-2,3.9-3.7,6.7l0,0l0,0c-0.8,1.5-1.8,3.1-2.8,5l0.1,0.1l-0.1-0.1
		c-0.2,0.2-0.3,0.5-0.5,0.7l0,0l0,0c-0.9,1.2-1.7,2.2-2.6,3.2l0.1,0.1l0.1,0c0.2-1.9,0.4-3.6,0.6-5.1l0,0l0,0
		c0.1-1.8,0.2-3.3,0.2-4.3h-0.1l0.1,0c0.2-0.8,0.2-2.2,0.2-4.2h-0.1l0.1,0c0.1-3.4,0.1-8.4,0.5-16.3l-0.1,0l0.1,0
		c0.6-6.1,1.2-10.4,1.5-13.2l-0.1,0l0.1,0c0.3-1.8,0.4-3,0.4-3.9c0-0.6-0.1-1-0.2-1.3c-0.2-0.3-0.5-0.4-0.8-0.4c-0.1,0-0.2,0-0.3,0
		c-0.3,0-0.6,0.1-0.8,0.3c-0.6,0.6-0.6,2.1-0.6,5.1h0.1l-0.1,0c-0.1,3.2-0.1,7.8-0.4,14.9l0.1,0l-0.1,0c-0.6,6.8-1.2,11.5-1.6,14.5
		c-0.4,2.9-0.6,5.6-0.6,8.5h0.1l-0.1,0c-0.1,1-0.1,2-0.1,3.2c0,1.1,0,2.4-0.1,3.8l0.1,0l-0.1,0c-0.1,0.2-0.2,0.4-0.2,0.7
		c0,0.1,0,0.2,0,0.3L428.9,67l-0.1,0L428.9,67z"/>
	<path class="st0" d="M459.1,66.8c-2.4,0-1.2-6.6,1.5-9.4c1.9-1.8,3.8-2.7,5.2-2.7c0.7,0.1,1.3,0.4,1.5,0.8c0.2,0.3,0.2,0.5,0,0.6
		c-0.2,0.2-3.4,0.8-5.4,2.5c-1.4,1.2-2.8,3.3-3,5.2c0.1,0.7-0.1,1.9,0.5,1.9c0.2,0,0.5-0.2,0.9-0.5c0.5-0.2,0.8-0.5,1.2-0.9
		c0.8-0.7,1.5-1.5,2.2-2.3c1.2-1.2,2.4-2.7,3.6-4.3c0.1-0.2,0.1-0.4,0.2-0.6c0.4-1,0.7-1.5,1.1-1.5c0.1,0,0.1,0,0.2,0
		c0.5,0.1,0.6,0.7,0.3,1.9c-0.2,1.2-0.8,3-1.3,5.7c-0.4,2-0.7,4.9,0.8,6.7c0.2,0.3,0.6,0.5,0.9,0.7c0.5,0,0.9,0,1.4,0
		c3.4,0.2,9.1-8.6,10.6-11.3l0.4,0.3c-1.9,3.5-6.7,11.1-10.8,12c-0.3,0.1-0.6,0.1-0.9,0.1c-0.4,0-0.7,0-1-0.1
		c-0.5-0.1-1.1-0.5-1.5-0.9c-1.9-1.9-1.8-5.3-1.6-7.8c0.2-1.4,0.5-2.6,0.7-3.7c-1.4,2-3,4-4.8,5.7c-0.4,0.4-0.7,0.7-1.1,1
		c-0.3,0.1-0.5,0.4-0.8,0.5C459.7,66.7,459.4,66.8,459.1,66.8z"/>
	<path class="st0" d="M459.1,66.8v-0.1c-0.4,0-0.7-0.2-0.9-0.6c-0.2-0.4-0.3-0.9-0.3-1.5c0-2.1,1.1-5.4,2.8-7l-0.1-0.1l0.1,0.1
		c1.9-1.8,3.7-2.7,5.1-2.7v-0.1l0,0.1c0.7,0.1,1.3,0.4,1.4,0.7l0,0l0,0c0.1,0.1,0.1,0.3,0.1,0.3l-0.1,0.1l0,0l0,0l0,0l0,0l0,0l0,0
		l0,0c0,0-0.1,0-0.2,0.1c-0.8,0.3-3.4,0.9-5.2,2.5c-1.4,1.2-2.9,3.3-3.1,5.3l0,0l0,0c0,0.3,0,0.8,0.1,1.2c0,0.2,0.1,0.4,0.1,0.5
		c0.1,0.2,0.2,0.3,0.4,0.3c0.3,0,0.6-0.2,1-0.5l-0.1-0.1l0,0.1c0.5-0.2,0.9-0.5,1.3-0.9l-0.1-0.1l0.1,0.1c0.8-0.7,1.5-1.5,2.2-2.3
		l-0.1-0.1l0.1,0.1c1.2-1.2,2.4-2.8,3.6-4.3l0,0l0,0c0.1-0.2,0.1-0.4,0.2-0.6l0,0l0,0c0.2-0.5,0.4-0.9,0.5-1.1
		c0.2-0.2,0.3-0.3,0.5-0.3c0.1,0,0.1,0,0.2,0v-0.1l0,0.1c0.1,0,0.2,0.1,0.3,0.2c0.1,0.1,0.1,0.3,0.1,0.5c0,0.3-0.1,0.6-0.2,1.1l0,0
		l0,0c-0.2,1.2-0.8,3-1.3,5.7c-0.2,0.9-0.3,1.9-0.3,2.9c0,1.4,0.3,2.8,1.2,3.9l0.1-0.1l-0.1,0.1c0.2,0.3,0.7,0.5,0.9,0.7l0,0h0
		c0.5,0,0.9,0,1.4,0v-0.1l0,0.1l0.1,0c0.9,0,1.9-0.6,2.9-1.4c3.1-2.6,6.6-8,7.6-9.9l-0.1-0.1l-0.1,0.1l0.4,0.3l0.1-0.1l-0.1-0.1
		c-1,1.7-2.6,4.5-4.6,6.9c-1.9,2.4-4.1,4.6-6.1,5l0,0l0,0c-0.3,0.1-0.6,0.1-0.9,0.1c-0.4,0-0.7,0-1-0.1l0,0l0,0
		c-0.5-0.1-1.1-0.5-1.5-0.9c-1.4-1.4-1.7-3.5-1.7-5.5c0-0.8,0-1.5,0.1-2.2l-0.1,0l0.1,0c0.2-1.4,0.5-2.6,0.7-3.7l0.1-0.6l-0.3,0.5
		c-1.4,2-3,4-4.8,5.7c-0.4,0.4-0.7,0.7-1.1,1l0.1,0.1l0-0.1c-0.4,0.1-0.6,0.4-0.8,0.5l0,0l0,0c-0.4,0.2-0.7,0.3-1,0.3V66.8v0.1
		c0.3,0,0.7-0.1,1.1-0.3l-0.1-0.1l0,0.1c0.4-0.1,0.6-0.4,0.8-0.5l0,0l0,0c0.4-0.3,0.7-0.6,1.1-1c1.7-1.7,3.4-3.7,4.8-5.7l-0.1-0.1
		l-0.1,0c-0.2,1-0.5,2.2-0.7,3.7l0,0l0,0c-0.1,0.7-0.1,1.5-0.1,2.3c0,2.1,0.3,4.2,1.8,5.7c0.4,0.4,1,0.8,1.6,0.9l0-0.1l0,0.1
		c0.3,0.1,0.7,0.1,1.1,0.1c0.3,0,0.6,0,1-0.1l0-0.1l0,0.1c2.1-0.5,4.3-2.6,6.3-5.1c2-2.5,3.6-5.2,4.6-7l0.1-0.1l-0.5-0.4l-0.1-0.1
		l-0.1,0.1c-0.7,1.3-2.5,4.1-4.5,6.6c-1,1.2-2.1,2.4-3.1,3.2c-1,0.8-2,1.4-2.8,1.4l-0.1,0l0,0h0c-0.5,0-0.9,0-1.4,0v0.1l0.1-0.1
		c-0.3-0.2-0.7-0.4-0.9-0.7l0,0l0,0c-0.8-1-1.1-2.4-1.1-3.7c0-1,0.2-2,0.3-2.9c0.5-2.6,1.1-4.5,1.3-5.7l-0.1,0l0.1,0
		c0.1-0.5,0.2-0.8,0.2-1.1c0-0.3,0-0.5-0.1-0.6c-0.1-0.2-0.3-0.3-0.4-0.3l0,0h0c-0.1,0-0.1,0-0.2,0c-0.3,0-0.5,0.2-0.7,0.4
		c-0.2,0.3-0.4,0.7-0.6,1.2l0.1,0l-0.1-0.1c-0.1,0.2-0.1,0.4-0.2,0.6l0.1,0.1l-0.1-0.1c-1.1,1.5-2.3,3-3.5,4.3l0,0l0,0
		c-0.7,0.8-1.4,1.6-2.2,2.3l0,0l0,0c-0.4,0.4-0.7,0.7-1.2,0.9l0,0l0,0c-0.4,0.3-0.7,0.5-0.8,0.5c-0.1,0-0.2,0-0.2-0.1
		c-0.1-0.1-0.1-0.4-0.1-0.8c0-0.3,0-0.7,0-0.9l-0.1,0l0.1,0c0.2-1.9,1.6-3.9,3-5.1c1-0.8,2.3-1.4,3.3-1.8c0.5-0.2,1-0.3,1.4-0.5
		c0.2-0.1,0.3-0.1,0.4-0.1c0.1,0,0.2-0.1,0.3-0.1l-0.1-0.1l0.1,0.1c0.1-0.1,0.2-0.2,0.2-0.3c0-0.1-0.1-0.3-0.2-0.5l-0.1,0.1l0.1-0.1
		c-0.2-0.5-0.9-0.8-1.6-0.9l0,0h0c-1.5,0-3.3,0.9-5.3,2.8l0,0c-1.8,1.8-2.9,5-2.9,7.2c0,0.7,0.1,1.2,0.3,1.7
		c0.2,0.4,0.6,0.7,1.1,0.7V66.8z"/>
</g>
</svg>
