<svg id="Capa_1" data-name="Capa 1" xmlns="http://www.w3.org/2000/svg" viewBox="0 0 2131.09 456.78"><defs><style>.cls-1{stroke:#000;stroke-miterlimit:10;stroke-width:0.25px;}</style></defs><title>logo.inline</title><path class="cls-1" d="M66.89,334.23c-1.87,0-3.27-1.87-2.8-6.07V324.9c-.47-21,4.67-61.15,9.8-80.29,2.33-8.4,4.2-10.74,7-10.27,2.33.93,2.8,4.67,1.87,12.6s-3.27,21.47-6.54,42a102.84,102.84,0,0,0-2.8,17.27,4.23,4.23,0,0,1-.46,2.33c12.14-33.61,24.27-67.22,39.21-99.42,4.2-7,10.74-23.34,21-23.34s14,21.47,15.4,28c1.4,8.87,2.33,16.8,3.27,24.27,2.33,15.4,4.67,28,7,39.21.47,3.27,3.74,20.54,7.47,29.41a7.22,7.22,0,0,0,1.87,2.8h.47c.94,0,1.87-1.4,1.87-1.4a38.17,38.17,0,0,0,3.74-4.2c5.6-6.53,11.2-14.94,18.21-25.21,3.73-6.07,23.8-43.88,33.61-43.88H227c5.13,1.87,7,12.14,7.47,16.34,1.87,9.8,2.8,20.07,4.2,29.87,6.53,40.61,18.21,55.08,30.81,55.08,18.67,0,39.68-31.74,51.81-56.48.93-1.4,3.26,1.4,2.8,2.33-15.87,35.48-35.48,58.35-52.75,58.35-16.8,0-32.21-21.47-40.61-74.68-2.33-14.94-4.2-21.47-7-21.47s-7,9.34-14,22.87c-3.27,6.07-6.07,12.6-9.34,17.27a246,246,0,0,1-18.2,26.14c-1.4,1.4-3.74,4.2-6.54,6.07,0,.47,0,.47-.47.93l-.93.47a10.75,10.75,0,0,1-4.2,1.4,3.49,3.49,0,0,1-2.33-.47,5.25,5.25,0,0,1-3.74-1.4,21,21,0,0,1-4.2-4.67c-1.4-2.33-2.33-4.2-3.27-6.07,0-.93-.47-1.4-.47-1.87-3.26-7.47-4.67-17.27-6.07-27.54-3.74-21-5.13-42.94-7.47-63.95-.94-4.2-2.33-22.41-9.34-22.41-6.07,0-14.94,16.34-17.74,21-4.67,8.87-8.87,19.61-13.53,30.81,0,.47-.47.47-.47.93C93,267,84.63,291.29,77.63,315.09c-.94,4.67-3.74,9.34-5.13,14.47C70.62,332.83,68.76,334.23,66.89,334.23Z" transform="translate(-63.88 -41.9)"/><path class="cls-1" d="M326.4,287.55c-11.2,0-5.6-30.34,7-42.94,8.87-8.4,17.27-12.6,23.8-12.6,3.27.47,6.07,1.87,7,3.73q1.4,2.1,0,2.8c-.93.93-15.4,3.73-24.74,11.67-6.53,5.6-13.07,14.94-14,23.81.46,3.27-.47,8.87,2.33,8.87.93,0,2.33-.93,4.2-2.33,2.33-.93,3.74-2.33,5.6-4.2a112,112,0,0,0,10.27-10.74A173.42,173.42,0,0,0,364.21,246c.47-.93.47-1.87.94-2.8,1.87-4.67,3.26-7,5.13-7h.93c2.33.47,2.8,3.27,1.4,8.87-.94,5.6-3.74,14-6.07,26.14-1.87,9.34-3.26,22.41,3.74,30.81.93,1.4,2.8,2.33,4.2,3.27H381c15.4.93,42-39.68,48.55-51.81l1.87,1.4c-8.87,15.87-30.81,50.88-49.48,55.08a12.92,12.92,0,0,1-4.2.47,14.38,14.38,0,0,1-4.67-.47,15.69,15.69,0,0,1-7-4.2c-8.87-8.87-8.4-24.27-7.47-35.94.94-6.54,2.33-12.14,3.27-16.8a197,197,0,0,1-21.94,26.14,46.52,46.52,0,0,1-5.13,4.67c-1.4.47-2.33,1.87-3.74,2.33A10.43,10.43,0,0,1,326.4,287.55Z" transform="translate(-63.88 -41.9)"/><path class="cls-1" d="M438.43,368.31c12.6-19.61,22.4-33.61,32.67-47.14,1.87-20.54,3.27-36.41,4.2-48.08.93-8.87,1.4-15.87,2.33-21-9.8,14-34.54,47.15-48.55,56.48-4.67,3.27-8.4,4.2-11.2,4.2-12.14,0-9.33-22.87-4.2-35,6.54-18.67,28-41.54,48.55-41.54,4.2,0,7.94,1.87,9.33,3.73.94,1.4.94,2.33,1.4,2.8,0,1.87-3.27,2.33-4.67,2.33h-6.07c-16.8,2.8-34.54,20.07-42,35.48-7,14-8.4,26.61-1.4,26.61,3.27,0,8.4-2.33,15.4-8.4,17.27-15.4,31.28-34.54,44.81-53.21.47-1.4,1.4-2.33,1.87-2.33,2.8.47,3.74,9.8,3.27,30.34-.47,8.87-.93,20.54-2.33,34.07,7.94-9.8,16.8-20.07,28-32.21l1.87,1.87C501,289,491.17,300.62,481.37,312.76c-2.8,31.27-6.07,62.55-11.67,93.36-12.6,66.75-34.54,93.36-50.41,92.42C396.88,497.14,388,447.19,438.43,368.31ZM418.36,492.47c.93,0,1.4.47,2.33.47,14,0,34.07-34.08,45.74-123.7,1.87-15.87,2.8-29.87,4.2-42.48-10.27,13.54-19.61,28-29.41,43.41C398.75,438.79,402,488.27,418.36,492.47Z" transform="translate(-63.88 -41.9)"/><path class="cls-1" d="M511.24,303.89c12.14,0,32.21-27.54,37.34-39.68,2.33-47.61,6.07-95.22,18.67-141.43.94-3.27,1.87-7.47,2.8-12.14,2.8-7.47,5.6-18.2,10.74-29.87C581.72,77.5,596.66,42,605.53,42c1.87,0,3.73,1.87,4.67,6.07,0,9.34-1.87,19.61-3.73,28.94-8.87,36.41-18.21,72.35-28.94,108.29l-2.8,9.8c-4.67,18.2-9.33,34.54-13.53,49.48a118.56,118.56,0,0,1-5.6,16.81c-.47.93-.47,1.87-.94,2.8-.46,11.2-.93,23.34,0,35.48.47,6.54.94,13.07,1.4,19.14,1.4,6.07,2.8,12.6,5.13,18.67,1.87,2.8,3.26,5.6,6.07,7.47A10.17,10.17,0,0,0,571,347.3c1.87,0,3.73,0,4.67-.47,17.74-5.13,42.94-51.35,50.88-66.75l2.8.93c-8.87,16.8-27.54,51.35-42.48,63.48-5.6,4.67-9.33,6.54-16.34,6.54-2.33-.47-3.73-1.87-5.6-2.8-3.73-2.33-5.6-5.6-7-8.87a65.87,65.87,0,0,1-6.07-20.07c-3.27-13.54-3.27-28.94-3.27-42.48-7,12.14-23.81,35.94-39.68,35.94-7,0-11.67-6.07-9.34-23.34,3.74-18.2,17.27-35.47,35-41.54a21,21,0,0,1,5.13-.47c2.8,0,9.34.93,9.34,5.13a3.49,3.49,0,0,1-.47,2.33,8,8,0,0,1-3.27.47c-9.33,0-16.34,5.13-22.87,11.2C502.37,286.62,501.44,303.89,511.24,303.89Zm45.28-59.75C563,222.2,571,197,578.45,168.52c1.4-4.2,2.33-8.4,3.73-12.14,4.2-17.74,8.4-34.07,12.14-49.48,1.87-11.2,4.2-21.94,6.07-31.74,2.33-10.27,1.87-14,.94-14-2.8,0-10.74,18.67-12.14,22.87a224.58,224.58,0,0,0-9.33,29.41,131.82,131.82,0,0,1-4.2,14c-7.47,35.48-14.94,70.48-18.21,106.43A83.65,83.65,0,0,0,556.52,244.14Z" transform="translate(-63.88 -41.9)"/><path class="cls-1" d="M631.66,287.55c-11.2,0-5.6-30.34,7-42.94,8.87-8.4,17.27-12.6,23.81-12.6,3.27.47,6.07,1.87,7,3.73q1.4,2.1,0,2.8c-.94.93-15.4,3.73-24.74,11.67-6.53,5.6-13.07,14.94-14,23.81.47,3.27-.47,8.87,2.33,8.87.93,0,2.33-.93,4.2-2.33,2.33-.93,3.74-2.33,5.6-4.2a112,112,0,0,0,10.27-10.74A173.42,173.42,0,0,0,669.47,246c.47-.93.47-1.87.94-2.8,1.87-4.67,3.26-7,5.13-7h.93c2.33.47,2.8,3.27,1.4,8.87-.94,5.6-3.74,14-6.07,26.14-1.87,9.34-3.27,22.41,3.74,30.81.93,1.4,2.8,2.33,4.2,3.27h6.53c15.4.93,42-39.68,48.55-51.81l1.87,1.4c-8.87,15.87-30.81,50.88-49.48,55.08a12.92,12.92,0,0,1-4.2.47,14.38,14.38,0,0,1-4.67-.47,15.72,15.72,0,0,1-7-4.2c-8.87-8.87-8.4-24.27-7.47-35.94.94-6.54,2.33-12.14,3.27-16.8a197,197,0,0,1-21.94,26.14,46.52,46.52,0,0,1-5.13,4.67c-1.4.47-2.33,1.87-3.74,2.33A10.43,10.43,0,0,1,631.66,287.55Z" transform="translate(-63.88 -41.9)"/><path class="cls-1" d="M728.74,311.36a224.76,224.76,0,0,1,.94-22.87c1.87-21.47,6.53-54.61,14-105,1.4-12.6,2.8-24.27,3.74-35,3.27-26.61,5.6-46.68,6.53-61.15,3.74-28.94,5.6-36.88,11.67-36.41,4.67,1.4,3.73,9.34-1.87,37.34-2.33,14.94-6.53,34.07-10.73,60.21-1.4,9.8-3.27,20.54-5.13,32.21-6.07,52.28-7.47,86.82-8.4,108.76,0,11.67,0,19.61-.47,25.67.94,12.6.94,28.47,1.4,31.74.47,17.27,5.6,24.74,13.07,24.74,26.14,0,64-84.49,71.89-104.56l3.26.47c-10.73,25.67-30.34,71-48.08,92C774.49,367.37,764.22,380,753,380a15.5,15.5,0,0,1-7.47-2.33C728.74,369.24,727.34,329.1,728.74,311.36Z" transform="translate(-63.88 -41.9)"/><path class="cls-1" d="M811.82,291.75C817.42,278.68,823,268.88,830,260c4.2-4.2,7-8.87,13.07-10.74a5.93,5.93,0,0,1,2.8-.47c5.6,0,10.27,5.6,10.27,11.2-.94,14-16.34,18.2-28,18.2-6.53,8.4-14,24.74-15.87,35.48-.47,10.27,1.87,14.47,6.07,14.47,2.8,0,7-1.87,11.67-4.2,26.14-14.47,61.15-45.74,78.42-71.42l2.33,1.87c-14,20.54-47.14,51.81-66.28,66.28-6.54,4.2-17.74,12.6-26.61,12.6a12.9,12.9,0,0,1-6.07-1.4,10.79,10.79,0,0,1-4.67-6.53C803.88,314.16,807.62,302,811.82,291.75Zm24.74-24.27c3.73-.93,9.33-3.73,9.33-7.47,0,0,0-.93-.47-.93-1.87,0-6.53,6.07-7.94,7.47Z" transform="translate(-63.88 -41.9)"/><path class="cls-1" d="M910.77,240.87c7.47,0-2.8,28.94-3.74,31.74l-5.13,26.14c0,1.87,0,2.33.94,2.33,1.87,0,8.87-11.67,14.47-22.41,7-15.4,14-31.74,21.94-46.68,6.07-11.67,19.14-38.74,33.14-42.94a11.57,11.57,0,0,1,3.73-.47c9.81,0,15.87,10.74,18.21,20.07v1.4c8.4,29.41,13.54,105,36.87,105,8.87,0,19.6-9.8,33.61-35.48l2.33.93c-14.47,28.47-26.61,39.21-36.41,39.21-27.08,0-37.81-84-47.61-112-2.33-5.13-5.6-7-8.87-7-10.27,0-23.34,21-30.34,34.54-4.67,8.4-10.27,19.14-16.8,30.81-5.13,12.6-10.74,27.07-18.2,37.81-2.34,3.27-5.6,5.6-8.87,5.13C888.36,309,898.63,240.87,910.77,240.87Z" transform="translate(-63.88 -41.9)"/><path class="cls-1" d="M1068.06,287.55c-11.2,0-5.6-30.34,7-42.94,8.87-8.4,17.27-12.6,23.8-12.6,3.27.47,6.07,1.87,7,3.73q1.4,2.1,0,2.8c-.93.93-15.4,3.73-24.74,11.67-6.53,5.6-13.07,14.94-14,23.81.46,3.27-.47,8.87,2.33,8.87.93,0,2.33-.93,4.2-2.33,2.33-.93,3.74-2.33,5.6-4.2a112,112,0,0,0,10.27-10.74A173.42,173.42,0,0,0,1105.87,246c.47-.93.47-1.87.94-2.8,1.87-4.67,3.26-7,5.13-7h.93c2.33.47,2.8,3.27,1.4,8.87-.94,5.6-3.74,14-6.07,26.14-1.87,9.34-3.26,22.41,3.74,30.81.93,1.4,2.8,2.33,4.2,3.27h6.53c15.4.93,42-39.68,48.55-51.81l1.87,1.4c-8.87,15.87-30.81,50.88-49.48,55.08a12.92,12.92,0,0,1-4.2.47,14.38,14.38,0,0,1-4.67-.47,15.69,15.69,0,0,1-7-4.2c-8.87-8.87-8.4-24.27-7.47-35.94.94-6.54,2.33-12.14,3.27-16.8a197,197,0,0,1-21.94,26.14,46.52,46.52,0,0,1-5.13,4.67c-1.4.47-2.33,1.87-3.74,2.33A10.43,10.43,0,0,1,1068.06,287.55Z" transform="translate(-63.88 -41.9)"/><path class="cls-1" d="M1294,288.49a6.6,6.6,0,0,1,.46-4.2c.47-12.6,0-22.87.47-31.74a270.57,270.57,0,0,1,2.8-38.74c1.87-14,4.67-35.48,7.47-66.75,1.4-32.67,1.4-54.15,1.87-68.62,0-18.2.47-24.27,6.07-24.27h1.4c5.13,0,5.13,5.6,2.33,24.74-1.4,13.07-4.2,32.67-7,60.68-1.87,35.94-1.87,59.28-2.33,74.68,0,9.34,0,15.4-.94,19.14,0,4.67-.46,11.2-.93,19.61-.94,7-1.87,14.47-2.8,23.34,4.2-4.67,7.94-9.34,12.14-14.94.94-.93,1.4-2.33,2.33-3.27,4.67-8.4,9.33-15.87,13.07-22.87,7.47-13.07,12.6-22.87,16.8-30.81,6.07-11.67,8.87-16.8,12.6-16.8a8.66,8.66,0,0,1,3.27.93c4.2,2.8,2.33,7.47-7.47,21.47-4.2,7-11.67,16.34-20.07,29.41-4.67,5.13-8.87,12.14-14,19.6l-2.8,4.2c-3.27,4.2-6.07,8.4-8.87,12.6-2.33,3.27-5.6,6.07-7.94,9.34-.47,1.87-.47,4.2-.93,6.54.93,1.87,1.87,4.2,3.26,5.6,3.27,4.2,6.07,7,8.4,10.27,10.74,8.4,22.41,16.8,35.48,21.47a57.9,57.9,0,0,0,17.27,5.13c33.14,0,52.28-22.41,63-51.81l2.8,1.87A157.27,157.27,0,0,1,1414.4,316c-13.07,14.94-28.94,26.14-49.48,26.14-22.87,0-43.88-11.2-58.35-28.47a65.86,65.86,0,0,1-6.53-8.4c-.47,7.47-.94,15.4-.94,24.27,0,4.67-.46,31.27,3.27,34.07,2.33,0,4.2,2.8.47,3.27-7.94.93-7.47-31.27-7.94-36.88,0-11.67-.47-21.94-.47-31.74v-5.6A6.6,6.6,0,0,1,1294,288.49Z" transform="translate(-63.88 -41.9)"/><path class="cls-1" d="M1424.19,262.35c1.4-6.07,10.74-22.41,19.14-24.27a20.34,20.34,0,0,0,.46-2.33c-.93-6.07,3.74-12.14,8.4-12.14s9.8,5.6,10.27,21a106.55,106.55,0,0,1-1.87,24.74c0,.47,0,.47-.47.93a19.61,19.61,0,0,0,9.8,2.8c11.67,0,24.74-9.34,32.68-15.87l1.4,1.87c-8.4,7.47-22.41,16.8-34.54,16.8-3.27,0-7-.47-9.8-2.33-2.33,10.27-8.4,33.14-21,33.14-5.13,0-10.27-4.67-14.94-14.94a53,53,0,0,1-2.34-16.34A59.23,59.23,0,0,1,1424.19,262.35Zm15.4,34.54c4.67,0,10.27-7.47,14-27.54-5.6-5.13-8.4-14.47-9.34-22.41-4.67,4.67-8.4,12.6-10.73,18.67C1427.46,280.55,1432.59,296.89,1439.59,296.89Zm8.87-56c0,.47-.47.93-.94,1.4-.47,7.47,2.33,17.27,7,23.34a103.27,103.27,0,0,0,2.33-21c.94-11.67-1.87-15.4-4.67-15.4-2.33,0-4.67,3.27-3.73,7a5.91,5.91,0,0,0-.47,2.8C1448.93,239.47,1448.93,239.94,1448.47,240.87Z" transform="translate(-63.88 -41.9)"/><path class="cls-1" d="M1507.74,302.49c-7,0-12.14-7.47-12.14-27.54a107.12,107.12,0,0,1,1.87-19.61c1.4-5.13,2.8-9.8,3.73-13.54,2.33-6.07,4.67-8.87,6.07-8.4,2.8.47,3.26,4.2,2.33,10.74-.94,3.73-1.87,7.47-2.8,12.6-.47,5.6-2.33,11.2-2.8,18.67-2.33,14,0,20.07,5.13,20.07s12.6-6.07,19.6-16.8c10.74-16.8,19.14-34.54,27.07-52.75a129.13,129.13,0,0,1,4.2-18.67c1.4-6.07,3.73-7.94,6.07-7.47,2.33.93,2.8,2.8,1.87,9.34-.46,6.07-3.26,16.8-6.07,32.67-1.4,8.4-3.27,17.74-4.2,28.94s-1.87,24.27-.47,39.21a49.45,49.45,0,0,0,2.33,10.74c3.27,11.2,10.73,19.14,22.87,19.14,22.41-3.27,31.27-27.54,35.94-46.68.94-6.53,1.4-12.14,2.33-18.2.94-11.2.47-20.54.47-28.47,0-1.4-.47-3.27-.47-4.67a1.63,1.63,0,0,1-.47-.93c-6.53-14-13.53-30.34-15.4-45.74-1.87-8.4-4.67-28,0-35,1.4-.93,2.33-1.87,3.73-1.87,7.94,0,14.94,27.54,18.67,55.08,1.4,6.07,2.33,16.8,2.33,33.14v3.27c7.47,13.07,16.34,21,26.61,21,8.4,0,17.74-5.6,28.48-17.27l2.33,1.87c-12.14,12.6-22.87,18.2-32.21,18.2s-17.74-6.07-25.67-17.27c0,12.14-1.87,26.61-5.6,38.28-3.73,15.4-9.33,29.87-21.47,40.61a40.64,40.64,0,0,1-4.67,3.27A27.66,27.66,0,0,1,1581,344c-13.07,0-24.74-10.74-28.47-33.14-2.33-15.4-1.87-28.47-1.87-40.14,1.4-11.67,1.87-21.47,2.8-29.87,0-.93.47-1.87.47-3.27-5.13,14.94-13.07,30.34-21,43.88C1525.47,293.15,1515.21,302.49,1507.74,302.49ZM1609,172.72c-.47,0-.47,6.07,1.87,21.47a132.12,132.12,0,0,0,4.67,21.94c1.4,3.73,2.8,8.4,4.2,12.6-.47-5.13-.94-9.34-.94-12.6C1616.5,201.2,1610.43,172.72,1609,172.72Z" transform="translate(-63.88 -41.9)"/><path class="cls-1" d="M1672.5,287.55c-11.2,0-5.6-30.34,7-42.94,8.87-8.4,17.27-12.6,23.81-12.6,3.27.47,6.07,1.87,7,3.73q1.4,2.1,0,2.8c-.94.93-15.4,3.73-24.74,11.67-6.53,5.6-13.07,14.94-14,23.81.47,3.27-.47,8.87,2.33,8.87.93,0,2.33-.93,4.2-2.33,2.33-.93,3.74-2.33,5.6-4.2A112,112,0,0,0,1694,265.61,173.42,173.42,0,0,0,1710.31,246c.47-.93.47-1.87.94-2.8,1.87-4.67,3.26-7,5.13-7h.93c2.33.47,2.8,3.27,1.4,8.87-.94,5.6-3.74,14-6.07,26.14-1.87,9.34-3.27,22.41,3.74,30.81.93,1.4,2.8,2.33,4.2,3.27h6.53c15.4.93,42-39.68,48.55-51.81l1.87,1.4c-8.87,15.87-30.81,50.88-49.48,55.08a12.92,12.92,0,0,1-4.2.47,14.38,14.38,0,0,1-4.67-.47,15.72,15.72,0,0,1-7-4.2c-8.87-8.87-8.4-24.27-7.47-35.94.94-6.54,2.33-12.14,3.27-16.8A197,197,0,0,1,1686,279.15a46.52,46.52,0,0,1-5.13,4.67c-1.4.47-2.33,1.87-3.74,2.33A10.43,10.43,0,0,1,1672.5,287.55Z" transform="translate(-63.88 -41.9)"/><path class="cls-1" d="M1769.59,311.36a224.76,224.76,0,0,1,.94-22.87c1.87-21.47,6.53-54.61,14-105,1.4-12.6,2.8-24.27,3.74-35,3.27-26.61,5.6-46.68,6.53-61.15,3.74-28.94,5.6-36.88,11.67-36.41,4.67,1.4,3.73,9.34-1.87,37.34-2.33,14.94-6.53,34.07-10.73,60.21-1.4,9.8-3.27,20.54-5.13,32.21-6.07,52.28-7.47,86.82-8.4,108.76,0,11.67,0,19.61-.47,25.67.94,12.6.94,28.47,1.4,31.74.46,17.27,5.6,24.74,13.07,24.74,26.14,0,64-84.49,71.89-104.56l3.26.47c-10.73,25.67-30.34,71-48.08,92-6.07,7.94-16.34,20.54-27.54,20.54a15.5,15.5,0,0,1-7.47-2.33C1769.59,369.24,1768.19,329.1,1769.59,311.36Z" transform="translate(-63.88 -41.9)"/><path class="cls-1" d="M1862,422.92c6.07-30.34,21-60.21,35.47-87.29a362.48,362.48,0,0,0-27.54-63.48c-5.13-9.34-9.8-19.6-9.33-29.87,0-18.2,14.94-30.81,32.68-30.81,6.53,0,11.2,1.87,15.87,4.2s16.8,13.54,12.6,14.94c-3.27.93-12.14-7.47-15.87-9.34-2.33-1.4-6.07-2.33-10.74-2.33-14,0-26.61,8.87-26.61,23.81,0,4.67.94,11.2,3.27,15.4,6.07,14.47,14.47,27.54,20.54,42a204,204,0,0,1,9.81,27.07c13.07-25.67,32.67-54.15,49.94-77.49l1.4,1.4c-18.21,25.67-35,52.28-50.41,79.35,5.13,15.87,8.87,34.08,11.2,53.21a243.33,243.33,0,0,1,.46,52.28,194.49,194.49,0,0,1-4.67,28c-2.8,8.87-7,20.54-13.07,27.54a22.15,22.15,0,0,1-6.07,5.13,15.19,15.19,0,0,1-6.53,1.87c-16.81,0-24.74-27.54-25.67-41.08A125.56,125.56,0,0,1,1862,422.92Zm.46,34.07a86.92,86.92,0,0,0,2.8,15.87,65.55,65.55,0,0,0,7,14c2.8,3.73,6.53,7.47,10.73,7.94s7.94-2.8,10.74-6.07c4.67-5.13,10.27-19.14,11.67-26.14a135.73,135.73,0,0,0,4.2-27.07,260.64,260.64,0,0,0-1.4-50.88,315.44,315.44,0,0,0-9.8-45.74c-13.54,26.61-27.07,55.55-33.14,85C1862.93,435.05,1861.53,446.26,1862.47,457Z" transform="translate(-63.88 -41.9)"/><path class="cls-1" d="M1951.15,288.49a6.61,6.61,0,0,1,.47-4.2c.47-12.6,0-22.87.47-31.74a270.57,270.57,0,0,1,2.8-38.74c1.87-14,4.67-35.48,7.47-66.75,1.4-32.67,1.4-54.15,1.87-68.62,0-18.2.47-24.27,6.07-24.27h1.4c5.13,0,5.13,5.6,2.33,24.74-1.4,13.07-4.2,32.67-7,60.68-1.87,35.94-1.87,59.28-2.33,74.68,0,9.34,0,15.4-.94,19.14,0,4.67-.46,11.2-.93,19.61-.94,7-1.87,14.47-2.8,23.34,4.2-4.67,7.94-9.34,12.14-14.94.94-.93,1.4-2.33,2.33-3.27,4.67-8.4,9.33-15.87,13.07-22.87,7.47-13.07,12.6-22.87,16.8-30.81,6.07-11.67,8.87-16.8,12.6-16.8a8.66,8.66,0,0,1,3.27.93c4.2,2.8,2.33,7.47-7.47,21.47-4.2,7-11.67,16.34-20.07,29.41-4.67,5.13-8.87,12.14-14,19.6l-2.8,4.2c-3.27,4.2-6.07,8.4-8.87,12.6-2.33,3.27-5.6,6.07-7.94,9.34-.46,1.87-.46,4.2-.93,6.54.93,1.87,1.87,4.2,3.26,5.6,3.27,4.2,6.07,7,8.4,10.27,10.74,8.4,22.41,16.8,35.48,21.47a57.9,57.9,0,0,0,17.27,5.13c33.14,0,52.28-22.41,63-51.81l2.8,1.87a157.07,157.07,0,0,1-16.8,31.74c-13.07,14.94-28.94,26.14-49.48,26.14-22.87,0-43.88-11.2-58.35-28.47a65.86,65.86,0,0,1-6.53-8.4c-.47,7.47-.94,15.4-.94,24.27,0,4.67-.46,31.27,3.27,34.07,2.33,0,4.2,2.8.47,3.27-7.94.93-7.47-31.27-7.94-36.88,0-11.67-.47-21.94-.47-31.74v-5.6A6.61,6.61,0,0,1,1951.15,288.49Z" transform="translate(-63.88 -41.9)"/><path class="cls-1" d="M2089.77,287.55c-11.2,0-5.6-30.34,7-42.94,8.87-8.4,17.27-12.6,23.8-12.6,3.27.47,6.07,1.87,7,3.73q1.4,2.1,0,2.8c-.93.93-15.4,3.73-24.74,11.67-6.53,5.6-13.07,14.94-14,23.81.46,3.27-.47,8.87,2.33,8.87.93,0,2.33-.93,4.2-2.33,2.33-.93,3.74-2.33,5.6-4.2a112,112,0,0,0,10.27-10.74A173.42,173.42,0,0,0,2127.58,246c.47-.93.47-1.87.94-2.8,1.87-4.67,3.26-7,5.13-7h.93c2.33.47,2.8,3.27,1.4,8.87-.94,5.6-3.74,14-6.07,26.14-1.87,9.34-3.26,22.41,3.74,30.81.93,1.4,2.8,2.33,4.2,3.27h6.53c15.4.93,42-39.68,48.55-51.81l1.87,1.4c-8.87,15.87-30.81,50.88-49.48,55.08a12.92,12.92,0,0,1-4.2.47,14.38,14.38,0,0,1-4.67-.47,15.69,15.69,0,0,1-7-4.2c-8.87-8.87-8.4-24.27-7.47-35.94.94-6.54,2.33-12.14,3.27-16.8a197,197,0,0,1-21.94,26.14,46.52,46.52,0,0,1-5.13,4.67c-1.4.47-2.33,1.87-3.74,2.33A10.43,10.43,0,0,1,2089.77,287.55Z" transform="translate(-63.88 -41.9)"/></svg>