<?xml version="1.0" encoding="utf-8"?>
<!-- Generator: Adobe Illustrator 21.0.0, SVG Export Plug-In . SVG Version: 6.00 Build 0)  -->
<svg version="1.1" id="Layer_1" xmlns="http://www.w3.org/2000/svg" xmlns:xlink="http://www.w3.org/1999/xlink" x="0px" y="0px"
	 viewBox="0 0 283.5 57" style="enable-background:new 0 0 283.5 57;" xml:space="preserve">
<g>
	<path d="M40.9,30.6c-0.2,0-0.3-0.2-0.2-0.5v-0.3c0-1.9,0.4-5.4,0.9-7.1c0.2-0.7,0.4-1,0.6-0.9c0.2,0.1,0.3,0.4,0.2,1.1
		c-0.1,0.7-0.3,1.9-0.6,3.7c-0.1,0.5-0.2,1-0.2,1.5c0,0.1,0,0.1,0,0.2c1.1-3,2.2-6,3.5-8.8c0.4-0.6,1-2.1,1.9-2.1s1.2,1.9,1.4,2.5
		c0.1,0.8,0.2,1.5,0.3,2.2c0.2,1.4,0.4,2.5,0.6,3.5c0,0.3,0.3,1.8,0.7,2.6c0,0.1,0.1,0.2,0.2,0.2h0c0.1,0,0.2-0.1,0.2-0.1
		c0.1-0.1,0.2-0.2,0.3-0.4c0.5-0.6,1-1.3,1.6-2.2c0.3-0.5,2.1-3.9,3-3.9c0,0,0,0,0.1,0c0.5,0.2,0.6,1.1,0.7,1.5
		c0.2,0.9,0.2,1.8,0.4,2.7c0.6,3.6,1.6,4.9,2.7,4.9c1.7,0,3.5-2.8,4.6-5c0.1-0.1,0.3,0.1,0.2,0.2c-1.4,3.2-3.2,5.2-4.7,5.2
		c-1.5,0-2.9-1.9-3.6-6.6c-0.2-1.3-0.4-1.9-0.6-1.9s-0.6,0.8-1.2,2c-0.3,0.5-0.5,1.1-0.8,1.5c-0.6,1-1.1,1.7-1.6,2.3
		c-0.1,0.1-0.3,0.4-0.6,0.5c0,0,0,0,0,0.1l-0.1,0c-0.2,0.1-0.3,0.1-0.4,0.1s-0.2,0-0.2,0c-0.1,0-0.2,0-0.3-0.1
		c-0.1-0.1-0.2-0.2-0.4-0.4c-0.1-0.2-0.2-0.4-0.3-0.5c0-0.1,0-0.1,0-0.2c-0.3-0.7-0.4-1.5-0.5-2.4c-0.3-1.9-0.5-3.8-0.7-5.7
		c-0.1-0.4-0.2-2-0.8-2c-0.5,0-1.3,1.5-1.6,1.9c-0.4,0.8-0.8,1.7-1.2,2.7c0,0,0,0,0,0.1c-0.7,2.1-1.5,4.2-2.1,6.3
		c-0.1,0.4-0.3,0.8-0.5,1.3C41.2,30.5,41,30.6,40.9,30.6z"/>
	<path d="M63.9,26.5c-1,0-0.5-2.7,0.6-3.8c0.8-0.7,1.5-1.1,2.1-1.1c0.3,0,0.5,0.2,0.6,0.3c0.1,0.1,0.1,0.2,0,0.2
		c-0.1,0.1-1.4,0.3-2.2,1c-0.6,0.5-1.2,1.3-1.2,2.1c0,0.3,0,0.8,0.2,0.8c0.1,0,0.2-0.1,0.4-0.2c0.2-0.1,0.3-0.2,0.5-0.4
		c0.3-0.3,0.6-0.6,0.9-1c0.5-0.5,1-1.1,1.5-1.7c0-0.1,0-0.2,0.1-0.2c0.2-0.4,0.3-0.6,0.5-0.6c0,0,0,0,0.1,0c0.2,0,0.2,0.3,0.1,0.8
		c-0.1,0.5-0.3,1.2-0.5,2.3c-0.2,0.8-0.3,2,0.3,2.7c0.1,0.1,0.3,0.2,0.4,0.3c0.2,0,0.4,0,0.6,0c1.4,0.1,3.7-3.5,4.3-4.6l0.2,0.1
		c-0.8,1.4-2.7,4.5-4.4,4.9c-0.1,0-0.2,0-0.4,0c-0.2,0-0.3,0-0.4,0c-0.2,0-0.5-0.2-0.6-0.4c-0.8-0.8-0.7-2.2-0.7-3.2
		c0.1-0.6,0.2-1.1,0.3-1.5c-0.6,0.8-1.2,1.6-2,2.3c-0.2,0.2-0.3,0.3-0.5,0.4c-0.1,0-0.2,0.2-0.3,0.2C64.2,26.4,64,26.5,63.9,26.5z"
		/>
	<path d="M73.9,33.7c1.1-1.7,2-3,2.9-4.2c0.2-1.8,0.3-3.2,0.4-4.3c0.1-0.8,0.1-1.4,0.2-1.9c-0.9,1.2-3.1,4.2-4.3,5
		c-0.4,0.3-0.7,0.4-1,0.4c-1.1,0-0.8-2-0.4-3.1c0.6-1.7,2.5-3.7,4.3-3.7c0.4,0,0.7,0.2,0.8,0.3c0.1,0.1,0.1,0.2,0.1,0.2
		c0,0.2-0.3,0.2-0.4,0.2c-0.1,0-0.2,0-0.3,0c0,0-0.1,0-0.2,0c-1.5,0.2-3.1,1.8-3.7,3.2c-0.6,1.2-0.7,2.4-0.1,2.4
		c0.3,0,0.7-0.2,1.4-0.7c1.5-1.4,2.8-3.1,4-4.7c0-0.1,0.1-0.2,0.2-0.2c0.2,0,0.3,0.9,0.3,2.7c0,0.8-0.1,1.8-0.2,3
		c0.7-0.9,1.5-1.8,2.5-2.9l0.2,0.2c-1,1-1.8,2.1-2.7,3.2c-0.2,2.8-0.5,5.6-1,8.3c-1.1,5.9-3.1,8.3-4.5,8.2
		C70.2,45.1,69.4,40.7,73.9,33.7z M72.1,44.7c0.1,0,0.1,0,0.2,0c1.2,0,3-3,4.1-11c0.2-1.4,0.2-2.7,0.4-3.8c-0.9,1.2-1.7,2.5-2.6,3.9
		C70.3,39.9,70.6,44.3,72.1,44.7z"/>
	<path d="M80.3,27.9c1.1,0,2.9-2.4,3.3-3.5c0.2-4.2,0.5-8.5,1.7-12.6c0.1-0.3,0.2-0.7,0.2-1.1c0.3-0.7,0.5-1.6,1-2.7
		c0.1-0.3,1.4-3.4,2.2-3.4c0.2,0,0.3,0.2,0.4,0.5c0,0.8-0.2,1.7-0.3,2.6c-0.8,3.2-1.6,6.4-2.6,9.6c-0.1,0.3-0.2,0.6-0.2,0.9
		c-0.4,1.6-0.8,3.1-1.2,4.4c-0.1,0.5-0.3,1-0.5,1.5c0,0.1,0,0.2-0.1,0.2c0,1-0.1,2.1,0,3.2c0,0.6,0.1,1.2,0.1,1.7
		c0.1,0.5,0.2,1.1,0.5,1.7c0.2,0.2,0.3,0.5,0.5,0.7c0.1,0.1,0.2,0.2,0.3,0.2c0.2,0,0.3,0,0.4,0c1.6-0.5,3.8-4.6,4.5-5.9l0.2,0.1
		c-0.8,1.5-2.4,4.6-3.8,5.6c-0.5,0.4-0.8,0.6-1.5,0.6c-0.2,0-0.3-0.2-0.5-0.2c-0.3-0.2-0.5-0.5-0.6-0.8c-0.3-0.6-0.5-1.2-0.5-1.8
		c-0.3-1.2-0.3-2.6-0.3-3.8c-0.6,1.1-2.1,3.2-3.5,3.2c-0.6,0-1-0.5-0.8-2.1c0.3-1.6,1.5-3.2,3.1-3.7c0.2,0,0.3,0,0.5,0
		c0.2,0,0.8,0.1,0.8,0.5c0,0.1,0,0.2,0,0.2c-0.1,0-0.2,0-0.3,0c-0.8,0-1.5,0.5-2,1C79.6,26.4,79.5,27.9,80.3,27.9z M84.4,22.6
		c0.6-1.9,1.3-4.2,2-6.7c0.1-0.4,0.2-0.7,0.3-1.1c0.4-1.6,0.7-3,1.1-4.4c0.2-1,0.4-2,0.5-2.8c0.2-0.9,0.2-1.2,0.1-1.2
		c-0.2,0-1,1.7-1.1,2c-0.4,1-0.7,2-0.8,2.6c-0.1,0.5-0.2,0.9-0.4,1.2c-0.7,3.2-1.3,6.3-1.6,9.5C84.4,22,84.4,22.3,84.4,22.6z"/>
	<path d="M91,26.5c-1,0-0.5-2.7,0.6-3.8c0.8-0.7,1.5-1.1,2.1-1.1c0.3,0,0.5,0.2,0.6,0.3c0.1,0.1,0.1,0.2,0,0.2
		c-0.1,0.1-1.4,0.3-2.2,1c-0.6,0.5-1.2,1.3-1.2,2.1c0,0.3,0,0.8,0.2,0.8c0.1,0,0.2-0.1,0.4-0.2c0.2-0.1,0.3-0.2,0.5-0.4
		c0.3-0.3,0.6-0.6,0.9-1c0.5-0.5,1-1.1,1.5-1.7c0-0.1,0-0.2,0.1-0.2c0.2-0.4,0.3-0.6,0.5-0.6c0,0,0,0,0.1,0c0.2,0,0.2,0.3,0.1,0.8
		c-0.1,0.5-0.3,1.2-0.5,2.3c-0.2,0.8-0.3,2,0.3,2.7c0.1,0.1,0.2,0.2,0.4,0.3c0.2,0,0.4,0,0.6,0c1.4,0.1,3.7-3.5,4.3-4.6l0.2,0.1
		c-0.8,1.4-2.7,4.5-4.4,4.9c-0.1,0-0.2,0-0.4,0c-0.2,0-0.3,0-0.4,0c-0.2,0-0.5-0.2-0.6-0.4c-0.8-0.8-0.7-2.2-0.7-3.2
		c0.1-0.6,0.2-1.1,0.3-1.5c-0.6,0.8-1.2,1.6-2,2.3c-0.2,0.2-0.3,0.3-0.5,0.4c-0.1,0-0.2,0.2-0.3,0.2C91.3,26.4,91.2,26.5,91,26.5z"
		/>
	<path d="M99.7,28.6c0-0.5,0-1.2,0.1-2c0.2-1.9,0.6-4.9,1.2-9.3c0.1-1.1,0.2-2.2,0.3-3.1c0.3-2.4,0.5-4.1,0.6-5.4
		c0.3-2.6,0.5-3.3,1-3.2c0.4,0.1,0.3,0.8-0.2,3.3c-0.2,1.3-0.6,3-1,5.4c-0.1,0.9-0.3,1.8-0.5,2.9c-0.5,4.6-0.7,7.7-0.7,9.7
		c0,1,0,1.7,0,2.3c0.1,1.1,0.1,2.5,0.1,2.8c0,1.5,0.5,2.2,1.2,2.2c2.3,0,5.7-7.5,6.4-9.3l0.3,0c-1,2.3-2.7,6.3-4.3,8.2
		c-0.5,0.7-1.5,1.8-2.4,1.8c-0.2,0-0.5-0.1-0.7-0.2C99.7,33.7,99.5,30.2,99.7,28.6z"/>
	<path d="M116.7,22.3c0.7,0-0.3,2.6-0.3,2.8l-0.5,2.3c0,0.2,0,0.2,0.1,0.2c0.2,0,0.8-1,1.3-2c0.6-1.4,1.2-2.8,2-4.1
		c0.5-1,1.7-3.4,2.9-3.8c0.1,0,0.2,0,0.3,0c0.9,0,1.4,1,1.6,1.8c0,0,0,0.1,0,0.1c0.7,2.6,1.2,9.3,3.3,9.3c0.8,0,1.7-0.9,3-3.2
		l0.2,0.1c-1.3,2.5-2.4,3.5-3.2,3.5c-2.4,0-3.4-7.5-4.2-10c-0.2-0.5-0.5-0.6-0.8-0.6c-0.9,0-2.1,1.9-2.7,3.1
		c-0.4,0.7-0.9,1.7-1.5,2.7c-0.5,1.1-1,2.4-1.6,3.4c-0.2,0.3-0.5,0.5-0.8,0.5C114.7,28.4,115.6,22.3,116.7,22.3z"/>
	<path d="M130.7,26.5c-1,0-0.5-2.7,0.6-3.8c0.8-0.7,1.5-1.1,2.1-1.1c0.3,0,0.5,0.2,0.6,0.3c0.1,0.1,0.1,0.2,0,0.2
		c-0.1,0.1-1.4,0.3-2.2,1c-0.6,0.5-1.2,1.3-1.2,2.1c0,0.3,0,0.8,0.2,0.8c0.1,0,0.2-0.1,0.4-0.2c0.2-0.1,0.3-0.2,0.5-0.4
		c0.3-0.3,0.6-0.6,0.9-1c0.5-0.5,1-1.1,1.5-1.7c0-0.1,0-0.2,0.1-0.2c0.2-0.4,0.3-0.6,0.5-0.6c0,0,0,0,0.1,0c0.2,0,0.2,0.3,0.1,0.8
		c-0.1,0.5-0.3,1.2-0.5,2.3c-0.2,0.8-0.3,2,0.3,2.7c0.1,0.1,0.2,0.2,0.4,0.3c0.2,0,0.4,0,0.6,0c1.4,0.1,3.7-3.5,4.3-4.6l0.2,0.1
		c-0.8,1.4-2.7,4.5-4.4,4.9c-0.1,0-0.2,0-0.4,0c-0.2,0-0.3,0-0.4,0c-0.2,0-0.5-0.2-0.6-0.4c-0.8-0.8-0.7-2.2-0.7-3.2
		c0.1-0.6,0.2-1.1,0.3-1.5c-0.6,0.8-1.2,1.6-1.9,2.3c-0.2,0.2-0.3,0.3-0.5,0.4c-0.1,0-0.2,0.2-0.3,0.2
		C130.9,26.4,130.8,26.5,130.7,26.5z"/>
	<path d="M149.9,26.6c0-0.1,0-0.2,0-0.4c0-1.1,0-2,0-2.8c0-1.2,0.1-2.3,0.2-3.4c0.2-1.2,0.4-3.2,0.7-5.9c0.1-2.9,0.1-4.8,0.2-6.1
		c0-1.6,0-2.2,0.5-2.2c0,0,0.1,0,0.1,0c0.5,0,0.5,0.5,0.2,2.2c-0.1,1.2-0.4,2.9-0.6,5.4c-0.2,3.2-0.2,5.3-0.2,6.6
		c0,0.8,0,1.4-0.1,1.7c0,0.4,0,1-0.1,1.7c-0.1,0.6-0.2,1.3-0.2,2.1c0.4-0.4,0.7-0.8,1.1-1.3c0.1-0.1,0.1-0.2,0.2-0.3
		c0.4-0.7,0.8-1.4,1.2-2c0.7-1.2,1.1-2,1.5-2.7c0.5-1,0.8-1.5,1.1-1.5c0.1,0,0.2,0,0.3,0.1c0.4,0.2,0.2,0.7-0.7,1.9
		c-0.4,0.6-1,1.5-1.8,2.6c-0.4,0.5-0.8,1.1-1.2,1.7c-0.1,0.1-0.2,0.2-0.2,0.4c-0.3,0.4-0.5,0.7-0.8,1.1c-0.2,0.3-0.5,0.5-0.7,0.8
		c0,0.2,0,0.4-0.1,0.6c0.1,0.2,0.2,0.4,0.3,0.5c0.3,0.4,0.5,0.6,0.7,0.9c1,0.7,2,1.5,3.2,1.9c0.5,0.2,0.9,0.4,1.5,0.5
		c2.9,0,4.6-2,5.6-4.6l0.2,0.2c-0.4,1-0.9,2-1.5,2.8c-1.2,1.3-2.6,2.3-4.4,2.3c-2,0-3.9-1-5.2-2.5c-0.2-0.2-0.4-0.5-0.6-0.7
		c0,0.7-0.1,1.4-0.1,2.2c0,0.4,0,2.8,0.3,3c0.2,0,0.4,0.2,0,0.3c-0.7,0.1-0.7-2.8-0.7-3.3c0-1,0-1.9,0-2.8c0-0.2,0-0.3,0-0.5
		C149.9,26.8,149.9,26.7,149.9,26.6z"/>
	<path d="M161.5,24.2c0.1-0.5,1-2,1.7-2.2c0,0,0-0.1,0-0.2c-0.1-0.5,0.3-1.1,0.7-1.1c0.4,0,0.9,0.5,0.9,1.9c0,0.8,0,1.5-0.2,2.2
		c0,0,0,0,0,0.1c0.3,0.2,0.6,0.2,0.9,0.2c1,0,2.2-0.8,2.9-1.4l0.1,0.2c-0.7,0.7-2,1.5-3.1,1.5c-0.3,0-0.6,0-0.9-0.2
		c-0.2,0.9-0.7,2.9-1.9,2.9c-0.5,0-0.9-0.4-1.3-1.3c-0.2-0.5-0.2-1-0.2-1.5C161.3,25,161.4,24.6,161.5,24.2z M162.8,27.3
		c0.4,0,0.9-0.7,1.2-2.4c-0.5-0.5-0.7-1.3-0.8-2c-0.4,0.4-0.7,1.1-1,1.7C161.8,25.9,162.2,27.3,162.8,27.3z M163.6,22.3
		c0,0,0,0.1-0.1,0.1c0,0.7,0.2,1.5,0.6,2.1c0.1-0.6,0.2-1.2,0.2-1.9c0.1-1-0.2-1.4-0.4-1.4c-0.2,0-0.4,0.3-0.3,0.6
		c0,0.1,0,0.2,0,0.2C163.7,22.2,163.7,22.3,163.6,22.3z"/>
	<path d="M168.9,27.8c-0.6,0-1.1-0.7-1.1-2.4c0-0.7,0.1-1.3,0.2-1.7c0.1-0.5,0.2-0.9,0.3-1.2c0.2-0.5,0.4-0.8,0.5-0.7
		c0.2,0,0.3,0.4,0.2,1c-0.1,0.3-0.2,0.7-0.2,1.1c0,0.5-0.2,1-0.2,1.7c-0.2,1.2,0,1.8,0.5,1.8c0.5,0,1.1-0.5,1.7-1.5
		c1-1.5,1.7-3.1,2.4-4.7c0.1-0.7,0.2-1.3,0.4-1.7c0.1-0.5,0.3-0.7,0.5-0.7c0.2,0.1,0.2,0.2,0.2,0.8c0,0.5-0.3,1.5-0.5,2.9
		c-0.1,0.7-0.3,1.6-0.4,2.6s-0.2,2.2,0,3.5c0,0.3,0.1,0.6,0.2,1c0.3,1,1,1.7,2,1.7c2-0.3,2.8-2.4,3.2-4.1c0.1-0.6,0.1-1.1,0.2-1.6
		c0.1-1,0-1.8,0-2.5c0-0.1,0-0.3,0-0.4c0,0,0,0,0-0.1c-0.6-1.2-1.2-2.7-1.4-4.1c-0.2-0.7-0.4-2.5,0-3.1c0.1-0.1,0.2-0.2,0.3-0.2
		c0.7,0,1.3,2.4,1.7,4.9c0.1,0.5,0.2,1.5,0.2,2.9c0,0.1,0,0.2,0,0.3c0.7,1.2,1.5,1.9,2.4,1.9c0.7,0,1.6-0.5,2.5-1.5l0.2,0.2
		c-1.1,1.1-2,1.6-2.9,1.6c-0.8,0-1.6-0.5-2.3-1.5c0,1.1-0.2,2.4-0.5,3.4c-0.3,1.4-0.8,2.7-1.9,3.6c-0.1,0.1-0.2,0.2-0.4,0.3
		c-0.5,0.3-1,0.5-1.5,0.5c-1.2,0-2.2-1-2.5-2.9c-0.2-1.4-0.2-2.5-0.2-3.6c0.1-1,0.2-1.9,0.2-2.7c0-0.1,0-0.2,0-0.3
		c-0.5,1.3-1.2,2.7-1.9,3.9C170.5,27,169.6,27.8,168.9,27.8z M177.9,16.3c0,0,0,0.5,0.2,1.9c0.1,0.6,0.2,1.3,0.4,1.9
		c0.1,0.3,0.2,0.7,0.4,1.1c0-0.5-0.1-0.8-0.1-1.1C178.6,18.8,178,16.3,177.9,16.3z"/>
	<path d="M183.5,26.5c-1,0-0.5-2.7,0.6-3.8c0.8-0.7,1.5-1.1,2.1-1.1c0.3,0,0.5,0.2,0.6,0.3c0.1,0.1,0.1,0.2,0,0.2
		c-0.1,0.1-1.4,0.3-2.2,1c-0.6,0.5-1.2,1.3-1.2,2.1c0,0.3,0,0.8,0.2,0.8c0.1,0,0.2-0.1,0.4-0.2c0.2-0.1,0.3-0.2,0.5-0.4
		c0.3-0.3,0.6-0.6,0.9-1c0.5-0.5,1-1.1,1.5-1.7c0-0.1,0-0.2,0.1-0.2c0.2-0.4,0.3-0.6,0.5-0.6c0,0,0,0,0.1,0c0.2,0,0.2,0.3,0.1,0.8
		c-0.1,0.5-0.3,1.2-0.5,2.3c-0.2,0.8-0.3,2,0.3,2.7c0.1,0.1,0.3,0.2,0.4,0.3c0.2,0,0.4,0,0.6,0c1.4,0.1,3.7-3.5,4.3-4.6l0.2,0.1
		c-0.8,1.4-2.7,4.5-4.4,4.9c-0.1,0-0.2,0-0.4,0c-0.2,0-0.3,0-0.4,0c-0.2,0-0.5-0.2-0.6-0.4c-0.8-0.8-0.7-2.2-0.7-3.2
		c0.1-0.6,0.2-1.1,0.3-1.5c-0.6,0.8-1.2,1.6-2,2.3c-0.2,0.2-0.3,0.3-0.5,0.4c-0.1,0-0.2,0.2-0.3,0.2
		C183.8,26.4,183.7,26.5,183.5,26.5z"/>
	<path d="M192.2,28.6c0-0.5,0-1.2,0.1-2c0.2-1.9,0.6-4.9,1.2-9.3c0.1-1.1,0.2-2.2,0.3-3.1c0.3-2.4,0.5-4.1,0.6-5.4
		c0.3-2.6,0.5-3.3,1-3.2c0.4,0.1,0.3,0.8-0.2,3.3c-0.2,1.3-0.6,3-1,5.4c-0.1,0.9-0.3,1.8-0.5,2.9c-0.5,4.6-0.7,7.7-0.7,9.7
		c0,1,0,1.7,0,2.3c0.1,1.1,0.1,2.5,0.1,2.8c0,1.5,0.5,2.2,1.2,2.2c2.3,0,5.7-7.5,6.4-9.3l0.3,0c-1,2.3-2.7,6.3-4.3,8.2
		c-0.5,0.7-1.5,1.8-2.4,1.8c-0.2,0-0.5-0.1-0.7-0.2C192.2,33.7,192,30.2,192.2,28.6z"/>
	<path d="M201.2,17.6c0.1-2.7,1.7-5.9,3.5-7.9c2.2-2.4,5.1-3.8,8.4-3.8c0.6,0,1.3,0.1,1.9,0.2c0.4,0,0.7,0.1,1.1,0.2
		c0.1,0,0.2,0,0.3,0c0.3,0.2,0.7,0.3,1,0.4c1.7,0.7,3.3,2.2,3.8,3.9c0,0.1,0,0.3,0,0.4l0,0.2v0.2c0,0.1,0,0.3,0,0.4
		c0,0.1,0,0.2,0,0.4c0,0.2,0,0.5,0,0.7c-0.3,2-1.7,3.7-3,5c-1.7,1.4-3.9,3-5.9,3.7c-0.5,0.1-0.7,0.2-1,0.2c-0.2,0-0.4-0.1-0.4-0.2
		c-0.1-0.2,0.2-0.4,1.1-0.8l1.7-0.8c2.7-1.5,5.8-3.3,6.8-6.5c0.1-0.2,0.1-0.5,0.2-0.7c0-0.1,0-0.2,0.1-0.4v-0.1l0-0.2v-0.7
		c0-0.2,0-0.5-0.1-0.8c-0.2-1-0.8-2-1.7-2.7l-0.4-0.3c-0.1-0.1-0.2-0.2-0.4-0.2c-0.2-0.2-0.5-0.4-0.8-0.5c-0.4-0.2-2-0.7-2.4-0.7
		c-0.6,0-1.2-0.1-1.9-0.1c-6.1,0-10.4,5.7-11,11.5c0,1.9,0.1,3,1.1,4.7c1.9,2.9,5.9,4.8,9,6.1c1,0.5,2.2,1,3.3,1.7
		c0.3,0.2,0.5,0.4,0.8,0.6c0.2,0.2,0.5,0.5,0.5,0.9c0.1,0.4,0,0.8-0.2,1.1c-0.1,0.3-0.4,0.5-0.7,0.8c-0.3,0.2-0.6,0.5-0.9,0.6
		c-0.5,0.3-1,0.5-1.6,0.5s-1.2-0.2-1.7-0.4c-0.7-0.4-1.3-0.9-1.9-1.5c-0.4-0.5-0.7-1-0.9-1.6c0-0.2,0-0.4,0-0.5
		c0-0.1,0.1-0.1,0.2-0.1c0,0,0,0.1,0,0.2c0,0.1,0,0.2,0,0.4c0,0.2,0.1,0.4,0.2,0.5c0.4,1,1.5,2,2.4,2.3c0.5,0.2,1,0.4,1.5,0.4
		c0.2,0,0.4,0,0.6-0.1c0.3,0,0.6-0.2,0.9-0.4c0.3-0.1,0.6-0.3,0.8-0.5c0.2-0.3,0.4-0.5,0.6-0.8s0.2-0.6,0.2-0.8
		c-0.1-0.2-0.3-0.5-0.5-0.7c-0.2-0.2-0.5-0.4-0.7-0.5c-1-0.6-2.2-1.1-3.3-1.5c-4.4-1.8-10.4-4.4-10.8-9.8
		C201.1,18.7,201.1,18.1,201.2,17.6z"/>
	<path d="M221.3,26.6c0-0.1,0-0.2,0-0.4c0-1.1,0-2,0-2.8c0-1.2,0.1-2.3,0.2-3.4c0.2-1.2,0.4-3.2,0.7-5.9c0.1-2.9,0.1-4.8,0.2-6.1
		c0-1.6,0-2.2,0.5-2.2c0,0,0.1,0,0.1,0c0.5,0,0.5,0.5,0.2,2.2c-0.1,1.2-0.4,2.9-0.6,5.4c-0.2,3.2-0.2,5.3-0.2,6.6
		c0,0.8,0,1.4-0.1,1.7c0,0.4,0,1-0.1,1.7c-0.1,0.6-0.2,1.3-0.2,2.1c0.4-0.4,0.7-0.8,1.1-1.3c0.1-0.1,0.1-0.2,0.2-0.3
		c0.4-0.7,0.8-1.4,1.2-2c0.7-1.2,1.1-2,1.5-2.7c0.5-1,0.8-1.5,1.1-1.5c0.1,0,0.2,0,0.3,0.1c0.4,0.2,0.2,0.7-0.7,1.9
		c-0.4,0.6-1,1.5-1.8,2.6c-0.4,0.5-0.8,1.1-1.2,1.7c-0.1,0.1-0.2,0.2-0.2,0.4c-0.3,0.4-0.5,0.7-0.8,1.1c-0.2,0.3-0.5,0.5-0.7,0.8
		c0,0.2,0,0.4-0.1,0.6c0.1,0.2,0.2,0.4,0.3,0.5c0.3,0.4,0.5,0.6,0.7,0.9c1,0.7,2,1.5,3.2,1.9c0.5,0.2,0.9,0.4,1.5,0.5
		c2.9,0,4.6-2,5.6-4.6l0.2,0.2c-0.4,1-0.9,2-1.5,2.8c-1.2,1.3-2.6,2.3-4.4,2.3c-2,0-3.9-1-5.2-2.5c-0.2-0.2-0.4-0.5-0.6-0.7
		c0,0.7-0.1,1.4-0.1,2.2c0,0.4,0,2.8,0.3,3c0.2,0,0.4,0.2,0,0.3c-0.7,0.1-0.7-2.8-0.7-3.3c0-1,0-1.9,0-2.8c0-0.2,0-0.3,0-0.5
		C221.3,26.8,221.2,26.7,221.3,26.6z"/>
	<path d="M233.6,26.5c-1,0-0.5-2.7,0.6-3.8c0.8-0.7,1.5-1.1,2.1-1.1c0.3,0,0.5,0.2,0.6,0.3c0.1,0.1,0.1,0.2,0,0.2
		c-0.1,0.1-1.4,0.3-2.2,1c-0.6,0.5-1.2,1.3-1.2,2.1c0,0.3,0,0.8,0.2,0.8c0.1,0,0.2-0.1,0.4-0.2c0.2-0.1,0.3-0.2,0.5-0.4
		c0.3-0.3,0.6-0.6,0.9-1c0.5-0.5,1-1.1,1.5-1.7c0-0.1,0-0.2,0.1-0.2c0.2-0.4,0.3-0.6,0.5-0.6c0,0,0,0,0.1,0c0.2,0,0.2,0.3,0.1,0.8
		c-0.1,0.5-0.3,1.2-0.5,2.3c-0.2,0.8-0.3,2,0.3,2.7c0.1,0.1,0.2,0.2,0.4,0.3c0.2,0,0.4,0,0.6,0c1.4,0.1,3.7-3.5,4.3-4.6l0.2,0.1
		c-0.8,1.4-2.7,4.5-4.4,4.9c-0.1,0-0.2,0-0.4,0c-0.2,0-0.3,0-0.4,0c-0.2,0-0.5-0.2-0.6-0.4c-0.8-0.8-0.7-2.2-0.7-3.2
		c0.1-0.6,0.2-1.1,0.3-1.5c-0.6,0.8-1.2,1.6-2,2.3c-0.2,0.2-0.3,0.3-0.5,0.4c-0.1,0-0.2,0.2-0.3,0.2
		C233.8,26.4,233.7,26.5,233.6,26.5z"/>
	<path d="M114.4,26.4c-0.7,0.4-1.3,0.8-2,1.1c-0.3,0.2-0.6,0.3-0.9,0.4c-0.3,0.1-0.7,0.2-1,0.3c-0.1,0-0.2,0-0.3,0
		c-0.5,0-0.9-0.3-1.2-0.8c-0.2-0.3-0.3-0.6-0.3-1c0-0.3-0.1-0.7,0-1c0-0.1,0.1-0.2,0.3-0.3c0.4-0.1,0.8-0.3,1.2-0.6
		c0.4-0.3,0.7-0.6,1.1-1c0.3-0.4,0.6-0.8,0.8-1.2c0.2-0.4,0.3-0.9,0.3-1.3c0-0.3-0.1-0.6-0.3-0.9c-0.2-0.2-0.4-0.3-0.7-0.3
		c-0.1,0-0.3,0-0.5,0.1c-0.4,0.1-0.8,0.4-1.1,0.9c-0.3,0.5-0.6,1-0.8,1.5c-0.2,0.6-0.4,1.1-0.5,1.7c-0.1,0.6-0.2,1-0.2,1.4
		c0,0.4,0,0.9,0.1,1.4c0.3,1.1,1,1.6,2,1.7c0.2,0,0.4,0,0.6-0.1c0.4-0.1,0.8-0.2,1.1-0.3c0.3-0.2,0.7-0.3,1.1-0.5l1.8-1
		c0-0.1,0-0.3,0-0.4C114.6,26.3,114.5,26.4,114.4,26.4z M108.7,24.6c0.1-0.6,0.3-1.2,0.5-1.7c0.2-0.6,0.5-1.1,0.9-1.6
		c0.1-0.2,0.3-0.3,0.4-0.6c0.2-0.2,0.4-0.3,0.6-0.3c0,0,0.1,0,0.3,0.1c0.1,0.1,0.2,0.2,0.3,0.3c0,0.1,0.1,0.3,0.1,0.5
		c-0.1,0.7-0.4,1.4-0.8,2c-0.4,0.6-0.9,1.1-1.6,1.5c-0.1,0-0.1,0.1-0.2,0.1c-0.1,0-0.2,0.1-0.4,0.1C108.7,25,108.7,24.9,108.7,24.6
		L108.7,24.6z"/>
</g>
<g>
	<path d="M112.6,39.6v7h-0.7V41l-2.8,4.7h-0.3L106,41v5.6h-0.7v-7h0.6l3,5.2l3-5.2H112.6z"/>
	<path d="M121.1,45.9v0.6h-4.9v-7h4.8v0.6h-4.1v2.5h3.6v0.6h-3.6v2.6H121.1z"/>
	<path d="M130,39.6v7h-0.6l-4.5-5.7v5.7h-0.7v-7h0.6l4.5,5.7v-5.7H130z"/>
	<path d="M134.9,40.2h-2.5v-0.6h5.7v0.6h-2.5v6.4h-0.7V40.2z"/>
	<path d="M141.7,46.2c-0.6-0.3-1-0.7-1.3-1.3s-0.5-1.1-0.5-1.8c0-0.7,0.2-1.3,0.5-1.8s0.8-1,1.3-1.3c0.6-0.3,1.2-0.5,1.9-0.5
		s1.3,0.2,1.9,0.5s1,0.7,1.3,1.3c0.3,0.5,0.5,1.2,0.5,1.8c0,0.7-0.2,1.3-0.5,1.8c-0.3,0.5-0.8,1-1.3,1.3s-1.2,0.5-1.9,0.5
		S142.3,46.5,141.7,46.2z M145.1,45.6c0.4-0.3,0.8-0.6,1-1c0.3-0.4,0.4-0.9,0.4-1.5s-0.1-1-0.4-1.5c-0.3-0.4-0.6-0.8-1-1
		c-0.4-0.3-0.9-0.4-1.5-0.4c-0.6,0-1.1,0.1-1.5,0.4c-0.5,0.3-0.8,0.6-1.1,1s-0.4,0.9-0.4,1.5s0.1,1,0.4,1.5s0.6,0.8,1.1,1
		c0.4,0.3,1,0.4,1.5,0.4C144.1,46,144.6,45.9,145.1,45.6z"/>
	<path d="M155,46.6l-1.6-2.3c-0.2,0-0.4,0-0.6,0H151v2.2h-0.7v-7h2.6c0.9,0,1.6,0.2,2.1,0.6c0.5,0.4,0.8,1,0.8,1.8
		c0,0.5-0.1,1-0.4,1.4s-0.7,0.6-1.2,0.8l1.7,2.4H155z M154.4,43.3c0.4-0.3,0.5-0.7,0.5-1.3c0-0.6-0.2-1-0.5-1.3
		c-0.4-0.3-0.9-0.5-1.6-0.5H151v3.5h1.9C153.5,43.7,154.1,43.6,154.4,43.3z"/>
	<path d="M158.8,39.6h0.7v7h-0.7V39.6z"/>
	<path d="M168.9,39.6v7h-0.6l-4.5-5.7v5.7h-0.7v-7h0.6l4.5,5.7v-5.7H168.9z"/>
	<path d="M177.5,43.1h0.7v2.7c-0.3,0.3-0.7,0.5-1.2,0.7c-0.4,0.2-0.9,0.2-1.4,0.2c-0.7,0-1.3-0.2-1.9-0.5c-0.6-0.3-1-0.7-1.3-1.3
		c-0.3-0.5-0.5-1.2-0.5-1.8c0-0.7,0.2-1.3,0.5-1.8c0.3-0.5,0.8-1,1.3-1.3c0.6-0.3,1.2-0.5,1.9-0.5c0.5,0,1,0.1,1.5,0.3
		c0.4,0.2,0.8,0.4,1.1,0.8l-0.5,0.5c-0.6-0.5-1.3-0.8-2.1-0.8c-0.6,0-1.1,0.1-1.5,0.4s-0.8,0.6-1.1,1c-0.3,0.4-0.4,0.9-0.4,1.5
		s0.1,1,0.4,1.5c0.3,0.4,0.6,0.8,1.1,1c0.5,0.3,1,0.4,1.5,0.4c0.7,0,1.3-0.2,1.8-0.5V43.1z"/>
</g>
</svg>
