<svg id="Layer_1" data-name="Layer 1" xmlns="http://www.w3.org/2000/svg" viewBox="0 0 213.82 151.98"><title>NameSvg</title><path d="M38.15,101.66a57.82,57.82,0,0,1-1.61-10.85Q36.27,85.46,36,80.5q.27-8,.87-15.47t1.54-14.93q.93-7,1.74-13.79t1.61-13.79a32.7,32.7,0,0,0,0-7.23q0-.8-.4-.94h-.27a.86.86,0,0,0-.8.54,46.19,46.19,0,0,0-6.16,9.78q-2.95,6-5.42,12.65T24.22,50.38q-2,6.43-3.21,11.25Q18.46,71.27,16.85,81t-2.95,19.82l-1.34,9.91q-.67,5-1.34,10a3.51,3.51,0,0,1-.13,1.07.72.72,0,0,1-.54.8A1.15,1.15,0,0,1,9.36,122a5.07,5.07,0,0,1-.27-1.61,9.94,9.94,0,0,1,.13-1.61q.54-4.29.94-8.37t.94-8.37q1.34-10.31,3.15-20.69t4.42-20.55q2.61-10.17,6.09-20.09a153.06,153.06,0,0,1,8.3-19.28q1.07-2.14,2.08-4.08a24.2,24.2,0,0,1,2.48-3.82A6.31,6.31,0,0,1,39.15,12a5.84,5.84,0,0,1,2.08-.87A3.52,3.52,0,0,1,42.3,11q3.35,0,4.55,3.62a9.87,9.87,0,0,1,.6,2.88q.07,1.41.2,2.88a74.13,74.13,0,0,1-.4,10q-.54,4.89-1.07,9.84-.67,6-1.34,12.12T43.64,64.57Q43,72.34,42.56,80t-.13,15.6c0,.89,0,1.76.07,2.61s.11,1.72.2,2.61a3,3,0,0,0,1.07-1.07,4.84,4.84,0,0,0,.4-1.21l2-7Q47.65,86.4,49.66,81A67.73,67.73,0,0,1,54,71.53q2.34-4.15,4.62-4.15,2,0,3.48,2.68a12.81,12.81,0,0,1,1.07,2.54l.8,2.68L66.13,82a58.13,58.13,0,0,0,2.54,6.56,23.93,23.93,0,0,0,2,3.28,21.91,21.91,0,0,0,2.68,3.08,12.67,12.67,0,0,0,3.28,2.28,8.38,8.38,0,0,0,3.68.87,7.74,7.74,0,0,0,3.82-1,15.11,15.11,0,0,0,3.35-2.54,19.2,19.2,0,0,0,2.68-3.35A23.57,23.57,0,0,0,92,87.74a4.81,4.81,0,0,0,.4-1.21.74.74,0,0,1,.8-.67q1.47.54,1.14,1.21l-.6,1.21a22,22,0,0,1-2.14,4,20,20,0,0,1-3.08,3.62,15.25,15.25,0,0,1-3.88,2.61,10.3,10.3,0,0,1-4.42,1,10,10,0,0,1-4.28-1,20.6,20.6,0,0,1-4-2.48,18.57,18.57,0,0,1-3.35-3.41,20,20,0,0,1-2.28-3.68,50.25,50.25,0,0,1-2.75-6.63q-1.14-3.41-2.21-6.9-.13-.4-.4-1.41c-.18-.67-.4-1.36-.67-2.08A16.08,16.08,0,0,0,59.37,70c-.31-.58-.6-.87-.87-.87s-.89.49-1.61,1.47q-.67,1.07-1.21,2.08a17.26,17.26,0,0,0-.94,2.08,98.84,98.84,0,0,0-4.89,12.92q-1.94,6.5-3.41,13.32l-1.21,4.82a2.67,2.67,0,0,1-2.41,1.87,3.29,3.29,0,0,1-3.08-1.34A13.89,13.89,0,0,1,38.15,101.66Z" transform="translate(-9.09 -11.01)"/><path d="M92.91,96.14c-3.55,0-1.77-9.61,2.22-13.61,2.81-2.66,5.47-4,7.54-4a2.94,2.94,0,0,1,2.22,1.18q.44.67,0,.89c-.29.3-4.88,1.18-7.84,3.7C95,86.08,92.91,89,92.62,91.85c.15,1-.15,2.81.74,2.81a3,3,0,0,0,1.33-.74,5.08,5.08,0,0,0,1.78-1.33,35.2,35.2,0,0,0,3.25-3.4A54.84,54.84,0,0,0,104.89,83c.15-.3.15-.59.3-.89.59-1.48,1-2.22,1.63-2.22h.3c.74.15.89,1,.44,2.81s-1.18,4.44-1.92,8.28c-.59,3-1,7.1,1.18,9.76a4.61,4.61,0,0,0,1.33,1h2.07c4.88.3,13.31-12.57,15.38-16.42l.59.44c-2.81,5-9.76,16.12-15.68,17.45a4.11,4.11,0,0,1-1.33.15,4.59,4.59,0,0,1-1.48-.15,5,5,0,0,1-2.22-1.33c-2.81-2.81-2.66-7.69-2.36-11.39.3-2.07.74-3.85,1-5.32a62.44,62.44,0,0,1-7,8.28A14.71,14.71,0,0,1,95.57,95c-.44.15-.74.59-1.18.74A3.31,3.31,0,0,1,92.91,96.14Z" transform="translate(-9.09 -11.01)"/><path d="M128.41,121.72c4-6.21,7.1-10.65,10.35-14.94.59-6.51,1-11.54,1.33-15.23.3-2.81.44-5,.74-6.65-3.11,4.44-10.94,14.94-15.38,17.89a6.23,6.23,0,0,1-3.55,1.33c-3.84,0-3-7.25-1.33-11.09,2.07-5.92,8.87-13.16,15.38-13.16a4,4,0,0,1,3,1.18c.29.44.29.74.44.89,0,.59-1,.74-1.48.74H136c-5.32.89-10.94,6.36-13.31,11.24-2.22,4.44-2.66,8.43-.45,8.43,1,0,2.66-.74,4.88-2.66,5.47-4.88,9.91-10.94,14.2-16.86.15-.44.44-.74.59-.74.89.15,1.18,3.11,1,9.61-.15,2.81-.3,6.51-.74,10.8,2.51-3.11,5.32-6.36,8.87-10.2l.59.59c-3.4,3.7-6.51,7.39-9.61,11.24-.89,9.91-1.92,19.82-3.7,29.58-4,21.15-10.94,29.58-16,29.28C115.25,162.54,112.44,146.72,128.41,121.72ZM122,161.06c.3,0,.44.15.74.15,4.44,0,10.8-10.8,14.49-39.19.59-5,.89-9.46,1.33-13.46-3.25,4.29-6.21,8.87-9.32,13.75C115.84,144.05,116.87,159.73,122,161.06Z" transform="translate(-9.09 -11.01)"/><path d="M151.48,101.31c3.84,0,10.2-8.73,11.83-12.57.74-15.09,1.92-30.17,5.92-44.81.3-1,.59-2.37.89-3.84.89-2.37,1.78-5.77,3.4-9.46.3-1,5-12.27,7.84-12.27.59,0,1.18.59,1.48,1.92a48.61,48.61,0,0,1-1.18,9.17c-2.81,11.54-5.77,22.92-9.17,34.31l-.89,3.11c-1.48,5.77-3,10.94-4.29,15.68a37.36,37.36,0,0,1-1.77,5.32c-.15.3-.15.59-.3.89a94.84,94.84,0,0,0,0,11.24c.15,2.07.3,4.14.44,6.06A44.26,44.26,0,0,0,167.3,112a7.52,7.52,0,0,0,1.92,2.37,3.22,3.22,0,0,0,1.18.74,4.12,4.12,0,0,0,1.48-.15c5.62-1.63,13.61-16.27,16.12-21.15l.89.3c-2.81,5.32-8.72,16.27-13.46,20.11a7,7,0,0,1-5.18,2.07,6.63,6.63,0,0,1-1.77-.89,5.71,5.71,0,0,1-2.22-2.81,20.93,20.93,0,0,1-1.92-6.36c-1-4.29-1-9.17-1-13.46-2.22,3.85-7.54,11.39-12.57,11.39-2.22,0-3.7-1.92-3-7.39C149,91,153.25,85.49,158.87,83.57a6.61,6.61,0,0,1,1.63-.15c.89,0,3,.3,3,1.63a1.1,1.1,0,0,1-.15.74,2.51,2.51,0,0,1-1,.15c-3,0-5.18,1.63-7.25,3.55C148.67,95.84,148.37,101.31,151.48,101.31Zm14.35-18.93c2.07-7,4.58-14.94,6.95-24,.44-1.33.74-2.66,1.18-3.84,1.33-5.62,2.66-10.8,3.85-15.68.59-3.55,1.33-7,1.92-10.06s.59-4.44.3-4.44c-.89,0-3.4,5.92-3.84,7.25a70.77,70.77,0,0,0-3,9.32,42.18,42.18,0,0,1-1.33,4.44c-2.37,11.24-4.73,22.33-5.77,33.72A26.52,26.52,0,0,0,165.83,82.38Z" transform="translate(-9.09 -11.01)"/><path d="M189.64,96.14c-3.55,0-1.78-9.61,2.22-13.61,2.81-2.66,5.47-4,7.54-4a2.94,2.94,0,0,1,2.22,1.18q.44.67,0,.89c-.29.3-4.88,1.18-7.84,3.7-2.07,1.77-4.14,4.73-4.44,7.54.15,1-.15,2.81.74,2.81a3,3,0,0,0,1.33-.74,5.08,5.08,0,0,0,1.77-1.33,35,35,0,0,0,3.25-3.4A54.84,54.84,0,0,0,201.61,83c.15-.3.15-.59.3-.89.59-1.48,1-2.22,1.63-2.22h.3c.74.15.89,1,.44,2.81s-1.18,4.44-1.92,8.28c-.59,3-1,7.1,1.18,9.76a4.61,4.61,0,0,0,1.33,1h2.07c4.88.3,13.31-12.57,15.38-16.42l.59.44c-2.81,5-9.76,16.12-15.68,17.45a4.11,4.11,0,0,1-1.33.15,4.59,4.59,0,0,1-1.48-.15,5,5,0,0,1-2.22-1.33c-2.81-2.81-2.66-7.69-2.37-11.39.3-2.07.74-3.85,1-5.32a62.37,62.37,0,0,1-6.95,8.28A14.71,14.71,0,0,1,192.3,95c-.44.15-.74.59-1.18.74A3.31,3.31,0,0,1,189.64,96.14Z" transform="translate(-9.09 -11.01)"/></svg>